libre-caslon-text_regular.sfdir
StartChar: exclam
Encoding: 33 33 244
Width: 301
Flags: W
LayerCount: 2
Back
Fore
SplineSet
135 230 m 1,0,1
 130 310 130 310 123.5 382.5 c 128,-1,2
 117 455 117 455 110 516 c 0,3,4
 102 590 102 590 96 641 c 128,-1,5
 90 692 90 692 90 711 c 0,6,7
 90 740 90 740 106 760 c 128,-1,8
 122 780 122 780 151 780 c 0,9,10
 183 780 183 780 197 760.5 c 128,-1,11
 211 741 211 741 211 714 c 0,12,13
 211 694 211 694 205 643 c 128,-1,14
 199 592 199 592 191 520 c 0,15,16
 184 458 184 458 177.5 384.5 c 128,-1,17
 171 311 171 311 166 230 c 1,18,-1
 135 230 l 1,0,1
86 54 m 0,19,20
 86 83 86 83 103.5 101.5 c 128,-1,21
 121 120 121 120 150 120 c 0,22,23
 181 120 181 120 198.5 101.5 c 128,-1,24
 216 83 216 83 216 54 c 0,25,26
 216 28 216 28 198.5 9 c 128,-1,27
 181 -10 181 -10 150 -10 c 0,28,29
 121 -10 121 -10 103.5 9 c 128,-1,30
 86 28 86 28 86 54 c 0,19,20
EndSplineSet
EndChar
StartChar: quotedbl
Encoding: 34 34 396
Width: 370
Flags: W
LayerCount: 2
Back
Fore
SplineSet
94 505 m 1,0,1
 93 550 93 550 87 590.5 c 128,-1,2
 81 631 81 631 74 664.5 c 128,-1,3
 67 698 67 698 61.5 725 c 128,-1,4
 56 752 56 752 56 770 c 0,5,6
 56 798 56 798 70 814 c 128,-1,7
 84 830 84 830 109 830 c 0,8,9
 135 830 135 830 148.5 814 c 128,-1,10
 162 798 162 798 162 774 c 0,11,12
 162 755 162 755 156.5 727.5 c 128,-1,13
 151 700 151 700 144.5 665.5 c 128,-1,14
 138 631 138 631 131.5 590.5 c 128,-1,15
 125 550 125 550 124 505 c 1,16,-1
 94 505 l 1,0,1
246 505 m 1,17,18
 245 550 245 550 239 590.5 c 128,-1,19
 233 631 233 631 226 664.5 c 128,-1,20
 219 698 219 698 213.5 725 c 128,-1,21
 208 752 208 752 208 770 c 0,22,23
 208 798 208 798 222 814 c 128,-1,24
 236 830 236 830 261 830 c 0,25,26
 287 830 287 830 300.5 814 c 128,-1,27
 314 798 314 798 314 774 c 0,28,29
 314 755 314 755 308.5 727.5 c 128,-1,30
 303 700 303 700 296.5 665.5 c 128,-1,31
 290 631 290 631 283.5 590.5 c 128,-1,32
 277 550 277 550 276 505 c 1,33,-1
 246 505 l 1,17,18
EndSplineSet
Substitution2: "'tnum' Tabular Numbers in Latin lookup 3 subtable" quotedbl.tnum
EndChar
StartChar: numbersign
Encoding: 35 35 347
Width: 674
Flags: W
LayerCount: 2
Back
Fore
SplineSet
517 696 m 1,0,-1
 490 525 l 1,1,-1
 633 525 l 1,2,-1
 621 469 l 1,3,-1
 481 469 l 1,4,-1
 457 318 l 1,5,-1
 597 318 l 1,6,-1
 583 262 l 1,7,-1
 448 262 l 1,8,-1
 422 92 l 1,9,-1
 365 92 l 1,10,-1
 391 262 l 1,11,-1
 242 262 l 1,12,-1
 216 92 l 1,13,-1
 158 92 l 1,14,-1
 184 262 l 1,15,-1
 39 262 l 1,16,-1
 53 318 l 1,17,-1
 193 318 l 1,18,-1
 217 469 l 1,19,-1
 77 469 l 1,20,-1
 89 525 l 1,21,-1
 226 525 l 1,22,-1
 253 696 l 1,23,-1
 311 696 l 1,24,-1
 284 525 l 1,25,-1
 433 525 l 1,26,-1
 460 696 l 1,27,-1
 517 696 l 1,0,-1
251 318 m 1,28,-1
 400 318 l 1,29,-1
 424 469 l 1,30,-1
 275 469 l 1,31,-1
 251 318 l 1,28,-1
EndSplineSet
Substitution2: "'tnum' Tabular Numbers in Latin lookup 3 subtable" numbersign.tnum
EndChar
StartChar: dollar
Encoding: 36 36 211
Width: 537
Flags: W
LayerCount: 2
Back
Fore
SplineSet
299 780 m 1,0,1
 336 778 336 778 368 767.5 c 128,-1,2
 400 757 400 757 424 739.5 c 128,-1,3
 448 722 448 722 461.5 699 c 128,-1,4
 475 676 475 676 475 650 c 0,5,6
 475 623 475 623 460.5 607 c 128,-1,7
 446 591 446 591 420 591 c 0,8,9
 390 591 390 591 378.5 611.5 c 128,-1,10
 367 632 367 632 360 659 c 0,11,12
 351 691 351 691 338 709.5 c 128,-1,13
 325 728 325 728 299 736 c 1,14,-1
 299 451 l 1,15,16
 333 432 333 432 366.5 411.5 c 128,-1,17
 400 391 400 391 426.5 364.5 c 128,-1,18
 453 338 453 338 469.5 303 c 128,-1,19
 486 268 486 268 486 220 c 0,20,21
 486 176 486 176 472 138.5 c 128,-1,22
 458 101 458 101 433 72 c 128,-1,23
 408 43 408 43 373.5 23.5 c 128,-1,24
 339 4 339 4 299 -4 c 1,25,-1
 299 -102 l 1,26,-1
 257 -102 l 1,27,-1
 257 -9 l 1,28,29
 213 -9 213 -9 175.5 1 c 128,-1,30
 138 11 138 11 110.5 29 c 128,-1,31
 83 47 83 47 67.5 70.5 c 128,-1,32
 52 94 52 94 52 121 c 256,33,34
 52 148 52 148 66.5 164 c 128,-1,35
 81 180 81 180 106 180 c 0,36,37
 121 180 121 180 131.5 174 c 128,-1,38
 142 168 142 168 148.5 158.5 c 128,-1,39
 155 149 155 149 159.5 136.5 c 128,-1,40
 164 124 164 124 167 112 c 0,41,42
 171 98 171 98 176 84.5 c 128,-1,43
 181 71 181 71 190.5 60 c 128,-1,44
 200 49 200 49 215.5 41.5 c 128,-1,45
 231 34 231 34 257 32 c 1,46,-1
 257 332 l 1,47,48
 222 351 222 351 187 372 c 128,-1,49
 152 393 152 393 124 420 c 128,-1,50
 96 447 96 447 78.5 482.5 c 128,-1,51
 61 518 61 518 61 566 c 0,52,53
 61 608 61 608 75 644.5 c 128,-1,54
 89 681 89 681 114.5 708.5 c 128,-1,55
 140 736 140 736 176.5 754 c 128,-1,56
 213 772 213 772 257 778 c 1,57,-1
 257 888 l 1,58,-1
 299 888 l 1,59,-1
 299 780 l 1,0,1
394 159 m 0,60,61
 394 210 394 210 366.5 244 c 128,-1,62
 339 278 339 278 299 305 c 1,63,-1
 299 35 l 1,64,65
 343 45 343 45 368.5 77.5 c 128,-1,66
 394 110 394 110 394 159 c 0,60,61
166 622 m 0,67,68
 166 572 166 572 192 538 c 128,-1,69
 218 504 218 504 257 478 c 1,70,-1
 257 737 l 1,71,72
 216 731 216 731 191 701 c 128,-1,73
 166 671 166 671 166 622 c 0,67,68
EndSplineSet
Substitution2: "'tnum' Tabular Numbers in Latin lookup 3 subtable" dollar.tnum
EndChar
StartChar: percent
Encoding: 37 37 382
Width: 807
Flags: W
LayerCount: 2
Back
Fore
SplineSet
193 779 m 256,0,1
 226 779 226 779 255 762.5 c 128,-1,2
 284 746 284 746 305 716.5 c 128,-1,3
 326 687 326 687 338.5 648 c 128,-1,4
 351 609 351 609 351 564 c 0,5,6
 351 520 351 520 339 482 c 128,-1,7
 327 444 327 444 305.5 415.5 c 128,-1,8
 284 387 284 387 255 370.5 c 128,-1,9
 226 354 226 354 193 354 c 256,10,11
 160 354 160 354 131 370 c 128,-1,12
 102 386 102 386 81 414.5 c 128,-1,13
 60 443 60 443 48 481.5 c 128,-1,14
 36 520 36 520 36 564 c 0,15,16
 36 609 36 609 48 648.5 c 128,-1,17
 60 688 60 688 81.5 717 c 128,-1,18
 103 746 103 746 131.5 762.5 c 128,-1,19
 160 779 160 779 193 779 c 256,0,1
193 744 m 256,20,21
 176 744 176 744 164.5 736 c 128,-1,22
 153 728 153 728 145.5 707.5 c 128,-1,23
 138 687 138 687 134.5 652.5 c 128,-1,24
 131 618 131 618 131 565 c 0,25,26
 131 511 131 511 134.5 477 c 128,-1,27
 138 443 138 443 145.5 423.5 c 128,-1,28
 153 404 153 404 164.5 397 c 128,-1,29
 176 390 176 390 193 390 c 256,30,31
 210 390 210 390 222 397.5 c 128,-1,32
 234 405 234 405 241.5 424.5 c 128,-1,33
 249 444 249 444 252.5 478 c 128,-1,34
 256 512 256 512 256 565 c 256,35,36
 256 618 256 618 252.5 652.5 c 128,-1,37
 249 687 249 687 241.5 707.5 c 128,-1,38
 234 728 234 728 222 736 c 128,-1,39
 210 744 210 744 193 744 c 256,20,21
614 415 m 256,40,41
 647 415 647 415 676 398.5 c 128,-1,42
 705 382 705 382 726 352.5 c 128,-1,43
 747 323 747 323 759.5 284 c 128,-1,44
 772 245 772 245 772 200 c 0,45,46
 772 156 772 156 760 118 c 128,-1,47
 748 80 748 80 726.5 51.5 c 128,-1,48
 705 23 705 23 676 6.5 c 128,-1,49
 647 -10 647 -10 614 -10 c 256,50,51
 581 -10 581 -10 552 6 c 128,-1,52
 523 22 523 22 502 50.5 c 128,-1,53
 481 79 481 79 469 117.5 c 128,-1,54
 457 156 457 156 457 200 c 0,55,56
 457 245 457 245 469 284.5 c 128,-1,57
 481 324 481 324 502.5 353 c 128,-1,58
 524 382 524 382 552.5 398.5 c 128,-1,59
 581 415 581 415 614 415 c 256,40,41
614 380 m 256,60,61
 597 380 597 380 585.5 372 c 128,-1,62
 574 364 574 364 566.5 343.5 c 128,-1,63
 559 323 559 323 555.5 288.5 c 128,-1,64
 552 254 552 254 552 201 c 0,65,66
 552 147 552 147 555.5 113 c 128,-1,67
 559 79 559 79 566.5 59.5 c 128,-1,68
 574 40 574 40 585.5 33 c 128,-1,69
 597 26 597 26 614 26 c 256,70,71
 631 26 631 26 643 33.5 c 128,-1,72
 655 41 655 41 662.5 60.5 c 128,-1,73
 670 80 670 80 673.5 114 c 128,-1,74
 677 148 677 148 677 201 c 256,75,76
 677 254 677 254 673.5 288.5 c 128,-1,77
 670 323 670 323 662.5 343.5 c 128,-1,78
 655 364 655 364 643 372 c 128,-1,79
 631 380 631 380 614 380 c 256,60,61
136 0 m 1,80,-1
 605 770 l 1,81,-1
 675 770 l 1,82,-1
 205 0 l 1,83,-1
 136 0 l 1,80,-1
EndSplineSet
Substitution2: "'tnum' Tabular Numbers in Latin lookup 3 subtable" percent.tnum
EndChar
StartChar: ampersand
Encoding: 38 38 155
Width: 812
Flags: W
LayerCount: 2
Back
Fore
SplineSet
277 431 m 1,0,1
 253 462 253 462 238 488 c 128,-1,2
 223 514 223 514 215 536 c 128,-1,3
 207 558 207 558 204.5 575.5 c 128,-1,4
 202 593 202 593 202 607 c 0,5,6
 202 646 202 646 217 678 c 128,-1,7
 232 710 232 710 257 732.5 c 128,-1,8
 282 755 282 755 315.5 767.5 c 128,-1,9
 349 780 349 780 385 780 c 0,10,11
 414 780 414 780 440 772 c 128,-1,12
 466 764 466 764 486 749 c 128,-1,13
 506 734 506 734 517.5 712 c 128,-1,14
 529 690 529 690 529 662 c 0,15,16
 529 618 529 618 495.5 568.5 c 128,-1,17
 462 519 462 519 380 460 c 1,18,-1
 584 208 l 1,19,20
 610 253 610 253 624.5 300 c 128,-1,21
 639 347 639 347 639 392 c 0,22,23
 639 405 639 405 636.5 412.5 c 128,-1,24
 634 420 634 420 624 425.5 c 128,-1,25
 614 431 614 431 595 434 c 128,-1,26
 576 437 576 437 542 441 c 1,27,-1
 542 465 l 1,28,-1
 797 465 l 1,29,-1
 797 441 l 1,30,31
 764 438 764 438 744 434 c 128,-1,32
 724 430 724 430 712.5 423 c 128,-1,33
 701 416 701 416 696 405 c 128,-1,34
 691 394 691 394 687 377 c 0,35,36
 678 339 678 339 659 285.5 c 128,-1,37
 640 232 640 232 608 178 c 1,38,-1
 711 51 l 1,39,-1
 797 23 l 1,40,-1
 797 0 l 1,41,-1
 623 0 l 1,42,-1
 547 94 l 1,43,44
 517 61 517 61 485.5 41 c 128,-1,45
 454 21 454 21 423 9.5 c 128,-1,46
 392 -2 392 -2 363 -6 c 128,-1,47
 334 -10 334 -10 307 -10 c 0,48,49
 196 -10 196 -10 143 43 c 128,-1,50
 90 96 90 96 90 180 c 0,51,52
 90 216 90 216 100 246.5 c 128,-1,53
 110 277 110 277 132 306.5 c 128,-1,54
 154 336 154 336 190 366 c 128,-1,55
 226 396 226 396 277 431 c 1,0,1
194 224 m 0,56,57
 194 190 194 190 202.5 158 c 128,-1,58
 211 126 211 126 230 101.5 c 128,-1,59
 249 77 249 77 279 62 c 128,-1,60
 309 47 309 47 351 47 c 0,61,62
 368 47 368 47 388.5 50.5 c 128,-1,63
 409 54 409 54 431 62.5 c 128,-1,64
 453 71 453 71 476 86 c 128,-1,65
 499 101 499 101 522 125 c 1,66,-1
 298 404 l 1,67,68
 266 380 266 380 245.5 356.5 c 128,-1,69
 225 333 225 333 213.5 311 c 128,-1,70
 202 289 202 289 198 267 c 128,-1,71
 194 245 194 245 194 224 c 0,56,57
461 637 m 0,72,73
 461 690 461 690 434 717 c 128,-1,74
 407 744 407 744 364 744 c 0,75,76
 326 744 326 744 299 722 c 128,-1,77
 272 700 272 700 272 652 c 0,78,79
 272 638 272 638 275.5 622.5 c 128,-1,80
 279 607 279 607 288.5 587.5 c 128,-1,81
 298 568 298 568 315 543 c 128,-1,82
 332 518 332 518 359 485 c 1,83,84
 417 525 417 525 439 560 c 128,-1,85
 461 595 461 595 461 637 c 0,72,73
EndSplineSet
EndChar
StartChar: quotesingle
Encoding: 39 39 404
Width: 218
Flags: W
LayerCount: 2
Back
Fore
SplineSet
94 505 m 1,0,1
 93 550 93 550 87 590.5 c 128,-1,2
 81 631 81 631 74 664.5 c 128,-1,3
 67 698 67 698 61.5 725 c 128,-1,4
 56 752 56 752 56 770 c 0,5,6
 56 798 56 798 70 814 c 128,-1,7
 84 830 84 830 109 830 c 0,8,9
 135 830 135 830 148.5 814 c 128,-1,10
 162 798 162 798 162 774 c 0,11,12
 162 755 162 755 156.5 727.5 c 128,-1,13
 151 700 151 700 144.5 665.5 c 128,-1,14
 138 631 138 631 131.5 590.5 c 128,-1,15
 125 550 125 550 124 505 c 1,16,-1
 94 505 l 1,0,1
EndSplineSet
Substitution2: "'tnum' Tabular Numbers in Latin lookup 3 subtable" quotesingle.tnum
EndChar
StartChar: parenleft
Encoding: 40 40 380
Width: 305
Flags: W
LayerCount: 2
Back
Fore
SplineSet
251 -200 m 1,0,1
 218 -166 218 -166 182 -119 c 128,-1,2
 146 -72 146 -72 116 -9.5 c 128,-1,3
 86 53 86 53 66.5 131 c 128,-1,4
 47 209 47 209 47 305 c 0,5,6
 47 391 47 391 68 472.5 c 128,-1,7
 89 554 89 554 121 623.5 c 128,-1,8
 153 693 153 693 192.5 746.5 c 128,-1,9
 232 800 232 800 268 830 c 1,10,-1
 279 820 l 1,11,12
 260 791 260 791 235.5 737 c 128,-1,13
 211 683 211 683 189.5 613.5 c 128,-1,14
 168 544 168 544 153.5 464.5 c 128,-1,15
 139 385 139 385 139 304 c 0,16,17
 139 208 139 208 152.5 130.5 c 128,-1,18
 166 53 166 53 185.5 -8 c 128,-1,19
 205 -69 205 -69 227 -113.5 c 128,-1,20
 249 -158 249 -158 267 -187 c 1,21,-1
 251 -200 l 1,0,1
EndSplineSet
EndChar
StartChar: parenright
Encoding: 41 41 381
Width: 305
Flags: W
LayerCount: 2
Back
Fore
SplineSet
38 -187 m 1,0,1
 56 -158 56 -158 78 -113.5 c 128,-1,2
 100 -69 100 -69 119.5 -8 c 128,-1,3
 139 53 139 53 152.5 130.5 c 128,-1,4
 166 208 166 208 166 304 c 0,5,6
 166 385 166 385 151.5 464.5 c 128,-1,7
 137 544 137 544 115.5 613.5 c 128,-1,8
 94 683 94 683 69.5 737 c 128,-1,9
 45 791 45 791 26 820 c 1,10,-1
 37 830 l 1,11,12
 73 800 73 800 112.5 746.5 c 128,-1,13
 152 693 152 693 184 623.5 c 128,-1,14
 216 554 216 554 237 472.5 c 128,-1,15
 258 391 258 391 258 305 c 0,16,17
 258 209 258 209 238.5 131 c 128,-1,18
 219 53 219 53 189 -9.5 c 128,-1,19
 159 -72 159 -72 123 -119 c 128,-1,20
 87 -166 87 -166 54 -200 c 1,21,-1
 38 -187 l 1,0,1
EndSplineSet
EndChar
StartChar: asterisk
Encoding: 42 42 162
Width: 481
Flags: W
LayerCount: 2
Back
Fore
SplineSet
252 612 m 1,0,-1
 257 578 l 2,1,2
 262 544 262 544 270.5 518 c 128,-1,3
 279 492 279 492 279 472 c 0,4,5
 279 455 279 455 269.5 443.5 c 128,-1,6
 260 432 260 432 242 432 c 256,7,8
 224 432 224 432 214 444 c 128,-1,9
 204 456 204 456 204 476 c 0,10,11
 204 498 204 498 213.5 524 c 128,-1,12
 223 550 223 550 227 579 c 2,13,-1
 231 612 l 1,14,-1
 203 591 l 2,15,16
 188 579 188 579 176 565.5 c 128,-1,17
 164 552 164 552 153 540.5 c 128,-1,18
 142 529 142 529 130.5 521.5 c 128,-1,19
 119 514 119 514 104 514 c 0,20,21
 85 514 85 514 74 525 c 128,-1,22
 63 536 63 536 63 553 c 256,23,24
 63 570 63 570 74.5 578.5 c 128,-1,25
 86 587 86 587 104.5 592.5 c 128,-1,26
 123 598 123 598 145.5 603 c 128,-1,27
 168 608 168 608 190 618 c 2,28,-1
 219 631 l 1,29,-1
 188 644 l 2,30,31
 166 653 166 653 144 657.5 c 128,-1,32
 122 662 122 662 104 667 c 128,-1,33
 86 672 86 672 74.5 680.5 c 128,-1,34
 63 689 63 689 63 707 c 0,35,36
 63 724 63 724 73.5 735.5 c 128,-1,37
 84 747 84 747 104 747 c 0,38,39
 119 747 119 747 130 739.5 c 128,-1,40
 141 732 141 732 152 720.5 c 128,-1,41
 163 709 163 709 175 695 c 128,-1,42
 187 681 187 681 204 669 c 2,43,-1
 230 650 l 1,44,-1
 226 684 l 2,45,46
 222 717 222 717 212.5 738.5 c 128,-1,47
 203 760 203 760 203 784 c 256,48,49
 203 808 203 808 214 819 c 128,-1,50
 225 830 225 830 241 830 c 0,51,52
 256 830 256 830 267 819 c 128,-1,53
 278 808 278 808 278 784 c 0,54,55
 278 772 278 772 274.5 761 c 128,-1,56
 271 750 271 750 267.5 738.5 c 128,-1,57
 264 727 264 727 260 713.5 c 128,-1,58
 256 700 256 700 255 682 c 2,59,-1
 252 650 l 1,60,-1
 277 670 l 2,61,62
 296 685 296 685 308.5 699 c 128,-1,63
 321 713 321 713 331.5 724 c 128,-1,64
 342 735 342 735 352.5 741.5 c 128,-1,65
 363 748 363 748 377 748 c 0,66,67
 398 748 398 748 408 736 c 128,-1,68
 418 724 418 724 418 708 c 0,69,70
 418 690 418 690 406.5 681.5 c 128,-1,71
 395 673 395 673 377 668 c 128,-1,72
 359 663 359 663 337 658.5 c 128,-1,73
 315 654 315 654 293 645 c 2,74,-1
 262 632 l 1,75,-1
 291 619 l 2,76,77
 315 608 315 608 337.5 603 c 128,-1,78
 360 598 360 598 378 593 c 128,-1,79
 396 588 396 588 407 579.5 c 128,-1,80
 418 571 418 571 418 554 c 0,81,82
 418 536 418 536 406.5 525.5 c 128,-1,83
 395 515 395 515 377 515 c 0,84,85
 362 515 362 515 350.5 522.5 c 128,-1,86
 339 530 339 530 328 541.5 c 128,-1,87
 317 553 317 553 305 566.5 c 128,-1,88
 293 580 293 580 278 592 c 2,89,-1
 252 612 l 1,0,-1
EndSplineSet
EndChar
StartChar: plus
Encoding: 43 43 389
Width: 502
Flags: W
LayerCount: 2
Back
Fore
SplineSet
226 315 m 1,0,-1
 46 315 l 1,1,-1
 46 364 l 1,2,-1
 226 364 l 1,3,-1
 226 544 l 1,4,-1
 277 544 l 1,5,-1
 277 364 l 1,6,-1
 456 364 l 1,7,-1
 456 315 l 1,8,-1
 277 315 l 1,9,-1
 277 134 l 1,10,-1
 226 134 l 1,11,-1
 226 315 l 1,0,-1
EndSplineSet
Substitution2: "'tnum' Tabular Numbers in Latin lookup 3 subtable" plus.tnum
EndChar
StartChar: comma
Encoding: 44 44 194
Width: 263
Flags: W
LayerCount: 2
Back
Fore
SplineSet
75 -122 m 1,0,1
 103 -101 103 -101 120 -77 c 128,-1,2
 137 -53 137 -53 137 -36 c 0,3,4
 137 -18 137 -18 125.5 -9.5 c 128,-1,5
 114 -1 114 -1 99.5 7 c 128,-1,6
 85 15 85 15 73.5 26.5 c 128,-1,7
 62 38 62 38 62 61 c 0,8,9
 62 90 62 90 81 109 c 128,-1,10
 100 128 100 128 129 128 c 0,11,12
 161 128 161 128 180.5 103 c 128,-1,13
 200 78 200 78 200 43 c 0,14,15
 200 -18 200 -18 173.5 -65.5 c 128,-1,16
 147 -113 147 -113 95 -151 c 1,17,-1
 75 -122 l 1,0,1
EndSplineSet
Substitution2: "'tnum' Tabular Numbers in Latin lookup 3 subtable" comma.tnum
EndChar
StartChar: hyphen
Encoding: 45 45 299
Width: 465
Flags: W
LayerCount: 2
Back
Fore
SplineSet
73 210 m 1,0,-1
 73 294 l 1,1,-1
 392 294 l 1,2,-1
 392 210 l 1,3,-1
 73 210 l 1,0,-1
EndSplineSet
EndChar
StartChar: period
Encoding: 46 46 384
Width: 262
Flags: W
LayerCount: 2
Back
Fore
SplineSet
62 58 m 0,0,1
 62 88 62 88 80.5 108 c 128,-1,2
 99 128 99 128 130 128 c 0,3,4
 162 128 162 128 181 108 c 128,-1,5
 200 88 200 88 200 58 c 0,6,7
 200 30 200 30 181 10 c 128,-1,8
 162 -10 162 -10 130 -10 c 0,9,10
 99 -10 99 -10 80.5 10 c 128,-1,11
 62 30 62 30 62 58 c 0,0,1
EndSplineSet
Substitution2: "'tnum' Tabular Numbers in Latin lookup 3 subtable" period.tnum
EndChar
StartChar: slash
Encoding: 47 47 441
Width: 363
Flags: W
LayerCount: 2
Back
Fore
SplineSet
47 -169 m 1,0,-1
 247 819 l 1,1,-1
 316 819 l 1,2,-1
 115 -169 l 1,3,-1
 47 -169 l 1,0,-1
EndSplineSet
Substitution2: "'tnum' Tabular Numbers in Latin lookup 3 subtable" slash.tnum
EndChar
StartChar: zero
Encoding: 48 48 530
Width: 640
Flags: W
LayerCount: 2
Back
Fore
SplineSet
319 780 m 256,0,1
 374 780 374 780 421.5 749 c 128,-1,2
 469 718 469 718 504.5 664 c 128,-1,3
 540 610 540 610 560.5 537.5 c 128,-1,4
 581 465 581 465 581 381 c 0,5,6
 581 298 581 298 561 226.5 c 128,-1,7
 541 155 541 155 505.5 102.5 c 128,-1,8
 470 50 470 50 422 20 c 128,-1,9
 374 -10 374 -10 319 -10 c 256,10,11
 264 -10 264 -10 216.5 20 c 128,-1,12
 169 50 169 50 134 102.5 c 128,-1,13
 99 155 99 155 79 226.5 c 128,-1,14
 59 298 59 298 59 381 c 0,15,16
 59 465 59 465 79 538 c 128,-1,17
 99 611 99 611 134 664.5 c 128,-1,18
 169 718 169 718 216.5 749 c 128,-1,19
 264 780 264 780 319 780 c 256,0,1
319 739 m 256,20,21
 281 739 281 739 255 719.5 c 128,-1,22
 229 700 229 700 212.5 657 c 128,-1,23
 196 614 196 614 188.5 546.5 c 128,-1,24
 181 479 181 479 181 382 c 256,25,26
 181 285 181 285 188.5 218 c 128,-1,27
 196 151 196 151 212.5 109.5 c 128,-1,28
 229 68 229 68 255 49.5 c 128,-1,29
 281 31 281 31 319 31 c 256,30,31
 357 31 357 31 384 50 c 128,-1,32
 411 69 411 69 427.5 110.5 c 128,-1,33
 444 152 444 152 451.5 219 c 128,-1,34
 459 286 459 286 459 382 c 256,35,36
 459 478 459 478 451.5 546 c 128,-1,37
 444 614 444 614 427 656.5 c 128,-1,38
 410 699 410 699 383.5 719 c 128,-1,39
 357 739 357 739 319 739 c 256,20,21
EndSplineSet
Substitution2: "'onum' Oldstyle Figures in Latin lookup 9 subtable" zero.oldstyle
Substitution2: "'numr' Numerators in Latin lookup 8 subtable" zero.numerator
Substitution2: "'dnom' Denominators in Latin lookup 7 subtable" zero.denominator
Substitution2: "'sups' Superscript in Latin lookup 6 subtable" zerosuperior
Substitution2: "'sinf' Scientific Inferiors in Latin lookup 5 subtable" zeroinferior
Substitution2: "'tnum' Tabular Numbers in Latin lookup 3 subtable" zero.tnum
EndChar
StartChar: one
Encoding: 49 49 360
Width: 420
Flags: W
LayerCount: 2
Back
Fore
SplineSet
276 772 m 1,0,-1
 276 42 l 1,1,-1
 405 22 l 1,2,-1
 405 0 l 1,3,-1
 39 0 l 1,4,-1
 39 22 l 1,5,-1
 171 42 l 1,6,-1
 171 629 l 1,7,-1
 43 629 l 1,8,-1
 43 650 l 1,9,10
 95 667 95 667 148 698 c 128,-1,11
 201 729 201 729 255 780 c 1,12,-1
 276 772 l 1,0,-1
EndSplineSet
Substitution2: "'onum' Oldstyle Figures in Latin lookup 9 subtable" one.oldstyle
Substitution2: "'numr' Numerators in Latin lookup 8 subtable" one.numerator
Substitution2: "'dnom' Denominators in Latin lookup 7 subtable" one.denominator
Substitution2: "'sups' Superscript in Latin lookup 6 subtable" onesuperior
Substitution2: "'sinf' Scientific Inferiors in Latin lookup 5 subtable" oneinferior
Substitution2: "'tnum' Tabular Numbers in Latin lookup 3 subtable" one.tnum
EndChar
StartChar: two
Encoding: 50 50 463
Width: 579
Flags: W
LayerCount: 2
Back
Fore
SplineSet
32 0 m 1,0,-1
 23 23 l 1,1,2
 122 119 122 119 191 194.5 c 128,-1,3
 260 270 260 270 302.5 332 c 128,-1,4
 345 394 345 394 364.5 445.5 c 128,-1,5
 384 497 384 497 384 545 c 0,6,7
 384 580 384 580 374.5 609.5 c 128,-1,8
 365 639 365 639 348 660 c 128,-1,9
 331 681 331 681 307 692.5 c 128,-1,10
 283 704 283 704 255 704 c 0,11,12
 206 704 206 704 159.5 672 c 128,-1,13
 113 640 113 640 85 588 c 1,14,-1
 64 599 l 1,15,16
 79 639 79 639 103.5 672.5 c 128,-1,17
 128 706 128 706 158.5 730 c 128,-1,18
 189 754 189 754 225 767 c 128,-1,19
 261 780 261 780 299 780 c 0,20,21
 342 780 342 780 378.5 763.5 c 128,-1,22
 415 747 415 747 442 718.5 c 128,-1,23
 469 690 469 690 484 651 c 128,-1,24
 499 612 499 612 499 566 c 0,25,26
 499 517 499 517 479.5 466 c 128,-1,27
 460 415 460 415 417.5 357.5 c 128,-1,28
 375 300 375 300 308.5 234 c 128,-1,29
 242 168 242 168 148 90 c 1,30,-1
 435 90 l 1,31,32
 442 98 442 98 452.5 111.5 c 128,-1,33
 463 125 463 125 474 141 c 128,-1,34
 485 157 485 157 495.5 174 c 128,-1,35
 506 191 506 191 515 207 c 1,36,-1
 537 199 l 1,37,-1
 461 -20 l 1,38,-1
 439 -20 l 1,39,-1
 426 0 l 1,40,-1
 32 0 l 1,0,-1
EndSplineSet
Substitution2: "'onum' Oldstyle Figures in Latin lookup 9 subtable" two.oldstyle
Substitution2: "'numr' Numerators in Latin lookup 8 subtable" two.numerator
Substitution2: "'dnom' Denominators in Latin lookup 7 subtable" two.denominator
Substitution2: "'sups' Superscript in Latin lookup 6 subtable" twosuperior
Substitution2: "'sinf' Scientific Inferiors in Latin lookup 5 subtable" twoinferior
Substitution2: "'tnum' Tabular Numbers in Latin lookup 3 subtable" two.tnum
EndChar
StartChar: three
Encoding: 51 51 451
Width: 554
Flags: W
LayerCount: 2
Back
Fore
SplineSet
169 398 m 1,0,1
 250 434 250 434 294 487 c 128,-1,2
 338 540 338 540 338 602 c 0,3,4
 338 651 338 651 312 680.5 c 128,-1,5
 286 710 286 710 248 710 c 0,6,7
 198 710 198 710 156.5 677.5 c 128,-1,8
 115 645 115 645 92 591 c 1,9,-1
 68 597 l 1,10,11
 76 637 76 637 96.5 671 c 128,-1,12
 117 705 117 705 146 729 c 128,-1,13
 175 753 175 753 211 766.5 c 128,-1,14
 247 780 247 780 287 780 c 0,15,16
 322 780 322 780 352 769.5 c 128,-1,17
 382 759 382 759 403.5 740 c 128,-1,18
 425 721 425 721 437 694.5 c 128,-1,19
 449 668 449 668 449 637 c 0,20,21
 449 586 449 586 416 540 c 128,-1,22
 383 494 383 494 323 460 c 1,23,-1
 323 456 l 1,24,25
 402 449 402 449 449.5 395 c 128,-1,26
 497 341 497 341 497 255 c 0,27,28
 497 200 497 200 476.5 151.5 c 128,-1,29
 456 103 456 103 420.5 67 c 128,-1,30
 385 31 385 31 337 10.5 c 128,-1,31
 289 -10 289 -10 234 -10 c 0,32,33
 195 -10 195 -10 160 0.5 c 128,-1,34
 125 11 125 11 99.5 29.5 c 128,-1,35
 74 48 74 48 59 73 c 128,-1,36
 44 98 44 98 44 126 c 0,37,38
 44 155 44 155 59 171 c 128,-1,39
 74 187 74 187 100 187 c 0,40,41
 122 187 122 187 134 175.5 c 128,-1,42
 146 164 146 164 154 147.5 c 128,-1,43
 162 131 162 131 168.5 111 c 128,-1,44
 175 91 175 91 185 74.5 c 128,-1,45
 195 58 195 58 211.5 46.5 c 128,-1,46
 228 35 228 35 256 35 c 0,47,48
 286 35 286 35 313 48.5 c 128,-1,49
 340 62 340 62 360 85.5 c 128,-1,50
 380 109 380 109 392 139.5 c 128,-1,51
 404 170 404 170 404 204 c 0,52,53
 404 240 404 240 390.5 271.5 c 128,-1,54
 377 303 377 303 354 326 c 128,-1,55
 331 349 331 349 299.5 362.5 c 128,-1,56
 268 376 268 376 232 376 c 0,57,58
 221 376 221 376 207 374.5 c 128,-1,59
 193 373 193 373 175 371 c 1,60,-1
 169 398 l 1,0,1
EndSplineSet
Substitution2: "'onum' Oldstyle Figures in Latin lookup 9 subtable" three.oldstyle
Substitution2: "'numr' Numerators in Latin lookup 8 subtable" three.numerator
Substitution2: "'dnom' Denominators in Latin lookup 7 subtable" three.denominator
Substitution2: "'sups' Superscript in Latin lookup 6 subtable" threesuperior
Substitution2: "'sinf' Scientific Inferiors in Latin lookup 5 subtable" threeinferior
Substitution2: "'tnum' Tabular Numbers in Latin lookup 3 subtable" three.tnum
EndChar
StartChar: four
Encoding: 52 52 271
Width: 582
Flags: W
LayerCount: 2
Back
Fore
SplineSet
338 213 m 1,0,-1
 18 213 l 1,1,-1
 10 230 l 1,2,-1
 413 780 l 1,3,-1
 439 770 l 1,4,-1
 439 289 l 1,5,-1
 532 289 l 1,6,-1
 532 213 l 1,7,-1
 439 213 l 1,8,-1
 439 42 l 1,9,-1
 528 23 l 1,10,-1
 528 0 l 1,11,-1
 218 0 l 1,12,-1
 218 23 l 1,13,-1
 338 42 l 1,14,-1
 338 213 l 1,0,-1
338 606 m 1,15,-1
 334 606 l 1,16,-1
 107 293 l 1,17,-1
 108 289 l 1,18,-1
 338 289 l 1,19,-1
 338 606 l 1,15,-1
EndSplineSet
Substitution2: "'onum' Oldstyle Figures in Latin lookup 9 subtable" four.oldstyle
Substitution2: "'numr' Numerators in Latin lookup 8 subtable" four.numerator
Substitution2: "'dnom' Denominators in Latin lookup 7 subtable" four.denominator
Substitution2: "'sups' Superscript in Latin lookup 6 subtable" foursuperior
Substitution2: "'sinf' Scientific Inferiors in Latin lookup 5 subtable" fourinferior
Substitution2: "'tnum' Tabular Numbers in Latin lookup 3 subtable" four.tnum
EndChar
StartChar: five
Encoding: 53 53 262
Width: 547
Flags: W
LayerCount: 2
Back
Fore
SplineSet
157 494 m 1,0,1
 180 502 180 502 200 506 c 128,-1,2
 220 510 220 510 244 510 c 0,3,4
 299 510 299 510 345 492 c 128,-1,5
 391 474 391 474 424 442 c 128,-1,6
 457 410 457 410 475.5 365.5 c 128,-1,7
 494 321 494 321 494 267 c 0,8,9
 494 208 494 208 472.5 157.5 c 128,-1,10
 451 107 451 107 413.5 70 c 128,-1,11
 376 33 376 33 325.5 11.5 c 128,-1,12
 275 -10 275 -10 217 -10 c 0,13,14
 178 -10 178 -10 144.5 -0.5 c 128,-1,15
 111 9 111 9 87 26 c 128,-1,16
 63 43 63 43 49 66 c 128,-1,17
 35 89 35 89 35 116 c 0,18,19
 35 144 35 144 49 159 c 128,-1,20
 63 174 63 174 88 174 c 0,21,22
 109 174 109 174 121.5 163.5 c 128,-1,23
 134 153 134 153 141.5 138 c 128,-1,24
 149 123 149 123 155.5 104.5 c 128,-1,25
 162 86 162 86 172 71 c 128,-1,26
 182 56 182 56 198.5 45.5 c 128,-1,27
 215 35 215 35 243 35 c 0,28,29
 276 35 276 35 304.5 50 c 128,-1,30
 333 65 333 65 354.5 90.5 c 128,-1,31
 376 116 376 116 388 151 c 128,-1,32
 400 186 400 186 400 226 c 0,33,34
 400 268 400 268 387 303 c 128,-1,35
 374 338 374 338 350 363.5 c 128,-1,36
 326 389 326 389 292.5 403 c 128,-1,37
 259 417 259 417 219 417 c 0,38,39
 157 417 157 417 111 378 c 1,40,-1
 96 380 l 1,41,-1
 148 757 l 1,42,-1
 429 757 l 1,43,44
 441 770 441 770 455 797 c 1,45,-1
 476 790 l 1,46,-1
 439 667 l 1,47,-1
 182 667 l 1,48,-1
 157 494 l 1,0,1
EndSplineSet
Substitution2: "'onum' Oldstyle Figures in Latin lookup 9 subtable" five.oldstyle
Substitution2: "'numr' Numerators in Latin lookup 8 subtable" five.numerator
Substitution2: "'dnom' Denominators in Latin lookup 7 subtable" five.denominator
Substitution2: "'sups' Superscript in Latin lookup 6 subtable" fivesuperior
Substitution2: "'sinf' Scientific Inferiors in Latin lookup 5 subtable" fiveinferior
Substitution2: "'tnum' Tabular Numbers in Latin lookup 3 subtable" five.tnum
EndChar
StartChar: six
Encoding: 54 54 434
Width: 590
Flags: W
LayerCount: 2
Back
Fore
SplineSet
300 -10 m 0,0,1
 243 -10 243 -10 197.5 9.5 c 128,-1,2
 152 29 152 29 120.5 65 c 128,-1,3
 89 101 89 101 72 153 c 128,-1,4
 55 205 55 205 55 271 c 0,5,6
 55 354 55 354 81.5 432 c 128,-1,7
 108 510 108 510 157.5 576 c 128,-1,8
 207 642 207 642 276.5 693.5 c 128,-1,9
 346 745 346 745 432 777 c 1,10,-1
 440 752 l 1,11,12
 395 728 395 728 352 688.5 c 128,-1,13
 309 649 309 649 274 602.5 c 128,-1,14
 239 556 239 556 215.5 506 c 128,-1,15
 192 456 192 456 186 412 c 1,16,17
 208 435 208 435 249 449.5 c 128,-1,18
 290 464 290 464 336 464 c 0,19,20
 384 464 384 464 424 447.5 c 128,-1,21
 464 431 464 431 492.5 401 c 128,-1,22
 521 371 521 371 537 329 c 128,-1,23
 553 287 553 287 553 236 c 0,24,25
 553 182 553 182 534.5 136.5 c 128,-1,26
 516 91 516 91 482.5 58.5 c 128,-1,27
 449 26 449 26 402.5 8 c 128,-1,28
 356 -10 356 -10 300 -10 c 0,0,1
306 35 m 0,29,30
 365 35 365 35 399.5 84.5 c 128,-1,31
 434 134 434 134 434 219 c 0,32,33
 434 307 434 307 397 357 c 128,-1,34
 360 407 360 407 297 407 c 0,35,36
 262 407 262 407 232 392.5 c 128,-1,37
 202 378 202 378 184 353 c 1,38,39
 179 330 179 330 175.5 299.5 c 128,-1,40
 172 269 172 269 172 241 c 0,41,42
 172 145 172 145 208 90 c 128,-1,43
 244 35 244 35 306 35 c 0,29,30
EndSplineSet
Substitution2: "'onum' Oldstyle Figures in Latin lookup 9 subtable" six.oldstyle
Substitution2: "'numr' Numerators in Latin lookup 8 subtable" six.numerator
Substitution2: "'dnom' Denominators in Latin lookup 7 subtable" six.denominator
Substitution2: "'sups' Superscript in Latin lookup 6 subtable" sixsuperior
Substitution2: "'sinf' Scientific Inferiors in Latin lookup 5 subtable" sixinferior
Substitution2: "'tnum' Tabular Numbers in Latin lookup 3 subtable" six.tnum
EndChar
StartChar: seven
Encoding: 55 55 426
Width: 493
Flags: W
LayerCount: 2
Back
Fore
SplineSet
475 757 m 1,0,-1
 483 745 l 1,1,2
 452 674 452 674 429.5 619.5 c 128,-1,3
 407 565 407 565 388 518 c 128,-1,4
 369 471 369 471 352.5 425.5 c 128,-1,5
 336 380 336 380 317.5 326.5 c 128,-1,6
 299 273 299 273 277 206 c 128,-1,7
 255 139 255 139 226 48 c 0,8,9
 208 -10 208 -10 162 -10 c 0,10,11
 139 -10 139 -10 126.5 3.5 c 128,-1,12
 114 17 114 17 114 41 c 0,13,14
 114 61 114 61 125 88.5 c 128,-1,15
 136 116 136 116 154 154 c 2,16,-1
 401 667 l 1,17,-1
 107 667 l 1,18,19
 89 652 89 652 75 635.5 c 128,-1,20
 61 619 61 619 43 591 c 1,21,-1
 22 602 l 1,22,-1
 97 792 l 1,23,-1
 120 785 l 1,24,25
 120 768 120 768 124 757 c 1,26,-1
 475 757 l 1,0,-1
EndSplineSet
Substitution2: "'onum' Oldstyle Figures in Latin lookup 9 subtable" seven.oldstyle
Substitution2: "'numr' Numerators in Latin lookup 8 subtable" seven.numerator
Substitution2: "'dnom' Denominators in Latin lookup 7 subtable" seven.denominator
Substitution2: "'sups' Superscript in Latin lookup 6 subtable" sevensuperior
Substitution2: "'sinf' Scientific Inferiors in Latin lookup 5 subtable" seveninferior
Substitution2: "'tnum' Tabular Numbers in Latin lookup 3 subtable" seven.tnum
EndChar
StartChar: eight
Encoding: 56 56 227
Width: 595
Flags: W
LayerCount: 2
Back
Fore
SplineSet
375 440 m 1,0,1
 461 388 461 388 500.5 334.5 c 128,-1,2
 540 281 540 281 540 215 c 0,3,4
 540 167 540 167 521 126 c 128,-1,5
 502 85 502 85 468.5 55 c 128,-1,6
 435 25 435 25 389.5 7.5 c 128,-1,7
 344 -10 344 -10 291 -10 c 0,8,9
 241 -10 241 -10 198 5.5 c 128,-1,10
 155 21 155 21 124 48.5 c 128,-1,11
 93 76 93 76 75.5 113.5 c 128,-1,12
 58 151 58 151 58 195 c 0,13,14
 58 258 58 258 96 307.5 c 128,-1,15
 134 357 134 357 213 398 c 1,16,17
 145 443 145 443 113.5 488.5 c 128,-1,18
 82 534 82 534 82 589 c 0,19,20
 82 631 82 631 98.5 666 c 128,-1,21
 115 701 115 701 144 726.5 c 128,-1,22
 173 752 173 752 213 766 c 128,-1,23
 253 780 253 780 300 780 c 0,24,25
 345 780 345 780 382.5 767.5 c 128,-1,26
 420 755 420 755 447 732.5 c 128,-1,27
 474 710 474 710 489.5 679 c 128,-1,28
 505 648 505 648 505 612 c 0,29,30
 505 504 505 504 375 440 c 1,0,1
328 460 m 1,31,32
 417 525 417 525 417 612 c 0,33,34
 417 668 417 668 383.5 701.5 c 128,-1,35
 350 735 350 735 294 735 c 0,36,37
 240 735 240 735 208 704.5 c 128,-1,38
 176 674 176 674 176 623 c 0,39,40
 176 573 176 573 212 534.5 c 128,-1,41
 248 496 248 496 328 460 c 1,31,32
255 376 m 1,42,43
 207 347 207 347 182.5 300.5 c 128,-1,44
 158 254 158 254 158 196 c 0,45,46
 158 121 158 121 197.5 78 c 128,-1,47
 237 35 237 35 306 35 c 0,48,49
 372 35 372 35 410.5 71.5 c 128,-1,50
 449 108 449 108 449 171 c 256,51,52
 449 234 449 234 403.5 282 c 128,-1,53
 358 330 358 330 255 376 c 1,42,43
EndSplineSet
Substitution2: "'onum' Oldstyle Figures in Latin lookup 9 subtable" eight.oldstyle
Substitution2: "'numr' Numerators in Latin lookup 8 subtable" eight.numerator
Substitution2: "'dnom' Denominators in Latin lookup 7 subtable" eight.denominator
Substitution2: "'sups' Superscript in Latin lookup 6 subtable" eightsuperior
Substitution2: "'sinf' Scientific Inferiors in Latin lookup 5 subtable" eightinferior
Substitution2: "'tnum' Tabular Numbers in Latin lookup 3 subtable" eight.tnum
EndChar
StartChar: nine
Encoding: 57 57 339
Width: 591
Flags: W
LayerCount: 2
Back
Fore
SplineSet
290 777 m 0,0,1
 347 777 347 777 392.5 757.5 c 128,-1,2
 438 738 438 738 469.5 702 c 128,-1,3
 501 666 501 666 518 614 c 128,-1,4
 535 562 535 562 535 496 c 0,5,6
 535 413 535 413 508.5 335 c 128,-1,7
 482 257 482 257 432.5 191 c 128,-1,8
 383 125 383 125 313.5 73 c 128,-1,9
 244 21 244 21 158 -10 c 1,10,-1
 150 15 l 1,11,12
 195 39 195 39 238 78.5 c 128,-1,13
 281 118 281 118 316 164.5 c 128,-1,14
 351 211 351 211 374.5 261 c 128,-1,15
 398 311 398 311 404 355 c 1,16,17
 382 332 382 332 341 317.5 c 128,-1,18
 300 303 300 303 254 303 c 0,19,20
 206 303 206 303 166 319.5 c 128,-1,21
 126 336 126 336 97.5 366 c 128,-1,22
 69 396 69 396 53 438 c 128,-1,23
 37 480 37 480 37 531 c 0,24,25
 37 585 37 585 55.5 630.5 c 128,-1,26
 74 676 74 676 107.5 708.5 c 128,-1,27
 141 741 141 741 187.5 759 c 128,-1,28
 234 777 234 777 290 777 c 0,0,1
284 732 m 0,29,30
 225 732 225 732 190.5 682.5 c 128,-1,31
 156 633 156 633 156 548 c 0,32,33
 156 460 156 460 193 410 c 128,-1,34
 230 360 230 360 293 360 c 0,35,36
 328 360 328 360 358 374.5 c 128,-1,37
 388 389 388 389 406 414 c 1,38,39
 411 437 411 437 414.5 467.5 c 128,-1,40
 418 498 418 498 418 526 c 0,41,42
 418 622 418 622 382 677 c 128,-1,43
 346 732 346 732 284 732 c 0,29,30
EndSplineSet
Substitution2: "'onum' Oldstyle Figures in Latin lookup 9 subtable" nine.oldstyle
Substitution2: "'numr' Numerators in Latin lookup 8 subtable" nine.numerator
Substitution2: "'dnom' Denominators in Latin lookup 7 subtable" nine.denominator
Substitution2: "'sups' Superscript in Latin lookup 6 subtable" ninesuperior
Substitution2: "'sinf' Scientific Inferiors in Latin lookup 5 subtable" nineinferior
Substitution2: "'tnum' Tabular Numbers in Latin lookup 3 subtable" nine.tnum
EndChar
StartChar: colon
Encoding: 58 58 192
Width: 284
Flags: W
LayerCount: 2
Back
Fore
SplineSet
73 401 m 0,0,1
 73 431 73 431 91.5 451 c 128,-1,2
 110 471 110 471 141 471 c 0,3,4
 173 471 173 471 192 451 c 128,-1,5
 211 431 211 431 211 401 c 0,6,7
 211 373 211 373 192 353 c 128,-1,8
 173 333 173 333 141 333 c 0,9,10
 110 333 110 333 91.5 353 c 128,-1,11
 73 373 73 373 73 401 c 0,0,1
73 58 m 0,12,13
 73 88 73 88 91.5 108 c 128,-1,14
 110 128 110 128 141 128 c 0,15,16
 173 128 173 128 192 108 c 128,-1,17
 211 88 211 88 211 58 c 0,18,19
 211 30 211 30 192 10 c 128,-1,20
 173 -10 173 -10 141 -10 c 0,21,22
 110 -10 110 -10 91.5 10 c 128,-1,23
 73 30 73 30 73 58 c 0,12,13
EndSplineSet
Substitution2: "'tnum' Tabular Numbers in Latin lookup 3 subtable" colon.tnum
EndChar
StartChar: semicolon
Encoding: 59 59 423
Width: 286
Flags: W
LayerCount: 2
Back
Fore
SplineSet
74 401 m 0,0,1
 74 431 74 431 92.5 451 c 128,-1,2
 111 471 111 471 142 471 c 0,3,4
 174 471 174 471 193 451 c 128,-1,5
 212 431 212 431 212 401 c 0,6,7
 212 373 212 373 193 353 c 128,-1,8
 174 333 174 333 142 333 c 0,9,10
 111 333 111 333 92.5 353 c 128,-1,11
 74 373 74 373 74 401 c 0,0,1
87 -122 m 1,12,13
 115 -101 115 -101 132 -77 c 128,-1,14
 149 -53 149 -53 149 -36 c 0,15,16
 149 -21 149 -21 137 -12.5 c 128,-1,17
 125 -4 125 -4 111 4.5 c 128,-1,18
 97 13 97 13 85 25.5 c 128,-1,19
 73 38 73 38 73 61 c 0,20,21
 73 90 73 90 92.5 109 c 128,-1,22
 112 128 112 128 141 128 c 0,23,24
 173 128 173 128 193 101.5 c 128,-1,25
 213 75 213 75 213 30 c 0,26,27
 213 -21 213 -21 186 -67 c 128,-1,28
 159 -113 159 -113 107 -151 c 1,29,-1
 87 -122 l 1,12,13
EndSplineSet
Substitution2: "'tnum' Tabular Numbers in Latin lookup 3 subtable" semicolon.tnum
EndChar
StartChar: less
Encoding: 60 60 321
Width: 519
Flags: W
LayerCount: 2
Back
Fore
SplineSet
38 310 m 1,0,-1
 38 361 l 1,1,-1
 447 556 l 1,2,-1
 447 495 l 1,3,-1
 110 341 l 1,4,-1
 110 337 l 1,5,-1
 447 181 l 1,6,-1
 447 116 l 1,7,-1
 38 310 l 1,0,-1
EndSplineSet
Substitution2: "'tnum' Tabular Numbers in Latin lookup 3 subtable" less.tnum
EndChar
StartChar: equal
Encoding: 61 61 240
Width: 566
Flags: W
LayerCount: 2
Back
Fore
SplineSet
78 401 m 1,0,-1
 78 445 l 1,1,-1
 488 445 l 1,2,-1
 488 401 l 1,3,-1
 78 401 l 1,0,-1
78 240 m 1,4,-1
 78 284 l 1,5,-1
 488 284 l 1,6,-1
 488 240 l 1,7,-1
 78 240 l 1,4,-1
EndSplineSet
Substitution2: "'tnum' Tabular Numbers in Latin lookup 3 subtable" equal.tnum
EndChar
StartChar: greater
Encoding: 62 62 287
Width: 520
Flags: W
LayerCount: 2
Back
Fore
SplineSet
72 121 m 1,0,-1
 72 181 l 1,1,-1
 409 337 l 1,2,-1
 409 341 l 1,3,-1
 72 495 l 1,4,-1
 72 561 l 1,5,-1
 481 366 l 1,6,-1
 481 315 l 1,7,-1
 72 121 l 1,0,-1
EndSplineSet
Substitution2: "'tnum' Tabular Numbers in Latin lookup 3 subtable" greater.tnum
EndChar
StartChar: question
Encoding: 63 63 394
Width: 411
Flags: W
LayerCount: 2
Back
Fore
SplineSet
98 230 m 1,0,-1
 98 442 l 1,1,-1
 137 442 l 2,2,3
 332 442 332 442 332 538 c 0,4,5
 332 614 332 614 199 666 c 0,6,7
 160 681 160 681 136.5 691 c 128,-1,8
 113 701 113 701 100.5 709.5 c 128,-1,9
 88 718 88 718 83.5 726 c 128,-1,10
 79 734 79 734 79 745 c 0,11,12
 79 780 79 780 132 780 c 0,13,14
 179 780 179 780 221.5 760 c 128,-1,15
 264 740 264 740 296 705.5 c 128,-1,16
 328 671 328 671 347 625.5 c 128,-1,17
 366 580 366 580 366 529 c 0,18,19
 366 446 366 446 314 401 c 128,-1,20
 262 356 262 356 164 353 c 2,21,-1
 134 352 l 1,22,-1
 134 230 l 1,23,-1
 98 230 l 1,0,-1
50 55 m 256,24,25
 50 84 50 84 68 102 c 128,-1,26
 86 120 86 120 115 120 c 256,27,28
 144 120 144 120 162 102 c 128,-1,29
 180 84 180 84 180 55 c 256,30,31
 180 26 180 26 161.5 8 c 128,-1,32
 143 -10 143 -10 114 -10 c 256,33,34
 85 -10 85 -10 67.5 8 c 128,-1,35
 50 26 50 26 50 55 c 256,24,25
EndSplineSet
EndChar
StartChar: at
Encoding: 64 64 163
Width: 875
Flags: W
LayerCount: 2
Back
Fore
SplineSet
418 -143 m 0,0,1
 349 -143 349 -143 283.5 -124 c 128,-1,2
 218 -105 218 -105 168 -63 c 128,-1,3
 118 -21 118 -21 87.5 44.5 c 128,-1,4
 57 110 57 110 57 203 c 0,5,6
 57 301 57 301 91 381.5 c 128,-1,7
 125 462 125 462 183.5 519.5 c 128,-1,8
 242 577 242 577 318.5 608.5 c 128,-1,9
 395 640 395 640 481 640 c 0,10,11
 557 640 557 640 618.5 615.5 c 128,-1,12
 680 591 680 591 722.5 548.5 c 128,-1,13
 765 506 765 506 788 449 c 128,-1,14
 811 392 811 392 811 328 c 0,15,16
 811 269 811 269 793 215.5 c 128,-1,17
 775 162 775 162 743.5 121 c 128,-1,18
 712 80 712 80 670 55.5 c 128,-1,19
 628 31 628 31 580 31 c 0,20,21
 530 31 530 31 503.5 55 c 128,-1,22
 477 79 477 79 477 113 c 0,23,24
 477 122 477 122 477.5 127.5 c 128,-1,25
 478 133 478 133 482 137 c 1,26,-1
 478 138 l 1,27,28
 440 87 440 87 400.5 65.5 c 128,-1,29
 361 44 361 44 324 44 c 0,30,31
 272 44 272 44 247 77.5 c 128,-1,32
 222 111 222 111 222 163 c 0,33,34
 222 214 222 214 244 267 c 128,-1,35
 266 320 266 320 301.5 362.5 c 128,-1,36
 337 405 337 405 381.5 432.5 c 128,-1,37
 426 460 426 460 472 460 c 0,38,39
 502 460 502 460 520.5 449 c 128,-1,40
 539 438 539 438 550 421 c 1,41,-1
 554 421 l 1,42,-1
 565 460 l 1,43,-1
 645 460 l 1,44,-1
 564 170 l 2,45,46
 560 158 560 158 557.5 144.5 c 128,-1,47
 555 131 555 131 555 120 c 0,48,49
 555 97 555 97 566.5 89 c 128,-1,50
 578 81 578 81 596 81 c 0,51,52
 628 81 628 81 658 99.5 c 128,-1,53
 688 118 688 118 711 150.5 c 128,-1,54
 734 183 734 183 747.5 227.5 c 128,-1,55
 761 272 761 272 761 325 c 0,56,57
 761 395 761 395 736.5 446 c 128,-1,58
 712 497 712 497 671.5 530 c 128,-1,59
 631 563 631 563 578.5 579 c 128,-1,60
 526 595 526 595 471 595 c 0,61,62
 387 595 387 595 320.5 562.5 c 128,-1,63
 254 530 254 530 208 475.5 c 128,-1,64
 162 421 162 421 137.5 350 c 128,-1,65
 113 279 113 279 113 202 c 0,66,67
 113 150 113 150 126.5 95.5 c 128,-1,68
 140 41 140 41 177 -3 c 128,-1,69
 214 -47 214 -47 278 -75.5 c 128,-1,70
 342 -104 342 -104 443 -104 c 0,71,72
 506 -104 506 -104 548 -93 c 128,-1,73
 590 -82 590 -82 620 -64 c 1,74,-1
 631 -93 l 1,75,76
 531 -143 531 -143 418 -143 c 0,0,1
351 99 m 0,77,78
 383 99 383 99 415.5 126 c 128,-1,79
 448 153 448 153 474 200 c 0,80,81
 491 230 491 230 506 272 c 128,-1,82
 521 314 521 314 521 358 c 0,83,84
 521 384 521 384 511.5 400.5 c 128,-1,85
 502 417 502 417 477 417 c 0,86,87
 448 417 448 417 418.5 395 c 128,-1,88
 389 373 389 373 364.5 337.5 c 128,-1,89
 340 302 340 302 324.5 256.5 c 128,-1,90
 309 211 309 211 309 165 c 0,91,92
 309 130 309 130 319 114.5 c 128,-1,93
 329 99 329 99 351 99 c 0,77,78
EndSplineSet
EndChar
StartChar: B
Encoding: 66 66 14
Width: 699
Flags: W
LayerCount: 2
Back
Fore
SplineSet
345 770 m 2,0,1
 414 770 414 770 459.5 760 c 128,-1,2
 505 750 505 750 536 729 c 0,3,4
 571 704 571 704 591 666 c 128,-1,5
 611 628 611 628 611 583 c 0,6,7
 611 517 611 517 568.5 473 c 128,-1,8
 526 429 526 429 446 412 c 1,9,-1
 446 408 l 1,10,11
 491 403 491 403 527.5 386 c 128,-1,12
 564 369 564 369 590.5 342 c 128,-1,13
 617 315 617 315 631 280 c 128,-1,14
 645 245 645 245 645 204 c 0,15,16
 645 158 645 158 627.5 118 c 128,-1,17
 610 78 610 78 578 52 c 0,18,19
 543 24 543 24 493.5 12 c 128,-1,20
 444 0 444 0 362 0 c 2,21,-1
 49 0 l 1,22,-1
 49 23 l 1,23,-1
 134 42 l 1,24,-1
 134 728 l 1,25,-1
 49 747 l 1,26,-1
 49 770 l 1,27,-1
 345 770 l 2,0,1
239 429 m 1,28,-1
 301 429 l 2,29,30
 330 429 330 429 349 429.5 c 128,-1,31
 368 430 368 430 385 432 c 0,32,33
 440 438 440 438 469.5 477.5 c 128,-1,34
 499 517 499 517 499 586 c 0,35,36
 499 621 499 621 490.5 645.5 c 128,-1,37
 482 670 482 670 462 690 c 0,38,39
 440 713 440 713 410 721.5 c 128,-1,40
 380 730 380 730 325 730 c 2,41,-1
 239 730 l 1,42,-1
 239 429 l 1,28,-1
239 389 m 1,43,-1
 239 98 l 2,44,45
 239 63 239 63 257.5 50.5 c 128,-1,46
 276 38 276 38 327 38 c 0,47,48
 431 38 431 38 480 80 c 128,-1,49
 529 122 529 122 529 213 c 256,50,51
 529 304 529 304 479.5 346.5 c 128,-1,52
 430 389 430 389 324 389 c 2,53,-1
 239 389 l 1,43,-1
EndSplineSet
EndChar
StartChar: C
Encoding: 67 67 15
Width: 774
Flags: W
LayerCount: 2
Back
Fore
SplineSet
56 380 m 0,0,1
 56 468 56 468 83 541.5 c 128,-1,2
 110 615 110 615 158.5 668 c 128,-1,3
 207 721 207 721 274.5 750.5 c 128,-1,4
 342 780 342 780 422 780 c 0,5,6
 481 780 481 780 536.5 764 c 128,-1,7
 592 748 592 748 637 719 c 1,8,-1
 641 719 l 1,9,-1
 690 770 l 1,10,-1
 708 770 l 1,11,-1
 708 540 l 1,12,-1
 678 540 l 1,13,14
 669 567 669 567 658.5 589 c 128,-1,15
 648 611 648 611 637 630 c 0,16,17
 602 687 602 687 554 711.5 c 128,-1,18
 506 736 506 736 439 736 c 0,19,20
 314 736 314 736 248 645.5 c 128,-1,21
 182 555 182 555 182 387 c 256,22,23
 182 219 182 219 249 127 c 128,-1,24
 316 35 316 35 440 35 c 0,25,26
 500 35 500 35 548 58.5 c 128,-1,27
 596 82 596 82 628 129 c 0,28,29
 666 182 666 182 681 262 c 1,30,-1
 708 262 l 1,31,-1
 708 0 l 1,32,-1
 684 0 l 1,33,-1
 638 66 l 1,34,35
 584 26 584 26 532 8 c 128,-1,36
 480 -10 480 -10 418 -10 c 0,37,38
 337 -10 337 -10 270.5 18.5 c 128,-1,39
 204 47 204 47 156.5 98.5 c 128,-1,40
 109 150 109 150 82.5 221.5 c 128,-1,41
 56 293 56 293 56 380 c 0,0,1
EndSplineSet
EndChar
StartChar: D
Encoding: 68 68 22
Width: 810
Flags: W
LayerCount: 2
Back
Fore
SplineSet
49 0 m 1,0,-1
 49 23 l 1,1,-1
 134 42 l 1,2,-1
 134 728 l 1,3,-1
 49 747 l 1,4,-1
 49 770 l 1,5,-1
 298 770 l 2,6,7
 358 770 358 770 404.5 766 c 128,-1,8
 451 762 451 762 488.5 753.5 c 128,-1,9
 526 745 526 745 556 731 c 128,-1,10
 586 717 586 717 612 697 c 0,11,12
 680 645 680 645 716.5 563.5 c 128,-1,13
 753 482 753 482 753 383 c 0,14,15
 753 281 753 281 714 195.5 c 128,-1,16
 675 110 675 110 605 59 c 0,17,18
 583 43 583 43 560 32 c 128,-1,19
 537 21 537 21 510.5 14 c 128,-1,20
 484 7 484 7 452.5 3.5 c 128,-1,21
 421 0 421 0 384 0 c 2,22,-1
 49 0 l 1,0,-1
343 38 m 0,23,24
 417 38 417 38 463.5 56.5 c 128,-1,25
 510 75 510 75 546 119 c 0,26,27
 586 169 586 169 607 239.5 c 128,-1,28
 628 310 628 310 628 395 c 0,29,30
 628 567 628 567 543 657 c 0,31,32
 505 697 505 697 453.5 713.5 c 128,-1,33
 402 730 402 730 318 730 c 2,34,-1
 239 730 l 1,35,-1
 239 98 l 2,36,37
 239 63 239 63 261.5 50.5 c 128,-1,38
 284 38 284 38 343 38 c 0,23,24
EndSplineSet
EndChar
StartChar: F
Encoding: 70 70 42
Width: 650
Flags: W
LayerCount: 2
Back
Fore
SplineSet
239 730 m 1,0,-1
 239 426 l 1,1,-1
 418 426 l 1,2,3
 432 456 432 456 441 486 c 128,-1,4
 450 516 450 516 455 546 c 1,5,-1
 479 546 l 1,6,-1
 479 266 l 1,7,-1
 455 266 l 1,8,9
 446 328 446 328 418 386 c 1,10,-1
 239 386 l 1,11,-1
 239 42 l 1,12,-1
 353 23 l 1,13,-1
 353 0 l 1,14,-1
 49 0 l 1,15,-1
 49 23 l 1,16,-1
 134 42 l 1,17,-1
 134 728 l 1,18,-1
 49 747 l 1,19,-1
 49 770 l 1,20,-1
 605 770 l 1,21,-1
 622 550 l 1,22,-1
 598 550 l 1,23,24
 586 593 586 593 568.5 640 c 128,-1,25
 551 687 551 687 526 730 c 1,26,-1
 239 730 l 1,0,-1
EndSplineSet
EndChar
StartChar: H
Encoding: 72 72 48
Width: 857
Flags: W
LayerCount: 2
Back
Fore
SplineSet
618 385 m 1,0,-1
 240 385 l 1,1,-1
 240 42 l 1,2,-1
 329 23 l 1,3,-1
 329 0 l 1,4,-1
 45 0 l 1,5,-1
 45 23 l 1,6,-1
 135 42 l 1,7,-1
 135 728 l 1,8,-1
 45 747 l 1,9,-1
 45 770 l 1,10,-1
 329 770 l 1,11,-1
 329 747 l 1,12,-1
 240 728 l 1,13,-1
 240 425 l 1,14,-1
 618 425 l 1,15,-1
 618 728 l 1,16,-1
 528 747 l 1,17,-1
 528 770 l 1,18,-1
 812 770 l 1,19,-1
 812 745 l 1,20,-1
 723 728 l 1,21,-1
 723 42 l 1,22,-1
 812 21 l 1,23,-1
 812 0 l 1,24,-1
 528 0 l 1,25,-1
 528 23 l 1,26,-1
 618 42 l 1,27,-1
 618 385 l 1,0,-1
EndSplineSet
EndChar
StartChar: I
Encoding: 73 73 52
Width: 374
Flags: W
LayerCount: 2
Back
Fore
SplineSet
135 728 m 1,0,-1
 45 747 l 1,1,-1
 45 770 l 1,2,-1
 329 770 l 1,3,-1
 329 747 l 1,4,-1
 240 728 l 1,5,-1
 240 42 l 1,6,-1
 329 23 l 1,7,-1
 329 0 l 1,8,-1
 45 0 l 1,9,-1
 45 23 l 1,10,-1
 135 42 l 1,11,-1
 135 728 l 1,0,-1
EndSplineSet
EndChar
StartChar: J
Encoding: 74 74 64
Width: 362
Flags: W
LayerCount: 2
Back
Fore
SplineSet
233 155 m 2,0,1
 233 81 233 81 232 35 c 128,-1,2
 231 -11 231 -11 227 -41.5 c 128,-1,3
 223 -72 223 -72 216.5 -91.5 c 128,-1,4
 210 -111 210 -111 199 -131 c 0,5,6
 164 -194 164 -194 108.5 -227 c 128,-1,7
 53 -260 53 -260 -9 -260 c 0,8,9
 -65 -260 -65 -260 -97 -237 c 128,-1,10
 -129 -214 -129 -214 -129 -173 c 0,11,12
 -129 -143 -129 -143 -113 -125.5 c 128,-1,13
 -97 -108 -97 -108 -70 -108 c 0,14,15
 -49 -108 -49 -108 -36 -119.5 c 128,-1,16
 -23 -131 -23 -131 -15 -154 c 0,17,18
 -4 -183 -4 -183 11 -195.5 c 128,-1,19
 26 -208 26 -208 46 -208 c 0,20,21
 81 -208 81 -208 104.5 -168.5 c 128,-1,22
 128 -129 128 -129 128 -48 c 2,23,-1
 128 728 l 1,24,-1
 38 747 l 1,25,-1
 38 770 l 1,26,-1
 322 770 l 1,27,-1
 322 747 l 1,28,-1
 233 728 l 1,29,-1
 233 155 l 2,0,1
EndSplineSet
EndChar
StartChar: K
Encoding: 75 75 66
Width: 783
Flags: W
LayerCount: 2
Back
Fore
SplineSet
45 23 m 1,0,-1
 135 42 l 1,1,-1
 135 728 l 1,2,-1
 45 747 l 1,3,-1
 45 770 l 1,4,-1
 329 770 l 1,5,-1
 329 747 l 1,6,-1
 240 728 l 1,7,-1
 240 370 l 1,8,-1
 523 687 l 2,9,10
 539 704 539 704 539 717 c 256,11,12
 539 730 539 730 519.5 737 c 128,-1,13
 500 744 500 744 455 747 c 1,14,-1
 455 770 l 1,15,-1
 719 770 l 1,16,-1
 719 747 l 1,17,18
 684 741 684 741 661.5 736 c 128,-1,19
 639 731 639 731 623.5 724 c 128,-1,20
 608 717 608 717 596.5 708 c 128,-1,21
 585 699 585 699 573 685 c 2,22,-1
 375 459 l 1,23,-1
 696 42 l 1,24,-1
 807 23 l 1,25,-1
 807 0 l 1,26,-1
 590 0 l 1,27,-1
 305 379 l 1,28,-1
 240 305 l 1,29,-1
 240 42 l 1,30,-1
 329 23 l 1,31,-1
 329 0 l 1,32,-1
 45 0 l 1,33,-1
 45 23 l 1,0,-1
EndSplineSet
EndChar
StartChar: L
Encoding: 76 76 68
Width: 656
Flags: W
LayerCount: 2
Back
Fore
SplineSet
239 728 m 1,0,-1
 239 40 l 1,1,-1
 528 40 l 1,2,3
 558 90 558 90 576.5 139.5 c 128,-1,4
 595 189 595 189 612 239 c 1,5,-1
 638 239 l 1,6,-1
 601 0 l 1,7,-1
 49 0 l 1,8,-1
 49 23 l 1,9,-1
 134 42 l 1,10,-1
 134 728 l 1,11,-1
 49 747 l 1,12,-1
 49 770 l 1,13,-1
 334 770 l 1,14,-1
 334 747 l 1,15,-1
 239 728 l 1,0,-1
EndSplineSet
EndChar
StartChar: M
Encoding: 77 77 74
Width: 1012
Flags: W
LayerCount: 2
Back
Fore
SplineSet
135 728 m 1,0,-1
 45 747 l 1,1,-1
 45 770 l 1,2,-1
 255 770 l 1,3,-1
 504 177 l 1,4,-1
 509 177 l 1,5,-1
 758 770 l 1,6,-1
 967 770 l 1,7,-1
 967 747 l 1,8,-1
 878 728 l 1,9,-1
 878 42 l 1,10,-1
 967 23 l 1,11,-1
 967 0 l 1,12,-1
 683 0 l 1,13,-1
 683 23 l 1,14,-1
 773 42 l 1,15,-1
 773 656 l 1,16,-1
 769 656 l 1,17,-1
 485 -10 l 1,18,-1
 458 -10 l 1,19,-1
 179 660 l 1,20,-1
 175 660 l 1,21,-1
 175 42 l 1,22,-1
 264 23 l 1,23,-1
 264 0 l 1,24,-1
 45 0 l 1,25,-1
 45 23 l 1,26,-1
 135 42 l 1,27,-1
 135 728 l 1,0,-1
EndSplineSet
EndChar
StartChar: N
Encoding: 78 78 75
Width: 828
Flags: W
LayerCount: 2
Back
Fore
SplineSet
699 -20 m 1,0,-1
 668 -20 l 1,1,-1
 175 667 l 1,2,-1
 175 42 l 1,3,-1
 264 23 l 1,4,-1
 264 0 l 1,5,-1
 45 0 l 1,6,-1
 45 23 l 1,7,-1
 135 42 l 1,8,-1
 135 728 l 1,9,-1
 45 747 l 1,10,-1
 45 770 l 1,11,-1
 247 770 l 1,12,-1
 659 204 l 1,13,-1
 659 728 l 1,14,-1
 570 747 l 1,15,-1
 570 770 l 1,16,-1
 789 770 l 1,17,-1
 789 747 l 1,18,-1
 699 728 l 1,19,-1
 699 -20 l 1,0,-1
EndSplineSet
EndChar
StartChar: P
Encoding: 80 80 96
Width: 663
Flags: W
LayerCount: 2
Back
Fore
SplineSet
49 770 m 1,0,-1
 360 770 l 2,1,2
 419 770 419 770 468 755 c 128,-1,3
 517 740 517 740 552.5 711 c 128,-1,4
 588 682 588 682 607.5 639 c 128,-1,5
 627 596 627 596 627 541 c 0,6,7
 627 490 627 490 607.5 450.5 c 128,-1,8
 588 411 588 411 551.5 384 c 128,-1,9
 515 357 515 357 462.5 343.5 c 128,-1,10
 410 330 410 330 345 330 c 2,11,-1
 239 330 l 1,12,-1
 239 42 l 1,13,-1
 353 23 l 1,14,-1
 353 0 l 1,15,-1
 49 0 l 1,16,-1
 49 23 l 1,17,-1
 134 42 l 1,18,-1
 134 728 l 1,19,-1
 49 747 l 1,20,-1
 49 770 l 1,0,-1
239 369 m 1,21,-1
 314 369 l 2,22,23
 377 369 377 369 413.5 383 c 128,-1,24
 450 397 450 397 472 423 c 0,25,26
 495 449 495 449 503.5 482.5 c 128,-1,27
 512 516 512 516 512 551 c 0,28,29
 512 616 512 616 488 658.5 c 128,-1,30
 464 701 464 701 420 718 c 0,31,32
 403 725 403 725 382.5 727.5 c 128,-1,33
 362 730 362 730 331 730 c 2,34,-1
 239 730 l 1,35,-1
 239 369 l 1,21,-1
EndSplineSet
EndChar
StartChar: Q
Encoding: 81 81 97
Width: 836
Flags: W
LayerCount: 2
Back
Fore
SplineSet
418 780 m 256,0,1
 496 780 496 780 562 750 c 128,-1,2
 628 720 628 720 677 667 c 128,-1,3
 726 614 726 614 753.5 541.5 c 128,-1,4
 781 469 781 469 781 385 c 0,5,6
 781 310 781 310 758.5 244 c 128,-1,7
 736 178 736 178 695 127 c 128,-1,8
 654 76 654 76 596.5 44.5 c 128,-1,9
 539 13 539 13 469 7 c 1,10,-1
 469 3 l 1,11,12
 494 -3 494 -3 519 -14.5 c 128,-1,13
 544 -26 544 -26 570 -38 c 128,-1,14
 596 -50 596 -50 624 -58.5 c 128,-1,15
 652 -67 652 -67 683 -67 c 0,16,17
 717 -67 717 -67 739 -54 c 128,-1,18
 761 -41 761 -41 781 -14 c 1,19,-1
 808 -24 l 1,20,21
 777 -95 777 -95 729.5 -129.5 c 128,-1,22
 682 -164 682 -164 630 -164 c 0,23,24
 599 -164 599 -164 574.5 -152.5 c 128,-1,25
 550 -141 550 -141 529 -124.5 c 128,-1,26
 508 -108 508 -108 488.5 -88 c 128,-1,27
 469 -68 469 -68 448.5 -51.5 c 128,-1,28
 428 -35 428 -35 404.5 -23.5 c 128,-1,29
 381 -12 381 -12 352 -12 c 0,30,31
 320 -12 320 -12 305 -25 c 128,-1,32
 290 -38 290 -38 290 -57 c 0,33,34
 290 -66 290 -66 292.5 -71.5 c 128,-1,35
 295 -77 295 -77 298.5 -82.5 c 128,-1,36
 302 -88 302 -88 304.5 -94.5 c 128,-1,37
 307 -101 307 -101 307 -110 c 0,38,39
 307 -132 307 -132 292.5 -146 c 128,-1,40
 278 -160 278 -160 256 -160 c 0,41,42
 233 -160 233 -160 219.5 -145 c 128,-1,43
 206 -130 206 -130 206 -105 c 0,44,45
 206 -69 206 -69 235.5 -38 c 128,-1,46
 265 -7 265 -7 316 13 c 1,47,-1
 316 17 l 1,48,49
 257 30 257 30 209 63.5 c 128,-1,50
 161 97 161 97 127 145.5 c 128,-1,51
 93 194 93 194 74 255.5 c 128,-1,52
 55 317 55 317 55 385 c 0,53,54
 55 469 55 469 82.5 541.5 c 128,-1,55
 110 614 110 614 159 667 c 128,-1,56
 208 720 208 720 274 750 c 128,-1,57
 340 780 340 780 418 780 c 256,0,1
181 386 m 256,58,59
 181 304 181 304 197 239 c 128,-1,60
 213 174 213 174 244 128.5 c 128,-1,61
 275 83 275 83 318.5 59 c 128,-1,62
 362 35 362 35 418 35 c 0,63,64
 473 35 473 35 517 59 c 128,-1,65
 561 83 561 83 592 128.5 c 128,-1,66
 623 174 623 174 639 239 c 128,-1,67
 655 304 655 304 655 387 c 0,68,69
 655 552 655 552 593 643.5 c 128,-1,70
 531 735 531 735 419 735 c 0,71,72
 363 735 363 735 319 711.5 c 128,-1,73
 275 688 275 688 244 643 c 128,-1,74
 213 598 213 598 197 533 c 128,-1,75
 181 468 181 468 181 386 c 256,58,59
EndSplineSet
EndChar
StartChar: T
Encoding: 84 84 109
Width: 754
Flags: W
LayerCount: 2
Back
Fore
SplineSet
216 23 m 1,0,-1
 326 42 l 1,1,-1
 326 730 l 1,2,-1
 125 730 l 1,3,4
 93 687 93 687 70.5 640 c 128,-1,5
 48 593 48 593 33 550 c 1,6,-1
 9 550 l 1,7,-1
 46 770 l 1,8,-1
 708 770 l 1,9,-1
 745 550 l 1,10,-1
 721 550 l 1,11,12
 706 593 706 593 683.5 640 c 128,-1,13
 661 687 661 687 629 730 c 1,14,-1
 431 730 l 1,15,-1
 431 42 l 1,16,-1
 540 23 l 1,17,-1
 540 0 l 1,18,-1
 216 0 l 1,19,-1
 216 23 l 1,0,-1
EndSplineSet
EndChar
StartChar: U
Encoding: 85 85 114
Width: 774
Flags: W
LayerCount: 2
Back
Fore
SplineSet
228 227 m 2,0,1
 228 131 228 131 278.5 83 c 128,-1,2
 329 35 329 35 414 35 c 0,3,4
 468 35 468 35 508.5 50.5 c 128,-1,5
 549 66 549 66 572 97 c 0,6,7
 592 124 592 124 601 172 c 128,-1,8
 610 220 610 220 610 300 c 2,9,-1
 610 728 l 1,10,-1
 521 747 l 1,11,-1
 521 770 l 1,12,-1
 740 770 l 1,13,-1
 740 747 l 1,14,-1
 650 728 l 1,15,-1
 650 258 l 2,16,17
 650 195 650 195 641 152 c 128,-1,18
 632 109 632 109 612 80 c 0,19,20
 583 37 583 37 526 13.5 c 128,-1,21
 469 -10 469 -10 393 -10 c 0,22,23
 315 -10 315 -10 255 14 c 128,-1,24
 195 38 195 38 162 82 c 0,25,26
 142 108 142 108 132.5 144 c 128,-1,27
 123 180 123 180 123 242 c 2,28,-1
 123 728 l 1,29,-1
 33 747 l 1,30,-1
 33 770 l 1,31,-1
 317 770 l 1,32,-1
 317 747 l 1,33,-1
 228 728 l 1,34,-1
 228 227 l 2,0,1
EndSplineSet
EndChar
StartChar: V
Encoding: 86 86 126
Width: 721
Flags: W
LayerCount: 2
Back
Fore
SplineSet
355 -10 m 1,0,-1
 94 686 l 2,1,2
 88 703 88 703 81 714 c 128,-1,3
 74 725 74 725 63 732 c 128,-1,4
 52 739 52 739 35 742 c 128,-1,5
 18 745 18 745 -8 747 c 1,6,-1
 -8 770 l 1,7,-1
 317 770 l 1,8,-1
 317 747 l 1,9,10
 283 745 283 745 262.5 743 c 128,-1,11
 242 741 242 741 230.5 738 c 128,-1,12
 219 735 219 735 215.5 729.5 c 128,-1,13
 212 724 212 724 212 716 c 256,14,15
 212 708 212 708 216 696 c 128,-1,16
 220 684 220 684 225 670 c 2,17,-1
 394 183 l 1,18,-1
 399 183 l 1,19,-1
 557 638 l 2,20,21
 562 652 562 652 564.5 663.5 c 128,-1,22
 567 675 567 675 567 685 c 0,23,24
 567 711 567 711 544.5 725 c 128,-1,25
 522 739 522 739 465 747 c 1,26,-1
 465 770 l 1,27,-1
 746 770 l 1,28,-1
 746 747 l 1,29,30
 706 741 706 741 682 733 c 128,-1,31
 658 725 658 725 643 712 c 128,-1,32
 628 699 628 699 619 681 c 128,-1,33
 610 663 610 663 601 636 c 2,34,-1
 372 -10 l 1,35,-1
 355 -10 l 1,0,-1
EndSplineSet
EndChar
StartChar: X
Encoding: 88 88 132
Width: 787
Flags: W
LayerCount: 2
Back
Fore
SplineSet
-10 20 m 1,0,1
 19 24 19 24 41.5 29 c 128,-1,2
 64 34 64 34 82 42 c 128,-1,3
 100 50 100 50 114 62 c 128,-1,4
 128 74 128 74 141 91 c 2,5,-1
 353 377 l 1,6,-1
 139 704 l 2,7,8
 133 714 133 714 125 720.5 c 128,-1,9
 117 727 117 727 104.5 732 c 128,-1,10
 92 737 92 737 73 740.5 c 128,-1,11
 54 744 54 744 24 747 c 1,12,-1
 24 770 l 1,13,-1
 326 770 l 1,14,-1
 326 747 l 1,15,16
 282 745 282 745 269.5 740 c 128,-1,17
 257 735 257 735 257 727 c 0,18,19
 257 720 257 720 259.5 712.5 c 128,-1,20
 262 705 262 705 270 693 c 2,21,-1
 425 456 l 1,22,-1
 586 675 l 2,23,24
 602 697 602 697 602 711 c 256,25,26
 602 725 602 725 584.5 733.5 c 128,-1,27
 567 742 567 742 528 747 c 1,28,-1
 528 770 l 1,29,-1
 776 770 l 1,30,-1
 776 747 l 1,31,32
 749 742 749 742 729.5 737 c 128,-1,33
 710 732 710 732 694.5 724.5 c 128,-1,34
 679 717 679 717 666 706 c 128,-1,35
 653 695 653 695 639 678 c 2,36,-1
 448 421 l 1,37,-1
 681 65 l 2,38,39
 688 54 688 54 697.5 46.5 c 128,-1,40
 707 39 707 39 719.5 34 c 128,-1,41
 732 29 732 29 749 26.5 c 128,-1,42
 766 24 766 24 789 22 c 1,43,-1
 789 0 l 1,44,-1
 489 0 l 1,45,-1
 489 22 l 1,46,47
 536 26 536 26 551.5 30 c 128,-1,48
 567 34 567 34 567 42 c 0,49,50
 567 47 567 47 563.5 54.5 c 128,-1,51
 560 62 560 62 551 76 c 2,52,-1
 378 339 l 1,53,-1
 194 92 l 2,54,55
 177 69 177 69 177 53 c 0,56,57
 177 40 177 40 197 32.5 c 128,-1,58
 217 25 217 25 261 20 c 1,59,-1
 261 0 l 1,60,-1
 -10 0 l 1,61,-1
 -10 20 l 1,0,1
EndSplineSet
EndChar
StartChar: bracketleft
Encoding: 91 91 171
Width: 324
Flags: W
LayerCount: 2
Back
Fore
SplineSet
101 -187 m 1,0,-1
 101 820 l 1,1,-1
 300 820 l 1,2,-1
 300 788 l 1,3,-1
 182 788 l 1,4,-1
 182 -156 l 1,5,-1
 300 -156 l 1,6,-1
 300 -187 l 1,7,-1
 101 -187 l 1,0,-1
EndSplineSet
EndChar
StartChar: backslash
Encoding: 92 92 166
Width: 364
Flags: W
LayerCount: 2
Back
Fore
SplineSet
248 -169 m 1,0,-1
 47 819 l 1,1,-1
 117 819 l 1,2,-1
 317 -169 l 1,3,-1
 248 -169 l 1,0,-1
EndSplineSet
EndChar
StartChar: bracketright
Encoding: 93 93 172
Width: 324
Flags: W
LayerCount: 2
Back
Fore
SplineSet
24 -187 m 1,0,-1
 24 -156 l 1,1,-1
 142 -156 l 1,2,-1
 142 788 l 1,3,-1
 24 788 l 1,4,-1
 24 820 l 1,5,-1
 223 820 l 1,6,-1
 223 -187 l 1,7,-1
 24 -187 l 1,0,-1
EndSplineSet
EndChar
StartChar: asciicircum
Encoding: 94 94 160
Width: 499
Flags: W
LayerCount: 2
Back
Fore
SplineSet
47 332 m 1,0,-1
 232 711 l 1,1,-1
 268 711 l 1,2,-1
 452 332 l 1,3,-1
 410 332 l 1,4,-1
 251 649 l 1,5,-1
 247 649 l 1,6,-1
 90 332 l 1,7,-1
 47 332 l 1,0,-1
EndSplineSet
EndChar
StartChar: underscore
Encoding: 95 95 480
Width: 696
Flags: W
LayerCount: 2
Back
Fore
SplineSet
73 -74 m 1,0,-1
 73 -30 l 1,1,-1
 623 -30 l 1,2,-1
 623 -74 l 1,3,-1
 73 -74 l 1,0,-1
EndSplineSet
Substitution2: "'tnum' Tabular Numbers in Latin lookup 3 subtable" underscore.tnum
EndChar
StartChar: grave
Encoding: 96 96 285
Width: 170
Flags: W
LayerCount: 2
Back
Fore
SplineSet
139 631 m 1,0,-1
 40 755 l 2,1,2
 23 775 23 775 16.5 789 c 128,-1,3
 10 803 10 803 10 816 c 0,4,5
 10 835 10 835 21.5 847 c 128,-1,6
 33 859 33 859 49 859 c 0,7,8
 71 859 71 859 83.5 846.5 c 128,-1,9
 96 834 96 834 104 812 c 2,10,-1
 160 642 l 1,11,-1
 139 631 l 1,0,-1
EndSplineSet
EndChar
StartChar: b
Encoding: 98 98 165
Width: 602
Flags: W
LayerCount: 2
Back
Fore
SplineSet
292 -10 m 0,0,1
 215 -10 215 -10 154 36 c 1,2,-1
 149 36 l 1,3,-1
 103 2 l 1,4,-1
 87 2 l 1,5,-1
 87 741 l 1,6,-1
 14 768 l 1,7,-1
 14 781 l 1,8,-1
 173 830 l 1,9,-1
 183 830 l 1,10,-1
 183 472 l 1,11,12
 246 540 246 540 335 540 c 0,13,14
 384 540 384 540 424.5 521.5 c 128,-1,15
 465 503 465 503 494.5 469.5 c 128,-1,16
 524 436 524 436 540 389.5 c 128,-1,17
 556 343 556 343 556 287 c 0,18,19
 556 224 556 224 536 169.5 c 128,-1,20
 516 115 516 115 480.5 75 c 128,-1,21
 445 35 445 35 396.5 12.5 c 128,-1,22
 348 -10 348 -10 292 -10 c 0,0,1
292 24 m 0,23,24
 328 24 328 24 357 41 c 128,-1,25
 386 58 386 58 406.5 88.5 c 128,-1,26
 427 119 427 119 438 162.5 c 128,-1,27
 449 206 449 206 449 259 c 0,28,29
 449 365 449 365 407.5 425.5 c 128,-1,30
 366 486 366 486 293 486 c 0,31,32
 259 486 259 486 231 472 c 128,-1,33
 203 458 203 458 183 434 c 1,34,-1
 183 150 l 2,35,36
 183 93 183 93 212.5 58.5 c 128,-1,37
 242 24 242 24 292 24 c 0,23,24
EndSplineSet
EndChar
StartChar: c
Encoding: 99 99 177
Width: 535
Flags: W
LayerCount: 2
Back
Fore
SplineSet
290 -10 m 0,0,1
 236 -10 236 -10 191.5 9.5 c 128,-1,2
 147 29 147 29 114.5 64.5 c 128,-1,3
 82 100 82 100 64 149.5 c 128,-1,4
 46 199 46 199 46 258 c 0,5,6
 46 320 46 320 65.5 371.5 c 128,-1,7
 85 423 85 423 120.5 460.5 c 128,-1,8
 156 498 156 498 204.5 519 c 128,-1,9
 253 540 253 540 312 540 c 0,10,11
 350 540 350 540 383 530.5 c 128,-1,12
 416 521 416 521 440 505 c 128,-1,13
 464 489 464 489 478 467.5 c 128,-1,14
 492 446 492 446 492 422 c 0,15,16
 492 396 492 396 480 380.5 c 128,-1,17
 468 365 468 365 446 365 c 0,18,19
 394 365 394 365 387 428 c 0,20,21
 384 453 384 453 378.5 468.5 c 128,-1,22
 373 484 373 484 364.5 493 c 128,-1,23
 356 502 356 502 344 505 c 128,-1,24
 332 508 332 508 315 508 c 0,25,26
 235 508 235 508 191.5 445.5 c 128,-1,27
 148 383 148 383 148 278 c 0,28,29
 148 175 148 175 193 119 c 128,-1,30
 238 63 238 63 320 63 c 0,31,32
 365 63 365 63 404.5 81 c 128,-1,33
 444 99 444 99 471 136 c 2,34,-1
 482 151 l 1,35,-1
 501 141 l 1,36,-1
 496 128 l 2,37,38
 470 62 470 62 416.5 26 c 128,-1,39
 363 -10 363 -10 290 -10 c 0,0,1
EndSplineSet
EndChar
StartChar: d
Encoding: 100 100 199
Width: 607
Flags: W
LayerCount: 2
Back
Fore
SplineSet
254 -10 m 0,0,1
 210 -10 210 -10 172 10 c 128,-1,2
 134 30 134 30 106 65.5 c 128,-1,3
 78 101 78 101 62.5 150 c 128,-1,4
 47 199 47 199 47 256 c 0,5,6
 47 319 47 319 66 371 c 128,-1,7
 85 423 85 423 120 460.5 c 128,-1,8
 155 498 155 498 203 519 c 128,-1,9
 251 540 251 540 310 540 c 0,10,11
 365 540 365 540 418 525 c 1,12,-1
 418 740 l 1,13,-1
 345 768 l 1,14,-1
 345 781 l 1,15,-1
 502 830 l 1,16,-1
 512 830 l 1,17,-1
 512 78 l 1,18,-1
 580 63 l 1,19,-1
 580 52 l 1,20,-1
 432 -10 l 1,21,-1
 425 -10 l 1,22,-1
 425 76 l 1,23,-1
 421 78 l 1,24,25
 389 33 389 33 346.5 11.5 c 128,-1,26
 304 -10 304 -10 254 -10 c 0,0,1
296 55 m 0,27,28
 335 55 335 55 368 71 c 128,-1,29
 401 87 401 87 418 114 c 1,30,-1
 418 400 l 2,31,32
 418 510 418 510 308 510 c 0,33,34
 273 510 273 510 244.5 493 c 128,-1,35
 216 476 216 476 195.5 445 c 128,-1,36
 175 414 175 414 163.5 370 c 128,-1,37
 152 326 152 326 152 272 c 0,38,39
 152 171 152 171 190 113 c 128,-1,40
 228 55 228 55 296 55 c 0,27,28
EndSplineSet
EndChar
StartChar: f
Encoding: 102 102 246
Width: 351
Flags: W
LayerCount: 2
Back
Fore
SplineSet
35 530 m 1,0,-1
 111 530 l 1,1,2
 111 602 111 602 113.5 641.5 c 128,-1,3
 116 681 116 681 126 707 c 0,4,5
 136 735 136 735 156 757.5 c 128,-1,6
 176 780 176 780 202 796 c 128,-1,7
 228 812 228 812 258 821 c 128,-1,8
 288 830 288 830 320 830 c 0,9,10
 347 830 347 830 370.5 823.5 c 128,-1,11
 394 817 394 817 411.5 806 c 128,-1,12
 429 795 429 795 439 779 c 128,-1,13
 449 763 449 763 449 745 c 0,14,15
 449 723 449 723 435.5 709.5 c 128,-1,16
 422 696 422 696 400 696 c 0,17,18
 375 696 375 696 365 712 c 128,-1,19
 355 728 355 728 351 747 c 0,20,21
 346 774 346 774 335.5 786.5 c 128,-1,22
 325 799 325 799 301 799 c 0,23,24
 278 799 278 799 258.5 787.5 c 128,-1,25
 239 776 239 776 227 750 c 0,26,27
 216 727 216 727 211 688.5 c 128,-1,28
 206 650 206 650 206 585 c 2,29,-1
 206 530 l 1,30,-1
 335 530 l 1,31,-1
 323 498 l 1,32,-1
 206 498 l 1,33,-1
 206 34 l 1,34,-1
 312 19 l 1,35,-1
 312 0 l 1,36,-1
 36 0 l 1,37,-1
 36 19 l 1,38,-1
 111 34 l 1,39,-1
 111 498 l 1,40,-1
 23 498 l 1,41,-1
 35 530 l 1,0,-1
EndSplineSet
EndChar
StartChar: i
Encoding: 105 105 300
Width: 300
Flags: W
LayerCount: 2
Back
Fore
SplineSet
90 715 m 0,0,1
 90 743 90 743 107.5 761.5 c 128,-1,2
 125 780 125 780 154 780 c 0,3,4
 184 780 184 780 201.5 761.5 c 128,-1,5
 219 743 219 743 219 715 c 0,6,7
 219 689 219 689 201.5 670 c 128,-1,8
 184 651 184 651 154 651 c 0,9,10
 125 651 125 651 107.5 670 c 128,-1,11
 90 689 90 689 90 715 c 0,0,1
277 20 m 1,12,-1
 277 0 l 1,13,-1
 31 0 l 1,14,-1
 31 20 l 1,15,-1
 107 35 l 1,16,-1
 107 451 l 1,17,-1
 33 478 l 1,18,-1
 33 492 l 1,19,-1
 193 540 l 1,20,-1
 202 540 l 1,21,-1
 202 35 l 1,22,-1
 277 20 l 1,12,-1
EndSplineSet
EndChar
StartChar: j
Encoding: 106 106 311
Width: 280
Flags: W
LayerCount: 2
Back
Fore
SplineSet
99 451 m 1,0,-1
 25 478 l 1,1,-1
 25 492 l 1,2,-1
 185 540 l 1,3,-1
 194 540 l 1,4,-1
 194 155 l 2,5,6
 194 81 194 81 193 35 c 128,-1,7
 192 -11 192 -11 188.5 -41.5 c 128,-1,8
 185 -72 185 -72 178.5 -91.5 c 128,-1,9
 172 -111 172 -111 161 -131 c 0,10,11
 126 -194 126 -194 76.5 -227 c 128,-1,12
 27 -260 27 -260 -33 -260 c 0,13,14
 -84 -260 -84 -260 -113.5 -238 c 128,-1,15
 -143 -216 -143 -216 -143 -178 c 0,16,17
 -143 -150 -143 -150 -128.5 -134 c 128,-1,18
 -114 -118 -114 -118 -89 -118 c 0,19,20
 -68 -118 -68 -118 -55 -129.5 c 128,-1,21
 -42 -141 -42 -141 -34 -164 c 0,22,23
 -23 -193 -23 -193 -13 -203 c 128,-1,24
 -3 -213 -3 -213 16 -213 c 0,25,26
 99 -213 99 -213 99 -48 c 2,27,-1
 99 451 l 1,0,-1
82 716 m 0,28,29
 82 744 82 744 99.5 762 c 128,-1,30
 117 780 117 780 146 780 c 256,31,32
 175 780 175 780 193 762 c 128,-1,33
 211 744 211 744 211 716 c 0,34,35
 211 687 211 687 193 669 c 128,-1,36
 175 651 175 651 146 651 c 256,37,38
 117 651 117 651 99.5 669 c 128,-1,39
 82 687 82 687 82 716 c 0,28,29
EndSplineSet
EndChar
StartChar: k
Encoding: 107 107 313
Width: 591
Flags: W
LayerCount: 2
Back
Fore
SplineSet
305 530 m 1,0,-1
 529 530 l 1,1,-1
 529 510 l 1,2,3
 499 504 499 504 479.5 499.5 c 128,-1,4
 460 495 460 495 447 489 c 128,-1,5
 434 483 434 483 424 474.5 c 128,-1,6
 414 466 414 466 403 453 c 2,7,-1
 290 321 l 1,8,-1
 528 35 l 1,9,-1
 612 20 l 1,10,-1
 612 0 l 1,11,-1
 437 0 l 1,12,-1
 230 252 l 1,13,-1
 191 206 l 1,14,-1
 191 35 l 1,15,-1
 266 20 l 1,16,-1
 266 0 l 1,17,-1
 23 0 l 1,18,-1
 23 20 l 1,19,-1
 99 35 l 1,20,-1
 99 741 l 1,21,-1
 26 768 l 1,22,-1
 26 781 l 1,23,-1
 181 830 l 1,24,-1
 191 830 l 1,25,-1
 191 260 l 1,26,-1
 358 450 l 2,27,28
 379 474 379 474 379 486 c 0,29,30
 379 495 379 495 364 500 c 128,-1,31
 349 505 349 505 305 510 c 1,32,-1
 305 530 l 1,0,-1
EndSplineSet
EndChar
StartChar: l
Encoding: 108 108 316
Width: 289
Flags: W
LayerCount: 2
Back
Fore
SplineSet
260 19 m 1,0,-1
 260 0 l 1,1,-1
 29 0 l 1,2,-1
 29 19 l 1,3,-1
 99 34 l 1,4,-1
 99 742 l 1,5,-1
 29 768 l 1,6,-1
 29 781 l 1,7,-1
 182 830 l 1,8,-1
 191 830 l 1,9,-1
 191 34 l 1,10,-1
 260 19 l 1,0,-1
EndSplineSet
EndChar
StartChar: m
Encoding: 109 109 325
Width: 907
Flags: W
LayerCount: 2
Back
Fore
SplineSet
277 20 m 1,0,-1
 277 0 l 1,1,-1
 31 0 l 1,2,-1
 31 20 l 1,3,-1
 107 35 l 1,4,-1
 107 450 l 1,5,-1
 33 478 l 1,6,-1
 33 491 l 1,7,-1
 188 540 l 1,8,-1
 198 540 l 1,9,-1
 198 455 l 1,10,11
 241 496 241 496 289.5 518 c 128,-1,12
 338 540 338 540 386 540 c 0,13,14
 405 540 405 540 424 534.5 c 128,-1,15
 443 529 443 529 458.5 518 c 128,-1,16
 474 507 474 507 485 491 c 128,-1,17
 496 475 496 475 500 454 c 1,18,19
 543 496 543 496 592 518 c 128,-1,20
 641 540 641 540 689 540 c 0,21,22
 725 540 725 540 753 524 c 128,-1,23
 781 508 781 508 795 480 c 0,24,25
 799 472 799 472 801.5 462.5 c 128,-1,26
 804 453 804 453 805.5 437 c 128,-1,27
 807 421 807 421 807.5 397.5 c 128,-1,28
 808 374 808 374 808 338 c 2,29,-1
 808 34 l 1,30,-1
 883 20 l 1,31,-1
 883 0 l 1,32,-1
 638 0 l 1,33,-1
 638 20 l 1,34,-1
 713 34 l 1,35,-1
 713 328 l 2,36,37
 713 371 713 371 709.5 396.5 c 128,-1,38
 706 422 706 422 701 439 c 0,39,40
 686 485 686 485 633 485 c 0,41,42
 596 485 596 485 562.5 468.5 c 128,-1,43
 529 452 529 452 503 421 c 1,44,45
 504 406 504 406 504.5 386 c 128,-1,46
 505 366 505 366 505 338 c 2,47,-1
 505 34 l 1,48,-1
 580 20 l 1,49,-1
 580 0 l 1,50,-1
 335 0 l 1,51,-1
 335 20 l 1,52,-1
 410 34 l 1,53,-1
 410 328 l 2,54,55
 410 371 410 371 406.5 396.5 c 128,-1,56
 403 422 403 422 398 439 c 0,57,58
 382 485 382 485 330 485 c 0,59,60
 294 485 294 485 261 469 c 128,-1,61
 228 453 228 453 202 423 c 1,62,-1
 202 35 l 1,63,-1
 277 20 l 1,0,-1
EndSplineSet
EndChar
StartChar: p
Encoding: 112 112 377
Width: 615
Flags: W
LayerCount: 2
Back
Fore
SplineSet
193 -216 m 1,0,-1
 292 -231 l 1,1,-1
 292 -250 l 1,2,-1
 23 -250 l 1,3,-1
 23 -231 l 1,4,-1
 98 -216 l 1,5,-1
 98 451 l 1,6,-1
 25 478 l 1,7,-1
 25 492 l 1,8,-1
 179 540 l 1,9,-1
 190 540 l 1,10,-1
 190 452 l 1,11,-1
 194 452 l 1,12,13
 224 498 224 498 268 519 c 128,-1,14
 312 540 312 540 357 540 c 0,15,16
 404 540 404 540 443 520 c 128,-1,17
 482 500 482 500 509.5 464.5 c 128,-1,18
 537 429 537 429 552.5 380 c 128,-1,19
 568 331 568 331 568 273 c 0,20,21
 568 210 568 210 548 158 c 128,-1,22
 528 106 528 106 491 68.5 c 128,-1,23
 454 31 454 31 403 10.5 c 128,-1,24
 352 -10 352 -10 290 -10 c 0,25,26
 266 -10 266 -10 242 -6.5 c 128,-1,27
 218 -3 218 -3 193 5 c 1,28,-1
 193 -216 l 1,0,-1
294 20 m 0,29,30
 332 20 332 20 363.5 37.5 c 128,-1,31
 395 55 395 55 417.5 86 c 128,-1,32
 440 117 440 117 452 160.5 c 128,-1,33
 464 204 464 204 464 257 c 0,34,35
 464 359 464 359 422 417 c 128,-1,36
 380 475 380 475 307 475 c 0,37,38
 276 475 276 475 243.5 458.5 c 128,-1,39
 211 442 211 442 198 417 c 1,40,-1
 198 118 l 2,41,42
 198 74 198 74 225.5 47 c 128,-1,43
 253 20 253 20 294 20 c 0,29,30
EndSplineSet
EndChar
StartChar: q
Encoding: 113 113 393
Width: 602
Flags: W
LayerCount: 2
Back
Fore
SplineSet
420 -216 m 1,0,-1
 420 58 l 1,1,2
 357 -10 357 -10 268 -10 c 0,3,4
 219 -10 219 -10 178.5 8.5 c 128,-1,5
 138 27 138 27 108.5 60.5 c 128,-1,6
 79 94 79 94 63 140.5 c 128,-1,7
 47 187 47 187 47 243 c 0,8,9
 47 312 47 312 66 367 c 128,-1,10
 85 422 85 422 119.5 460.5 c 128,-1,11
 154 499 154 499 203 519.5 c 128,-1,12
 252 540 252 540 311 540 c 0,13,14
 388 540 388 540 449 494 c 1,15,-1
 454 494 l 1,16,-1
 499 528 l 1,17,-1
 515 528 l 1,18,-1
 515 -216 l 1,19,-1
 590 -231 l 1,20,-1
 590 -250 l 1,21,-1
 321 -250 l 1,22,-1
 321 -231 l 1,23,-1
 420 -216 l 1,0,-1
311 508 m 0,24,25
 241 508 241 508 197.5 449 c 128,-1,26
 154 390 154 390 154 271 c 0,27,28
 154 165 154 165 195.5 104.5 c 128,-1,29
 237 44 237 44 310 44 c 0,30,31
 344 44 344 44 372 58 c 128,-1,32
 400 72 400 72 420 96 c 1,33,-1
 420 382 l 2,34,35
 420 439 420 439 390.5 473.5 c 128,-1,36
 361 508 361 508 311 508 c 0,24,25
EndSplineSet
EndChar
StartChar: t
Encoding: 116 116 446
Width: 350
Flags: W
LayerCount: 2
Back
Fore
SplineSet
207 -10 m 0,0,1
 159 -10 159 -10 129 18 c 0,2,3
 111 35 111 35 103.5 60.5 c 128,-1,4
 96 86 96 86 96 132 c 2,5,-1
 96 495 l 1,6,-1
 31 495 l 1,7,-1
 29 511 l 1,8,-1
 173 661 l 1,9,-1
 191 659 l 1,10,-1
 191 530 l 1,11,-1
 334 530 l 1,12,-1
 326 495 l 1,13,-1
 191 495 l 1,14,-1
 191 141 l 2,15,16
 191 104 191 104 193 89 c 128,-1,17
 195 74 195 74 200 65 c 0,18,19
 216 37 216 37 250 37 c 0,20,21
 270 37 270 37 290.5 48 c 128,-1,22
 311 59 311 59 326 78 c 1,23,-1
 343 65 l 1,24,25
 320 30 320 30 284 10 c 128,-1,26
 248 -10 248 -10 207 -10 c 0,0,1
EndSplineSet
EndChar
StartChar: v
Encoding: 118 118 510
Width: 566
Flags: W
LayerCount: 2
Back
Fore
SplineSet
263 -10 m 1,0,-1
 84 467 l 2,1,2
 79 479 79 479 74.5 486.5 c 128,-1,3
 70 494 70 494 62.5 499 c 128,-1,4
 55 504 55 504 43 506 c 128,-1,5
 31 508 31 508 12 510 c 1,6,-1
 12 530 l 1,7,-1
 260 530 l 1,8,-1
 260 510 l 1,9,10
 217 508 217 508 204 502.5 c 128,-1,11
 191 497 191 497 191 486 c 0,12,13
 191 474 191 474 197 456 c 2,14,-1
 312 124 l 1,15,-1
 316 124 l 1,16,-1
 424 434 l 2,17,18
 433 461 433 461 433 474 c 0,19,20
 433 489 433 489 420 496 c 128,-1,21
 407 503 407 503 362 510 c 1,22,-1
 362 530 l 1,23,-1
 565 530 l 1,24,-1
 565 510 l 1,25,26
 537 505 537 505 520 499.5 c 128,-1,27
 503 494 503 494 492.5 485.5 c 128,-1,28
 482 477 482 477 475.5 464 c 128,-1,29
 469 451 469 451 463 433 c 2,30,-1
 307 -10 l 1,31,-1
 263 -10 l 1,0,-1
EndSplineSet
EndChar
StartChar: w
Encoding: 119 119 511
Width: 849
Flags: W
LayerCount: 2
Back
Fore
SplineSet
549 -10 m 1,0,-1
 428 364 l 1,1,-1
 296 -10 l 1,2,-1
 252 -10 l 1,3,-1
 88 467 l 2,4,5
 80 491 80 491 66.5 499 c 128,-1,6
 53 507 53 507 16 510 c 1,7,-1
 16 530 l 1,8,-1
 264 530 l 1,9,-1
 264 510 l 1,10,11
 241 508 241 508 227 506.5 c 128,-1,12
 213 505 213 505 205 503 c 128,-1,13
 197 501 197 501 194.5 497.5 c 128,-1,14
 192 494 192 494 192 488 c 0,15,16
 192 483 192 483 195 474.5 c 128,-1,17
 198 466 198 466 201 456 c 2,18,-1
 301 124 l 1,19,-1
 305 124 l 1,20,-1
 409 423 l 1,21,-1
 395 467 l 2,22,23
 387 490 387 490 373.5 498.5 c 128,-1,24
 360 507 360 507 333 510 c 1,25,-1
 333 530 l 1,26,-1
 561 530 l 1,27,-1
 561 510 l 1,28,29
 538 508 538 508 524 506.5 c 128,-1,30
 510 505 510 505 502 503 c 128,-1,31
 494 501 494 501 491.5 497.5 c 128,-1,32
 489 494 489 494 489 488 c 0,33,34
 489 483 489 483 492 474.5 c 128,-1,35
 495 466 495 466 498 456 c 2,36,-1
 598 124 l 1,37,-1
 602 124 l 1,38,-1
 710 434 l 2,39,40
 719 458 719 458 719 473 c 0,41,42
 719 489 719 489 704 496.5 c 128,-1,43
 689 504 689 504 648 510 c 1,44,-1
 648 530 l 1,45,-1
 851 530 l 1,46,-1
 851 510 l 1,47,48
 823 505 823 505 806 499.5 c 128,-1,49
 789 494 789 494 778.5 485.5 c 128,-1,50
 768 477 768 477 761.5 464 c 128,-1,51
 755 451 755 451 749 433 c 2,52,-1
 593 -10 l 1,53,-1
 549 -10 l 1,0,-1
EndSplineSet
EndChar
StartChar: x
Encoding: 120 120 516
Width: 579
Flags: W
LayerCount: 2
Back
Fore
SplineSet
316 334 m 1,0,-1
 395 438 l 2,1,2
 407 454 407 454 410 461 c 128,-1,3
 413 468 413 468 413 476 c 0,4,5
 413 487 413 487 399.5 496 c 128,-1,6
 386 505 386 505 355 510 c 1,7,-1
 355 530 l 1,8,-1
 561 530 l 1,9,-1
 561 510 l 1,10,11
 537 505 537 505 520.5 500 c 128,-1,12
 504 495 504 495 491 487.5 c 128,-1,13
 478 480 478 480 467 469 c 128,-1,14
 456 458 456 458 443 442 c 2,15,-1
 336 303 l 1,16,-1
 492 63 l 2,17,18
 506 42 506 42 523 33 c 128,-1,19
 540 24 540 24 578 20 c 1,20,-1
 578 0 l 1,21,-1
 329 0 l 1,22,-1
 329 20 l 1,23,24
 365 24 365 24 376.5 27.5 c 128,-1,25
 388 31 388 31 388 41 c 0,26,27
 388 46 388 46 385 52.5 c 128,-1,28
 382 59 382 59 372 74 c 2,29,-1
 274 224 l 1,30,-1
 174 92 l 2,31,32
 163 78 163 78 159.5 70 c 128,-1,33
 156 62 156 62 156 56 c 0,34,35
 156 42 156 42 171 33.5 c 128,-1,36
 186 25 186 25 221 20 c 1,37,-1
 221 0 l 1,38,-1
 0 0 l 1,39,-1
 0 20 l 1,40,41
 50 27 50 27 78.5 42.5 c 128,-1,42
 107 58 107 58 131 91 c 2,43,-1
 253 257 l 1,44,-1
 117 467 l 2,45,46
 110 477 110 477 102.5 484 c 128,-1,47
 95 491 95 491 84.5 496 c 128,-1,48
 74 501 74 501 59.5 504 c 128,-1,49
 45 507 45 507 24 510 c 1,50,-1
 24 530 l 1,51,-1
 275 530 l 1,52,-1
 275 510 l 1,53,54
 245 508 245 508 233.5 502.5 c 128,-1,55
 222 497 222 497 222 489 c 0,56,57
 222 478 222 478 237 456 c 2,58,-1
 316 334 l 1,0,-1
EndSplineSet
EndChar
StartChar: z
Encoding: 122 122 525
Width: 513
Flags: W
LayerCount: 2
Back
Fore
SplineSet
471 530 m 1,0,-1
 471 503 l 1,1,-1
 155 32 l 1,2,-1
 387 32 l 1,3,-1
 436 194 l 1,4,-1
 457 191 l 1,5,-1
 450 0 l 1,6,-1
 39 0 l 1,7,-1
 39 28 l 1,8,-1
 351 498 l 1,9,-1
 130 498 l 1,10,-1
 80 331 l 1,11,-1
 59 332 l 1,12,-1
 71 530 l 1,13,-1
 471 530 l 1,0,-1
EndSplineSet
EndChar
StartChar: braceleft
Encoding: 123 123 169
Width: 327
Flags: W
LayerCount: 2
Back
Fore
SplineSet
298 -180 m 1,0,1
 280 -187 280 -187 263.5 -190.5 c 128,-1,2
 247 -194 247 -194 227 -194 c 0,3,4
 160 -194 160 -194 129.5 -165 c 128,-1,5
 99 -136 99 -136 99 -70 c 0,6,7
 99 -43 99 -43 103 -11 c 128,-1,8
 107 21 107 21 112 55.5 c 128,-1,9
 117 90 117 90 121 125.5 c 128,-1,10
 125 161 125 161 125 194 c 0,11,12
 125 263 125 263 104 291.5 c 128,-1,13
 83 320 83 320 29 320 c 1,14,-1
 29 343 l 1,15,16
 81 343 81 343 103 371.5 c 128,-1,17
 125 400 125 400 125 463 c 0,18,19
 125 491 125 491 121 523.5 c 128,-1,20
 117 556 117 556 112 588 c 128,-1,21
 107 620 107 620 103 649 c 128,-1,22
 99 678 99 678 99 701 c 0,23,24
 99 763 99 763 134 795.5 c 128,-1,25
 169 828 169 828 234 828 c 0,26,27
 252 828 252 828 267.5 824.5 c 128,-1,28
 283 821 283 821 298 815 c 1,29,-1
 292 789 l 1,30,31
 275 792 275 792 267 793 c 128,-1,32
 259 794 259 794 251 794 c 0,33,34
 219 794 219 794 202 768.5 c 128,-1,35
 185 743 185 743 185 699 c 0,36,37
 185 678 185 678 189 649.5 c 128,-1,38
 193 621 193 621 197.5 589 c 128,-1,39
 202 557 202 557 206 524.5 c 128,-1,40
 210 492 210 492 210 464 c 0,41,42
 210 360 210 360 138 332 c 1,43,-1
 138 328 l 1,44,45
 176 313 176 313 193 284.5 c 128,-1,46
 210 256 210 256 210 202 c 0,47,48
 210 173 210 173 206 136 c 128,-1,49
 202 99 202 99 197.5 62 c 128,-1,50
 193 25 193 25 189 -9 c 128,-1,51
 185 -43 185 -43 185 -65 c 0,52,53
 185 -114 185 -114 200.5 -135.5 c 128,-1,54
 216 -157 216 -157 251 -157 c 0,55,56
 272 -157 272 -157 292 -151 c 1,57,-1
 298 -180 l 1,0,1
EndSplineSet
EndChar
StartChar: braceright
Encoding: 125 125 170
Width: 327
Flags: W
LayerCount: 2
Back
Fore
SplineSet
35 -151 m 1,0,1
 54 -157 54 -157 76 -157 c 0,2,3
 111 -157 111 -157 126.5 -135.5 c 128,-1,4
 142 -114 142 -114 142 -65 c 0,5,6
 142 -43 142 -43 138 -9 c 128,-1,7
 134 25 134 25 129.5 62 c 128,-1,8
 125 99 125 99 121 136 c 128,-1,9
 117 173 117 173 117 202 c 0,10,11
 117 256 117 256 134 284.5 c 128,-1,12
 151 313 151 313 189 328 c 1,13,-1
 189 332 l 1,14,15
 117 360 117 360 117 464 c 0,16,17
 117 492 117 492 121 524.5 c 128,-1,18
 125 557 125 557 129.5 589 c 128,-1,19
 134 621 134 621 138 649.5 c 128,-1,20
 142 678 142 678 142 699 c 0,21,22
 142 743 142 743 125 768.5 c 128,-1,23
 108 794 108 794 76 794 c 0,24,25
 68 794 68 794 60 793 c 128,-1,26
 52 792 52 792 35 789 c 1,27,-1
 29 815 l 1,28,29
 44 821 44 821 59.5 824.5 c 128,-1,30
 75 828 75 828 93 828 c 0,31,32
 158 828 158 828 193 795.5 c 128,-1,33
 228 763 228 763 228 701 c 0,34,35
 228 678 228 678 224 649 c 128,-1,36
 220 620 220 620 215 588 c 128,-1,37
 210 556 210 556 206 523.5 c 128,-1,38
 202 491 202 491 202 463 c 0,39,40
 202 400 202 400 224 371.5 c 128,-1,41
 246 343 246 343 298 343 c 1,42,-1
 298 320 l 1,43,44
 244 320 244 320 223 291.5 c 128,-1,45
 202 263 202 263 202 194 c 0,46,47
 202 161 202 161 206 125.5 c 128,-1,48
 210 90 210 90 215 55.5 c 128,-1,49
 220 21 220 21 224 -11 c 128,-1,50
 228 -43 228 -43 228 -70 c 0,51,52
 228 -136 228 -136 197.5 -165 c 128,-1,53
 167 -194 167 -194 100 -194 c 0,54,55
 80 -194 80 -194 63.5 -190.5 c 128,-1,56
 47 -187 47 -187 29 -180 c 1,57,-1
 35 -151 l 1,0,1
EndSplineSet
EndChar
StartChar: asciitilde
Encoding: 126 126 161
Width: 588
Flags: W
LayerCount: 2
Back
Fore
SplineSet
80 223 m 1,0,1
 80 242 80 242 85.5 266 c 128,-1,2
 91 290 91 290 104.5 310.5 c 128,-1,3
 118 331 118 331 140.5 345 c 128,-1,4
 163 359 163 359 198 359 c 0,5,6
 225 359 225 359 251.5 351 c 128,-1,7
 278 343 278 343 304.5 333 c 128,-1,8
 331 323 331 323 357.5 315 c 128,-1,9
 384 307 384 307 412 307 c 0,10,11
 446 307 446 307 459.5 321.5 c 128,-1,12
 473 336 473 336 480 359 c 1,13,-1
 510 359 l 1,14,15
 510 339 510 339 504.5 315.5 c 128,-1,16
 499 292 499 292 485.5 271.5 c 128,-1,17
 472 251 472 251 449 237 c 128,-1,18
 426 223 426 223 392 223 c 0,19,20
 365 223 365 223 338.5 231.5 c 128,-1,21
 312 240 312 240 285.5 249.5 c 128,-1,22
 259 259 259 259 232 267.5 c 128,-1,23
 205 276 205 276 178 276 c 0,24,25
 144 276 144 276 130.5 261 c 128,-1,26
 117 246 117 246 110 223 c 1,27,-1
 80 223 l 1,0,1
EndSplineSet
EndChar
StartChar: exclamdown
Encoding: 161 161 245
Width: 273
Flags: W
LayerCount: 2
Back
Fore
SplineSet
152 300 m 1,0,1
 157 220 157 220 163.5 147.5 c 128,-1,2
 170 75 170 75 177 14 c 0,3,4
 185 -60 185 -60 191 -111 c 128,-1,5
 197 -162 197 -162 197 -181 c 0,6,7
 197 -210 197 -210 181 -230 c 128,-1,8
 165 -250 165 -250 136 -250 c 0,9,10
 104 -250 104 -250 90 -230.5 c 128,-1,11
 76 -211 76 -211 76 -184 c 0,12,13
 76 -164 76 -164 82 -113 c 128,-1,14
 88 -62 88 -62 96 10 c 0,15,16
 103 72 103 72 109.5 145.5 c 128,-1,17
 116 219 116 219 121 300 c 1,18,-1
 152 300 l 1,0,1
201 476 m 0,19,20
 201 447 201 447 183.5 428.5 c 128,-1,21
 166 410 166 410 137 410 c 0,22,23
 106 410 106 410 88.5 428.5 c 128,-1,24
 71 447 71 447 71 476 c 0,25,26
 71 502 71 502 88.5 521 c 128,-1,27
 106 540 106 540 137 540 c 0,28,29
 166 540 166 540 183.5 521 c 128,-1,30
 201 502 201 502 201 476 c 0,19,20
EndSplineSet
EndChar
StartChar: cent
Encoding: 162 162 188
Width: 554
Flags: W
LayerCount: 2
Back
Fore
SplineSet
324 540 m 1,0,1
 363 539 363 539 397 529.5 c 128,-1,2
 431 520 431 520 455.5 504 c 128,-1,3
 480 488 480 488 494 467 c 128,-1,4
 508 446 508 446 508 422 c 0,5,6
 508 396 508 396 496 380.5 c 128,-1,7
 484 365 484 365 462 365 c 0,8,9
 436 365 436 365 422 380.5 c 128,-1,10
 408 396 408 396 403 428 c 0,11,12
 397 466 397 466 377.5 484.5 c 128,-1,13
 358 503 358 503 324 507 c 1,14,-1
 324 63 l 1,15,16
 371 63 371 63 410.5 81 c 128,-1,17
 450 99 450 99 477 136 c 2,18,-1
 488 151 l 1,19,-1
 507 141 l 1,20,-1
 502 128 l 2,21,22
 479 68 479 68 433 33 c 128,-1,23
 387 -2 387 -2 324 -8 c 1,24,-1
 324 -130 l 1,25,-1
 282 -130 l 1,26,-1
 282 -9 l 1,27,28
 231 -6 231 -6 188.5 14.5 c 128,-1,29
 146 35 146 35 116 70 c 128,-1,30
 86 105 86 105 69 153 c 128,-1,31
 52 201 52 201 52 258 c 256,32,33
 52 315 52 315 68.5 363.5 c 128,-1,34
 85 412 85 412 115.5 448.5 c 128,-1,35
 146 485 146 485 188.5 508.5 c 128,-1,36
 231 532 231 532 282 538 c 1,37,-1
 282 670 l 1,38,-1
 324 670 l 1,39,-1
 324 540 l 1,0,1
154 278 m 0,40,41
 154 190 154 190 187 136 c 128,-1,42
 220 82 220 82 282 68 c 1,43,-1
 282 506 l 1,44,45
 256 501 256 501 233 482.5 c 128,-1,46
 210 464 210 464 192.5 434.5 c 128,-1,47
 175 405 175 405 164.5 365.5 c 128,-1,48
 154 326 154 326 154 278 c 0,40,41
EndSplineSet
Substitution2: "'tnum' Tabular Numbers in Latin lookup 3 subtable" cent.tnum
EndChar
StartChar: sterling
Encoding: 163 163 444
Width: 678
Flags: W
LayerCount: 2
Back
Fore
SplineSet
130 322 m 1,0,-1
 130 366 l 1,1,-1
 249 366 l 1,2,-1
 273 483 l 2,3,4
 303 633 303 633 358 704 c 128,-1,5
 413 775 413 775 498 775 c 0,6,7
 552 775 552 775 586 753.5 c 128,-1,8
 620 732 620 732 620 699 c 0,9,10
 620 674 620 674 603 657.5 c 128,-1,11
 586 641 586 641 562 641 c 0,12,13
 539 641 539 641 527.5 654.5 c 128,-1,14
 516 668 516 668 507.5 684 c 128,-1,15
 499 700 499 700 490.5 713.5 c 128,-1,16
 482 727 482 727 464 727 c 0,17,18
 453 727 453 727 444 715 c 128,-1,19
 435 703 435 703 425.5 670.5 c 128,-1,20
 416 638 416 638 405 580 c 128,-1,21
 394 522 394 522 379 430 c 2,22,-1
 368 366 l 1,23,-1
 548 366 l 1,24,-1
 548 322 l 1,25,-1
 359 322 l 1,26,27
 345 259 345 259 328.5 209 c 128,-1,28
 312 159 312 159 292 116 c 1,29,30
 355 87 355 87 430 87 c 0,31,32
 549 87 549 87 571 163 c 1,33,-1
 606 163 l 1,34,35
 606 79 606 79 564.5 34.5 c 128,-1,36
 523 -10 523 -10 445 -10 c 0,37,38
 422 -10 422 -10 401.5 -6 c 128,-1,39
 381 -2 381 -2 359.5 7 c 128,-1,40
 338 16 338 16 314.5 30.5 c 128,-1,41
 291 45 291 45 263 67 c 1,42,43
 231 30 231 30 194.5 10.5 c 128,-1,44
 158 -9 158 -9 120 -9 c 0,45,46
 79 -9 79 -9 55.5 10 c 128,-1,47
 32 29 32 29 32 61 c 0,48,49
 32 99 32 99 62.5 123.5 c 128,-1,50
 93 148 93 148 141 148 c 0,51,52
 168 148 168 148 203 139 c 1,53,54
 213 177 213 177 222 221 c 128,-1,55
 231 265 231 265 240 322 c 1,56,-1
 130 322 l 1,0,-1
191 94 m 1,57,58
 178 100 178 100 166.5 103 c 128,-1,59
 155 106 155 106 141 106 c 0,60,61
 113 106 113 106 97.5 95.5 c 128,-1,62
 82 85 82 85 82 65 c 0,63,64
 82 50 82 50 91.5 41.5 c 128,-1,65
 101 33 101 33 117 33 c 0,66,67
 140 33 140 33 160 49.5 c 128,-1,68
 180 66 180 66 191 94 c 1,57,58
EndSplineSet
Substitution2: "'tnum' Tabular Numbers in Latin lookup 3 subtable" sterling.tnum
EndChar
StartChar: currency
Encoding: 164 164 198
Width: 634
Flags: W
LayerCount: 2
Back
Fore
SplineSet
125 127 m 1,0,-1
 77 175 l 1,1,-1
 144 241 l 1,2,3
 102 292 102 292 102 368 c 0,4,5
 102 440 102 440 144 494 c 1,6,-1
 77 559 l 1,7,-1
 125 607 l 1,8,-1
 191 540 l 1,9,10
 244 582 244 582 317 582 c 0,11,12
 386 582 386 582 444 541 c 1,13,-1
 509 607 l 1,14,-1
 557 559 l 1,15,-1
 490 493 l 1,16,17
 532 440 532 440 532 368 c 0,18,19
 532 297 532 297 491 241 c 1,20,-1
 557 175 l 1,21,-1
 509 127 l 1,22,-1
 443 194 l 1,23,24
 390 152 390 152 317 152 c 0,25,26
 245 152 245 152 191 194 c 1,27,-1
 125 127 l 1,0,-1
317 216 m 256,28,29
 347 216 347 216 373 228 c 128,-1,30
 399 240 399 240 419 260.5 c 128,-1,31
 439 281 439 281 450.5 308.5 c 128,-1,32
 462 336 462 336 462 367 c 256,33,34
 462 398 462 398 450.5 425.5 c 128,-1,35
 439 453 439 453 419 473.5 c 128,-1,36
 399 494 399 494 373 506 c 128,-1,37
 347 518 347 518 317 518 c 256,38,39
 287 518 287 518 261 506 c 128,-1,40
 235 494 235 494 215 473.5 c 128,-1,41
 195 453 195 453 183.5 426 c 128,-1,42
 172 399 172 399 172 368 c 256,43,44
 172 337 172 337 183.5 309.5 c 128,-1,45
 195 282 195 282 215 261 c 128,-1,46
 235 240 235 240 261 228 c 128,-1,47
 287 216 287 216 317 216 c 256,28,29
EndSplineSet
EndChar
StartChar: yen
Encoding: 165 165 521
Width: 650
Flags: W
LayerCount: 2
Back
Fore
SplineSet
105 374 m 1,0,-1
 253 374 l 1,1,-1
 119 686 l 2,2,3
 111 704 111 704 104 715 c 128,-1,4
 97 726 97 726 87.5 732.5 c 128,-1,5
 78 739 78 739 65.5 742 c 128,-1,6
 53 745 53 745 34 747 c 1,7,-1
 34 770 l 1,8,-1
 312 770 l 1,9,-1
 312 747 l 1,10,11
 274 740 274 740 257.5 731 c 128,-1,12
 241 722 241 722 241 705 c 0,13,14
 241 691 241 691 250 670 c 2,15,-1
 359 405 l 1,16,-1
 363 405 l 1,17,-1
 472 671 l 2,18,19
 478 687 478 687 478 700 c 0,20,21
 478 720 478 720 459.5 731 c 128,-1,22
 441 742 441 742 396 747 c 1,23,-1
 396 770 l 1,24,-1
 618 770 l 1,25,-1
 618 747 l 1,26,27
 594 742 594 742 578 736.5 c 128,-1,28
 562 731 562 731 550 719.5 c 128,-1,29
 538 708 538 708 527 688 c 128,-1,30
 516 668 516 668 503 636 c 2,31,-1
 395 374 l 1,32,-1
 536 374 l 1,33,-1
 536 330 l 1,34,-1
 377 330 l 1,35,-1
 377 253 l 1,36,-1
 536 253 l 1,37,-1
 536 209 l 1,38,-1
 377 209 l 1,39,-1
 377 42 l 1,40,-1
 466 23 l 1,41,-1
 466 0 l 1,42,-1
 182 0 l 1,43,-1
 182 23 l 1,44,-1
 272 42 l 1,45,-1
 272 209 l 1,46,-1
 105 209 l 1,47,-1
 105 253 l 1,48,-1
 272 253 l 1,49,-1
 272 330 l 1,50,-1
 105 330 l 1,51,-1
 105 374 l 1,0,-1
EndSplineSet
Substitution2: "'tnum' Tabular Numbers in Latin lookup 3 subtable" yen.tnum
EndChar
StartChar: brokenbar
Encoding: 166 166 175
Width: 275
Flags: W
LayerCount: 2
Back
Fore
SplineSet
104 432 m 1,0,-1
 104 819 l 1,1,-1
 171 819 l 1,2,-1
 171 432 l 1,3,-1
 104 432 l 1,0,-1
104 -171 m 1,4,-1
 104 216 l 1,5,-1
 171 216 l 1,6,-1
 171 -171 l 1,7,-1
 104 -171 l 1,4,-1
EndSplineSet
EndChar
StartChar: section
Encoding: 167 167 421
Width: 540
Flags: W
LayerCount: 2
Back
Fore
SplineSet
286 830 m 0,0,1
 326 830 326 830 360 822.5 c 128,-1,2
 394 815 394 815 419 801.5 c 128,-1,3
 444 788 444 788 457.5 769 c 128,-1,4
 471 750 471 750 471 728 c 0,5,6
 471 705 471 705 457.5 690 c 128,-1,7
 444 675 444 675 421 675 c 256,8,9
 398 675 398 675 387.5 691.5 c 128,-1,10
 377 708 377 708 365 738 c 0,11,12
 358 755 358 755 350.5 766.5 c 128,-1,13
 343 778 343 778 333 785 c 128,-1,14
 323 792 323 792 309 795 c 128,-1,15
 295 798 295 798 276 798 c 0,16,17
 215 798 215 798 181.5 771 c 128,-1,18
 148 744 148 744 148 694 c 0,19,20
 148 651 148 651 172.5 624 c 128,-1,21
 197 597 197 597 233.5 577.5 c 128,-1,22
 270 558 270 558 312.5 541 c 128,-1,23
 355 524 355 524 391.5 500.5 c 128,-1,24
 428 477 428 477 452.5 442.5 c 128,-1,25
 477 408 477 408 477 354 c 0,26,27
 477 298 477 298 450.5 255 c 128,-1,28
 424 212 424 212 377 188 c 1,29,30
 417 163 417 163 444.5 126 c 128,-1,31
 472 89 472 89 472 28 c 0,32,33
 472 -59 472 -59 413.5 -108.5 c 128,-1,34
 355 -158 355 -158 252 -158 c 0,35,36
 211 -158 211 -158 176.5 -150 c 128,-1,37
 142 -142 142 -142 117 -127 c 128,-1,38
 92 -112 92 -112 78 -91.5 c 128,-1,39
 64 -71 64 -71 64 -47 c 256,40,41
 64 -23 64 -23 77.5 -8 c 128,-1,42
 91 7 91 7 114 7 c 0,43,44
 136 7 136 7 146.5 -8.5 c 128,-1,45
 157 -24 157 -24 169 -56 c 0,46,47
 175 -71 175 -71 182 -84 c 128,-1,48
 189 -97 189 -97 199.5 -106.5 c 128,-1,49
 210 -116 210 -116 226.5 -121 c 128,-1,50
 243 -126 243 -126 268 -126 c 0,51,52
 328 -126 328 -126 361.5 -96.5 c 128,-1,53
 395 -67 395 -67 395 -15 c 0,54,55
 395 31 395 31 370.5 59.5 c 128,-1,56
 346 88 346 88 309 108.5 c 128,-1,57
 272 129 272 129 229.5 146 c 128,-1,58
 187 163 187 163 150 185.5 c 128,-1,59
 113 208 113 208 88.5 240.5 c 128,-1,60
 64 273 64 273 64 325 c 0,61,62
 64 383 64 383 97 425 c 128,-1,63
 130 467 130 467 189 487 c 1,64,65
 165 500 165 500 143 515.5 c 128,-1,66
 121 531 121 531 104.5 551 c 128,-1,67
 88 571 88 571 78.5 597 c 128,-1,68
 69 623 69 623 69 656 c 0,69,70
 69 737 69 737 126.5 783.5 c 128,-1,71
 184 830 184 830 286 830 c 0,0,1
400 313 m 0,72,73
 400 343 400 343 386 365 c 128,-1,74
 372 387 372 387 348 405 c 128,-1,75
 324 423 324 423 293.5 437.5 c 128,-1,76
 263 452 263 452 230 467 c 1,77,78
 191 456 191 456 167 427.5 c 128,-1,79
 143 399 143 399 143 361 c 0,80,81
 143 328 143 328 160.5 306 c 128,-1,82
 178 284 178 284 206 267.5 c 128,-1,83
 234 251 234 251 268.5 238 c 128,-1,84
 303 225 303 225 337 209 c 1,85,86
 366 225 366 225 383 252 c 128,-1,87
 400 279 400 279 400 313 c 0,72,73
EndSplineSet
Substitution2: "'tnum' Tabular Numbers in Latin lookup 3 subtable" section.tnum
EndChar
StartChar: dieresis
Encoding: 168 168 207
Width: 317
Flags: W
LayerCount: 2
Back
Fore
SplineSet
10 725 m 0,0,1
 10 749 10 749 25 764.5 c 128,-1,2
 40 780 40 780 65 780 c 0,3,4
 91 780 91 780 105.5 764.5 c 128,-1,5
 120 749 120 749 120 725 c 0,6,7
 120 702 120 702 105.5 686 c 128,-1,8
 91 670 91 670 65 670 c 0,9,10
 40 670 40 670 25 686 c 128,-1,11
 10 702 10 702 10 725 c 0,0,1
197 725 m 0,12,13
 197 749 197 749 212 764.5 c 128,-1,14
 227 780 227 780 252 780 c 0,15,16
 278 780 278 780 292.5 764.5 c 128,-1,17
 307 749 307 749 307 725 c 0,18,19
 307 702 307 702 292.5 686 c 128,-1,20
 278 670 278 670 252 670 c 0,21,22
 227 670 227 670 212 686 c 128,-1,23
 197 702 197 702 197 725 c 0,12,13
EndSplineSet
EndChar
StartChar: copyright
Encoding: 169 169 197
Width: 902
Flags: W
LayerCount: 2
Back
Fore
SplineSet
54 385 m 256,0,1
 54 466 54 466 85 538 c 128,-1,2
 116 610 116 610 170 664 c 128,-1,3
 224 718 224 718 296.5 749 c 128,-1,4
 369 780 369 780 451 780 c 256,5,6
 533 780 533 780 605.5 749 c 128,-1,7
 678 718 678 718 732 664 c 128,-1,8
 786 610 786 610 817 538 c 128,-1,9
 848 466 848 466 848 385 c 256,10,11
 848 304 848 304 817 232 c 128,-1,12
 786 160 786 160 732 106 c 128,-1,13
 678 52 678 52 605.5 21 c 128,-1,14
 533 -10 533 -10 451 -10 c 256,15,16
 369 -10 369 -10 296.5 21 c 128,-1,17
 224 52 224 52 170 106 c 128,-1,18
 116 160 116 160 85 232 c 128,-1,19
 54 304 54 304 54 385 c 256,0,1
106 385 m 256,20,21
 106 313 106 313 133 249.5 c 128,-1,22
 160 186 160 186 206.5 138.5 c 128,-1,23
 253 91 253 91 316 63 c 128,-1,24
 379 35 379 35 451 35 c 256,25,26
 523 35 523 35 586 63 c 128,-1,27
 649 91 649 91 695.5 138.5 c 128,-1,28
 742 186 742 186 768.5 249.5 c 128,-1,29
 795 313 795 313 795 385 c 256,30,31
 795 457 795 457 768.5 520.5 c 128,-1,32
 742 584 742 584 695.5 631.5 c 128,-1,33
 649 679 649 679 586 707 c 128,-1,34
 523 735 523 735 451 735 c 256,35,36
 379 735 379 735 316 707 c 128,-1,37
 253 679 253 679 206.5 631.5 c 128,-1,38
 160 584 160 584 133 520.5 c 128,-1,39
 106 457 106 457 106 385 c 256,20,21
230 385 m 0,40,41
 230 436 230 436 246.5 478.5 c 128,-1,42
 263 521 263 521 292 551.5 c 128,-1,43
 321 582 321 582 361 599.5 c 128,-1,44
 401 617 401 617 448 617 c 0,45,46
 517 617 517 617 571 577 c 1,47,-1
 575 577 l 1,48,-1
 599 615 l 1,49,-1
 613 615 l 1,50,-1
 613 472 l 1,51,-1
 591 472 l 1,52,53
 586 489 586 489 581 500 c 128,-1,54
 576 511 576 511 569 522 c 0,55,56
 550 554 550 554 524.5 568 c 128,-1,57
 499 582 499 582 464 582 c 0,58,59
 395 582 395 582 360 532.5 c 128,-1,60
 325 483 325 483 325 391 c 0,61,62
 325 297 325 297 360.5 246 c 128,-1,63
 396 195 396 195 462 195 c 0,64,65
 526 195 526 195 563 248 c 0,66,67
 573 262 573 262 580.5 281 c 128,-1,68
 588 300 588 300 593 323 c 1,69,-1
 613 323 l 1,70,-1
 613 162 l 1,71,-1
 599 162 l 1,72,-1
 573 208 l 1,73,74
 544 184 544 184 514.5 172.5 c 128,-1,75
 485 161 485 161 447 161 c 0,76,77
 399 161 399 161 359.5 177.5 c 128,-1,78
 320 194 320 194 291 223.5 c 128,-1,79
 262 253 262 253 246 294 c 128,-1,80
 230 335 230 335 230 385 c 0,40,41
EndSplineSet
EndChar
StartChar: ordfeminine
Encoding: 170 170 372
Width: 417
Flags: W
LayerCount: 2
Back
Fore
SplineSet
143 422 m 0,0,1
 105 422 105 422 81.5 444 c 128,-1,2
 58 466 58 466 58 502 c 0,3,4
 58 546 58 546 99 573 c 128,-1,5
 140 600 140 600 237 622 c 1,6,-1
 237 680 l 2,7,8
 237 715 237 715 226 730 c 128,-1,9
 215 745 215 745 189 745 c 256,10,11
 163 745 163 745 146.5 734 c 128,-1,12
 130 723 130 723 130 705 c 0,13,14
 130 700 130 700 131 694 c 128,-1,15
 132 688 132 688 132 682 c 0,16,17
 132 666 132 666 122 655.5 c 128,-1,18
 112 645 112 645 98 645 c 256,19,20
 84 645 84 645 76 653.5 c 128,-1,21
 68 662 68 662 68 676 c 0,22,23
 68 698 68 698 87 721 c 128,-1,24
 106 744 106 744 138 760 c 0,25,26
 175 780 175 780 221 780 c 0,27,28
 250 780 250 780 271.5 770.5 c 128,-1,29
 293 761 293 761 301 745 c 0,30,31
 304 739 304 739 305.5 733 c 128,-1,32
 307 727 307 727 307.5 718 c 128,-1,33
 308 709 308 709 308.5 695 c 128,-1,34
 309 681 309 681 309 660 c 2,35,-1
 309 521 l 2,36,37
 309 489 309 489 314 478 c 128,-1,38
 319 467 319 467 333 467 c 0,39,40
 346 467 346 467 360 481 c 1,41,-1
 376 466 l 1,42,43
 347 422 347 422 304 422 c 0,44,45
 251 422 251 422 242 476 c 1,46,-1
 238 477 l 1,47,48
 197 422 197 422 143 422 c 0,0,1
180 471 m 0,49,50
 214 471 214 471 237 514 c 1,51,-1
 237 593 l 1,52,53
 178 580 178 580 155 563 c 128,-1,54
 132 546 132 546 132 515 c 0,55,56
 132 494 132 494 144.5 482.5 c 128,-1,57
 157 471 157 471 180 471 c 0,49,50
EndSplineSet
EndChar
StartChar: guillemotleft
Encoding: 171 171 289
Width: 436
Flags: W
LayerCount: 2
Back
Fore
SplineSet
197 53 m 1,0,-1
 58 236 l 1,1,-1
 58 255 l 1,2,-1
 195 436 l 1,3,-1
 207 431 l 1,4,-1
 141 246 l 1,5,-1
 209 61 l 1,6,-1
 197 53 l 1,0,-1
353 53 m 1,7,-1
 214 236 l 1,8,-1
 214 255 l 1,9,-1
 351 436 l 1,10,-1
 363 431 l 1,11,-1
 297 246 l 1,12,-1
 365 61 l 1,13,-1
 353 53 l 1,7,-1
EndSplineSet
EndChar
StartChar: logicalnot
Encoding: 172 172 323
Width: 572
Flags: W
LayerCount: 2
Back
Fore
SplineSet
443 264 m 1,0,-1
 84 264 l 1,1,-1
 84 308 l 1,2,-1
 494 308 l 1,3,-1
 494 147 l 1,4,-1
 443 147 l 1,5,-1
 443 264 l 1,0,-1
EndSplineSet
EndChar
StartChar: registered
Encoding: 174 174 411
Width: 690
Flags: W
LayerCount: 2
Back
Fore
SplineSet
67 504 m 256,0,1
 67 561 67 561 89 611.5 c 128,-1,2
 111 662 111 662 148.5 699.5 c 128,-1,3
 186 737 186 737 237 758.5 c 128,-1,4
 288 780 288 780 345 780 c 256,5,6
 402 780 402 780 453 758.5 c 128,-1,7
 504 737 504 737 541.5 699.5 c 128,-1,8
 579 662 579 662 601 611.5 c 128,-1,9
 623 561 623 561 623 504 c 256,10,11
 623 447 623 447 601 396.5 c 128,-1,12
 579 346 579 346 541.5 308.5 c 128,-1,13
 504 271 504 271 453 249 c 128,-1,14
 402 227 402 227 345 227 c 256,15,16
 288 227 288 227 237 249 c 128,-1,17
 186 271 186 271 148.5 308.5 c 128,-1,18
 111 346 111 346 89 396.5 c 128,-1,19
 67 447 67 447 67 504 c 256,0,1
103 504 m 256,20,21
 103 454 103 454 122 409 c 128,-1,22
 141 364 141 364 174 330.5 c 128,-1,23
 207 297 207 297 251 277.5 c 128,-1,24
 295 258 295 258 345 258 c 256,25,26
 395 258 395 258 439 277.5 c 128,-1,27
 483 297 483 297 515.5 330.5 c 128,-1,28
 548 364 548 364 567 409 c 128,-1,29
 586 454 586 454 586 504 c 256,30,31
 586 554 586 554 567 599 c 128,-1,32
 548 644 548 644 515.5 677.5 c 128,-1,33
 483 711 483 711 439 730.5 c 128,-1,34
 395 750 395 750 345 750 c 256,35,36
 295 750 295 750 251 730.5 c 128,-1,37
 207 711 207 711 174 677.5 c 128,-1,38
 141 644 141 644 122 599 c 128,-1,39
 103 554 103 554 103 504 c 256,20,21
228 663 m 1,40,-1
 346 663 l 2,41,42
 397 663 397 663 428.5 641 c 128,-1,43
 460 619 460 619 460 577 c 0,44,45
 460 546 460 546 441.5 527 c 128,-1,46
 423 508 423 508 390 500 c 1,47,-1
 458 375 l 1,48,-1
 488 367 l 1,49,-1
 488 355 l 1,50,-1
 402 355 l 1,51,-1
 331 495 l 1,52,-1
 308 495 l 1,53,-1
 308 375 l 1,54,-1
 344 367 l 1,55,-1
 344 355 l 1,56,-1
 228 355 l 1,57,-1
 228 367 l 1,58,-1
 254 375 l 1,59,-1
 254 642 l 1,60,-1
 228 650 l 1,61,-1
 228 663 l 1,40,-1
308 516 m 1,62,63
 347 516 347 516 373.5 530 c 128,-1,64
 400 544 400 544 400 579 c 0,65,66
 400 610 400 610 379 626 c 128,-1,67
 358 642 358 642 308 642 c 1,68,-1
 308 516 l 1,62,63
EndSplineSet
EndChar
StartChar: degree
Encoding: 176 176 205
Width: 340
Flags: W
LayerCount: 2
Back
Fore
SplineSet
170 587 m 0,0,1
 144 587 144 587 122 596.5 c 128,-1,2
 100 606 100 606 84 622 c 128,-1,3
 68 638 68 638 58.5 660 c 128,-1,4
 49 682 49 682 49 708 c 0,5,6
 49 733 49 733 58.5 755.5 c 128,-1,7
 68 778 68 778 84 794.5 c 128,-1,8
 100 811 100 811 122 820.5 c 128,-1,9
 144 830 144 830 170 830 c 0,10,11
 195 830 195 830 217 820.5 c 128,-1,12
 239 811 239 811 255.5 794.5 c 128,-1,13
 272 778 272 778 281.5 755.5 c 128,-1,14
 291 733 291 733 291 708 c 0,15,16
 291 682 291 682 281.5 660 c 128,-1,17
 272 638 272 638 256 622 c 128,-1,18
 240 606 240 606 217.5 596.5 c 128,-1,19
 195 587 195 587 170 587 c 0,0,1
90 708 m 0,20,21
 90 673 90 673 112.5 650.5 c 128,-1,22
 135 628 135 628 170 628 c 0,23,24
 206 628 206 628 228 650.5 c 128,-1,25
 250 673 250 673 250 708 c 0,26,27
 250 744 250 744 228 767 c 128,-1,28
 206 790 206 790 170 790 c 0,29,30
 135 790 135 790 112.5 767 c 128,-1,31
 90 744 90 744 90 708 c 0,20,21
EndSplineSet
Substitution2: "'tnum' Tabular Numbers in Latin lookup 3 subtable" degree.tnum
EndChar
StartChar: plusminus
Encoding: 177 177 391
Width: 576
Flags: W
LayerCount: 2
Back
Fore
SplineSet
263 422 m 1,0,-1
 83 422 l 1,1,-1
 83 471 l 1,2,-1
 263 471 l 1,3,-1
 263 651 l 1,4,-1
 314 651 l 1,5,-1
 314 471 l 1,6,-1
 493 471 l 1,7,-1
 493 422 l 1,8,-1
 314 422 l 1,9,-1
 314 241 l 1,10,-1
 263 241 l 1,11,-1
 263 422 l 1,0,-1
83 106 m 1,12,-1
 83 155 l 1,13,-1
 493 155 l 1,14,-1
 493 106 l 1,15,-1
 83 106 l 1,12,-1
EndSplineSet
Substitution2: "'tnum' Tabular Numbers in Latin lookup 3 subtable" plusminus.tnum
EndChar
StartChar: twosuperior
Encoding: 178 178 469
Width: 405
Flags: W
LayerCount: 2
Back
Fore
SplineSet
34 416 m 1,0,-1
 28 454 l 1,1,2
 89 512 89 512 132 558 c 128,-1,3
 175 604 175 604 202 641.5 c 128,-1,4
 229 679 229 679 241 710.5 c 128,-1,5
 253 742 253 742 253 771 c 0,6,7
 253 813 253 813 231 838 c 128,-1,8
 209 863 209 863 174 863 c 0,9,10
 143 863 143 863 113.5 842 c 128,-1,11
 84 821 84 821 66 787 c 1,12,-1
 44 801 l 1,13,14
 66 860 66 860 109.5 893 c 128,-1,15
 153 926 153 926 207 926 c 0,16,17
 238 926 238 926 264 915 c 128,-1,18
 290 904 290 904 309.5 885 c 128,-1,19
 329 866 329 866 340 840 c 128,-1,20
 351 814 351 814 351 784 c 256,21,22
 351 754 351 754 339.5 724 c 128,-1,23
 328 694 328 694 301.5 660.5 c 128,-1,24
 275 627 275 627 233 588.5 c 128,-1,25
 191 550 191 550 130 502 c 1,26,-1
 295 502 l 1,27,28
 306 513 306 513 318.5 529.5 c 128,-1,29
 331 546 331 546 343 568 c 1,30,-1
 367 563 l 1,31,-1
 315 394 l 1,32,-1
 296 394 l 1,33,-1
 284 416 l 1,34,-1
 34 416 l 1,0,-1
EndSplineSet
EndChar
StartChar: threesuperior
Encoding: 179 179 459
Width: 389
Flags: W
LayerCount: 2
Back
Fore
SplineSet
111 683 m 1,0,1
 164 703 164 703 194 737 c 128,-1,2
 224 771 224 771 224 808 c 0,3,4
 224 834 224 834 208.5 849.5 c 128,-1,5
 193 865 193 865 168 865 c 0,6,7
 139 865 139 865 113.5 848 c 128,-1,8
 88 831 88 831 74 803 c 1,9,-1
 53 812 l 1,10,11
 64 863 64 863 104.5 894.5 c 128,-1,12
 145 926 145 926 200 926 c 0,13,14
 251 926 251 926 283.5 898 c 128,-1,15
 316 870 316 870 316 824 c 0,16,17
 316 785 316 785 290.5 757.5 c 128,-1,18
 265 730 265 730 227 720 c 1,19,-1
 227 716 l 1,20,21
 281 711 281 711 313.5 675 c 128,-1,22
 346 639 346 639 346 583 c 0,23,24
 346 547 346 547 332 515.5 c 128,-1,25
 318 484 318 484 293.5 460 c 128,-1,26
 269 436 269 436 236 422.5 c 128,-1,27
 203 409 203 409 165 409 c 0,28,29
 138 409 138 409 114 416 c 128,-1,30
 90 423 90 423 72 435.5 c 128,-1,31
 54 448 54 448 44 464.5 c 128,-1,32
 34 481 34 481 34 500 c 0,33,34
 34 521 34 521 45.5 534.5 c 128,-1,35
 57 548 57 548 77 548 c 0,36,37
 99 548 99 548 108 533 c 128,-1,38
 117 518 117 518 124.5 499.5 c 128,-1,39
 132 481 132 481 143 466 c 128,-1,40
 154 451 154 451 180 451 c 0,41,42
 214 451 214 451 235 476 c 128,-1,43
 256 501 256 501 256 544 c 0,44,45
 256 597 256 597 228 627 c 128,-1,46
 200 657 200 657 155 657 c 0,47,48
 148 657 148 657 138 656.5 c 128,-1,49
 128 656 128 656 120 654 c 1,50,-1
 111 683 l 1,0,1
EndSplineSet
EndChar
StartChar: acute
Encoding: 180 180 148
Width: 170
Flags: W
LayerCount: 2
Back
Fore
SplineSet
10 642 m 1,0,-1
 66 812 l 2,1,2
 74 834 74 834 86.5 846.5 c 128,-1,3
 99 859 99 859 121 859 c 0,4,5
 137 859 137 859 148.5 847 c 128,-1,6
 160 835 160 835 160 816 c 0,7,8
 160 803 160 803 153.5 789 c 128,-1,9
 147 775 147 775 130 755 c 2,10,-1
 31 631 l 1,11,-1
 10 642 l 1,0,-1
EndSplineSet
EndChar
StartChar: mu
Encoding: 181 181 330
Width: 624
Flags: W
LayerCount: 2
Back
Fore
SplineSet
417 81 m 1,0,-1
 413 82 l 1,1,2
 343 -10 343 -10 261 -10 c 0,3,4
 218 -10 218 -10 188 12 c 128,-1,5
 158 34 158 34 150 72 c 1,6,-1
 147 70 l 1,7,8
 147 36 147 36 153.5 -4 c 128,-1,9
 160 -44 160 -44 167.5 -82.5 c 128,-1,10
 175 -121 175 -121 181.5 -154 c 128,-1,11
 188 -187 188 -187 188 -206 c 0,12,13
 188 -232 188 -232 175.5 -246 c 128,-1,14
 163 -260 163 -260 140 -260 c 0,15,16
 114 -260 114 -260 102.5 -239.5 c 128,-1,17
 91 -219 91 -219 91 -173 c 0,18,19
 91 -150 91 -150 93.5 -114 c 128,-1,20
 96 -78 96 -78 98.5 -37 c 128,-1,21
 101 4 101 4 103.5 46.5 c 128,-1,22
 106 89 106 89 106 127 c 2,23,-1
 106 530 l 1,24,-1
 201 530 l 1,25,-1
 201 193 l 2,26,27
 201 145 201 145 203.5 120 c 128,-1,28
 206 95 206 95 213 81 c 0,29,30
 230 39 230 39 279 39 c 0,31,32
 314 39 314 39 349 59 c 128,-1,33
 384 79 384 79 411 114 c 1,34,-1
 411 530 l 1,35,-1
 506 530 l 1,36,-1
 506 75 l 1,37,-1
 574 51 l 1,38,-1
 574 39 l 1,39,-1
 424 -10 l 1,40,-1
 417 -10 l 1,41,-1
 417 81 l 1,0,-1
EndSplineSet
EndChar
StartChar: paragraph
Encoding: 182 182 378
Width: 583
Flags: W
LayerCount: 2
Back
Fore
SplineSet
294 -108 m 1,0,-1
 294 340 l 1,1,-1
 238 340 l 2,2,3
 190 340 190 340 152 357 c 128,-1,4
 114 374 114 374 87 403.5 c 128,-1,5
 60 433 60 433 45.5 471.5 c 128,-1,6
 31 510 31 510 31 554 c 0,7,8
 31 603 31 603 47 643 c 128,-1,9
 63 683 63 683 93 711 c 128,-1,10
 123 739 123 739 166 754.5 c 128,-1,11
 209 770 209 770 263 770 c 2,12,-1
 524 770 l 1,13,-1
 524 745 l 1,14,-1
 446 728 l 1,15,-1
 446 -108 l 1,16,-1
 400 -108 l 1,17,-1
 400 730 l 1,18,-1
 340 730 l 1,19,-1
 340 -108 l 1,20,-1
 294 -108 l 1,0,-1
EndSplineSet
Substitution2: "'tnum' Tabular Numbers in Latin lookup 3 subtable" paragraph.tnum
EndChar
StartChar: periodcentered
Encoding: 183 183 386
Width: 282
Flags: W
LayerCount: 2
Back
Fore
SplineSet
72 287 m 0,0,1
 72 317 72 317 90.5 337 c 128,-1,2
 109 357 109 357 140 357 c 0,3,4
 172 357 172 357 191 337 c 128,-1,5
 210 317 210 317 210 287 c 0,6,7
 210 259 210 259 191 239 c 128,-1,8
 172 219 172 219 140 219 c 0,9,10
 109 219 109 219 90.5 239 c 128,-1,11
 72 259 72 259 72 287 c 0,0,1
EndSplineSet
Substitution2: "'tnum' Tabular Numbers in Latin lookup 3 subtable" periodcentered.tnum
EndChar
StartChar: cedilla
Encoding: 184 184 187
Width: 230
Flags: W
LayerCount: 2
Back
Fore
SplineSet
24 -203 m 1,0,1
 41 -213 41 -213 53 -216.5 c 128,-1,2
 65 -220 65 -220 80 -220 c 0,3,4
 110 -220 110 -220 127.5 -205.5 c 128,-1,5
 145 -191 145 -191 145 -168 c 0,6,7
 145 -125 145 -125 97 -125 c 0,8,9
 72 -125 72 -125 46 -133 c 1,10,-1
 37 -124 l 1,11,-1
 97 17 l 1,12,-1
 134 17 l 1,13,-1
 105 -58 l 1,14,15
 159 -58 159 -58 189.5 -86 c 128,-1,16
 220 -114 220 -114 220 -156 c 0,17,18
 220 -200 220 -200 184.5 -228.5 c 128,-1,19
 149 -257 149 -257 88 -257 c 0,20,21
 65 -257 65 -257 44 -250.5 c 128,-1,22
 23 -244 23 -244 10 -233 c 1,23,-1
 24 -203 l 1,0,1
EndSplineSet
EndChar
StartChar: onesuperior
Encoding: 185 185 369
Width: 351
Flags: W
LayerCount: 2
Back
Fore
SplineSet
230 921 m 1,0,-1
 230 457 l 1,1,-1
 313 440 l 1,2,-1
 313 416 l 1,3,-1
 58 416 l 1,4,-1
 58 440 l 1,5,-1
 140 457 l 1,6,-1
 140 818 l 1,7,-1
 59 818 l 1,8,-1
 59 846 l 1,9,10
 100 854 100 854 135.5 873.5 c 128,-1,11
 171 893 171 893 206 926 c 1,12,-1
 230 921 l 1,0,-1
EndSplineSet
EndChar
StartChar: ordmasculine
Encoding: 186 186 373
Width: 442
Flags: W
LayerCount: 2
Back
Fore
SplineSet
221 780 m 256,0,1
 258 780 258 780 289 766.5 c 128,-1,2
 320 753 320 753 343 729 c 128,-1,3
 366 705 366 705 379 672.5 c 128,-1,4
 392 640 392 640 392 601 c 256,5,6
 392 562 392 562 379 529.5 c 128,-1,7
 366 497 366 497 343 473 c 128,-1,8
 320 449 320 449 289 435.5 c 128,-1,9
 258 422 258 422 221 422 c 256,10,11
 184 422 184 422 153 435.5 c 128,-1,12
 122 449 122 449 99 473 c 128,-1,13
 76 497 76 497 63 529.5 c 128,-1,14
 50 562 50 562 50 601 c 256,15,16
 50 640 50 640 63 672.5 c 128,-1,17
 76 705 76 705 99 729 c 128,-1,18
 122 753 122 753 153 766.5 c 128,-1,19
 184 780 184 780 221 780 c 256,0,1
129 601 m 256,20,21
 129 532 129 532 153 494 c 128,-1,22
 177 456 177 456 220 456 c 0,23,24
 264 456 264 456 288.5 494.5 c 128,-1,25
 313 533 313 533 313 602 c 0,26,27
 313 670 313 670 289 707.5 c 128,-1,28
 265 745 265 745 221 745 c 256,29,30
 177 745 177 745 153 707.5 c 128,-1,31
 129 670 129 670 129 601 c 256,20,21
EndSplineSet
EndChar
StartChar: guillemotright
Encoding: 187 187 290
Width: 436
Flags: W
LayerCount: 2
Back
Fore
SplineSet
227 61 m 1,0,-1
 295 246 l 1,1,-1
 229 431 l 1,2,-1
 241 436 l 1,3,-1
 378 255 l 1,4,-1
 378 236 l 1,5,-1
 239 53 l 1,6,-1
 227 61 l 1,0,-1
71 61 m 1,7,-1
 139 246 l 1,8,-1
 73 431 l 1,9,-1
 85 436 l 1,10,-1
 222 255 l 1,11,-1
 222 236 l 1,12,-1
 83 53 l 1,13,-1
 71 61 l 1,7,-1
EndSplineSet
EndChar
StartChar: onequarter
Encoding: 188 188 368
Width: 808
Flags: W
LayerCount: 2
Back
Fore
SplineSet
165 0 m 1,0,-1
 634 770 l 1,1,-1
 704 770 l 1,2,-1
 234 0 l 1,3,-1
 165 0 l 1,0,-1
203 775 m 1,4,-1
 203 357 l 1,5,-1
 277 342 l 1,6,-1
 277 320 l 1,7,-1
 48 320 l 1,8,-1
 48 342 l 1,9,-1
 122 357 l 1,10,-1
 122 682 l 1,11,-1
 49 682 l 1,12,-1
 49 707 l 1,13,14
 119 722 119 722 181 779 c 1,15,-1
 203 775 l 1,4,-1
624 114 m 1,16,-1
 453 114 l 1,17,-1
 444 148 l 1,18,-1
 669 459 l 1,19,-1
 705 454 l 1,20,-1
 705 171 l 1,21,-1
 759 171 l 1,22,-1
 759 114 l 1,23,-1
 705 114 l 1,24,-1
 705 36 l 1,25,-1
 757 22 l 1,26,-1
 757 0 l 1,27,-1
 554 0 l 1,28,-1
 554 22 l 1,29,-1
 624 36 l 1,30,-1
 624 114 l 1,16,-1
624 335 m 1,31,-1
 620 335 l 1,32,-1
 504 175 l 1,33,-1
 506 171 l 1,34,-1
 624 171 l 1,35,-1
 624 335 l 1,31,-1
EndSplineSet
Ligature2: "'frac' Diagonal Fractions in Latin lookup 2 subtable" one slash four
Ligature2: "'frac' Diagonal Fractions in Latin lookup 2 subtable" one fraction four
EndChar
StartChar: onehalf
Encoding: 189 189 366
Width: 834
Flags: W
LayerCount: 2
Back
Fore
SplineSet
135 0 m 1,0,-1
 604 770 l 1,1,-1
 674 770 l 1,2,-1
 204 0 l 1,3,-1
 135 0 l 1,0,-1
203 775 m 1,4,-1
 203 357 l 1,5,-1
 277 342 l 1,6,-1
 277 320 l 1,7,-1
 48 320 l 1,8,-1
 48 342 l 1,9,-1
 122 357 l 1,10,-1
 122 682 l 1,11,-1
 49 682 l 1,12,-1
 49 707 l 1,13,14
 119 722 119 722 181 779 c 1,15,-1
 203 775 l 1,4,-1
491 0 m 1,16,-1
 486 35 l 1,17,18
 541 87 541 87 579.5 128 c 128,-1,19
 618 169 618 169 642 203 c 128,-1,20
 666 237 666 237 677 265.5 c 128,-1,21
 688 294 688 294 688 320 c 0,22,23
 688 358 688 358 668.5 380.5 c 128,-1,24
 649 403 649 403 617 403 c 0,25,26
 589 403 589 403 563 384 c 128,-1,27
 537 365 537 365 520 334 c 1,28,-1
 500 347 l 1,29,30
 520 400 520 400 559 429.5 c 128,-1,31
 598 459 598 459 647 459 c 0,32,33
 675 459 675 459 698.5 449.5 c 128,-1,34
 722 440 722 440 739.5 422.5 c 128,-1,35
 757 405 757 405 767 382 c 128,-1,36
 777 359 777 359 777 332 c 256,37,38
 777 305 777 305 766.5 278 c 128,-1,39
 756 251 756 251 732.5 221 c 128,-1,40
 709 191 709 191 671 156 c 128,-1,41
 633 121 633 121 578 78 c 1,42,-1
 726 78 l 1,43,44
 736 87 736 87 747 102 c 128,-1,45
 758 117 758 117 769 137 c 1,46,-1
 791 133 l 1,47,-1
 744 -19 l 1,48,-1
 727 -19 l 1,49,-1
 716 0 l 1,50,-1
 491 0 l 1,16,-1
EndSplineSet
Ligature2: "'frac' Diagonal Fractions in Latin lookup 2 subtable" one slash two
Ligature2: "'frac' Diagonal Fractions in Latin lookup 2 subtable" one fraction two
EndChar
StartChar: threequarters
Encoding: 190 190 458
Width: 817
Flags: W
LayerCount: 2
Back
Fore
SplineSet
148 0 m 1,0,-1
 617 770 l 1,1,-1
 687 770 l 1,2,-1
 217 0 l 1,3,-1
 148 0 l 1,0,-1
637 114 m 1,4,-1
 466 114 l 1,5,-1
 457 148 l 1,6,-1
 682 459 l 1,7,-1
 718 454 l 1,8,-1
 718 171 l 1,9,-1
 772 171 l 1,10,-1
 772 114 l 1,11,-1
 718 114 l 1,12,-1
 718 36 l 1,13,-1
 770 22 l 1,14,-1
 770 0 l 1,15,-1
 567 0 l 1,16,-1
 567 22 l 1,17,-1
 637 36 l 1,18,-1
 637 114 l 1,4,-1
637 335 m 1,19,-1
 633 335 l 1,20,-1
 517 175 l 1,21,-1
 519 171 l 1,22,-1
 637 171 l 1,23,-1
 637 335 l 1,19,-1
110 561 m 1,24,25
 158 580 158 580 185 610.5 c 128,-1,26
 212 641 212 641 212 674 c 0,27,28
 212 697 212 697 198 711 c 128,-1,29
 184 725 184 725 161 725 c 0,30,31
 135 725 135 725 112.5 710 c 128,-1,32
 90 695 90 695 77 669 c 1,33,-1
 58 678 l 1,34,35
 68 724 68 724 104 752 c 128,-1,36
 140 780 140 780 190 780 c 0,37,38
 236 780 236 780 265 755 c 128,-1,39
 294 730 294 730 294 688 c 0,40,41
 294 653 294 653 271 628 c 128,-1,42
 248 603 248 603 214 595 c 1,43,-1
 214 591 l 1,44,45
 263 586 263 586 292 554 c 128,-1,46
 321 522 321 522 321 471 c 0,47,48
 321 439 321 439 308.5 410.5 c 128,-1,49
 296 382 296 382 274 361 c 128,-1,50
 252 340 252 340 222 327.5 c 128,-1,51
 192 315 192 315 158 315 c 0,52,53
 109 315 109 315 75 338.5 c 128,-1,54
 41 362 41 362 41 397 c 0,55,56
 41 416 41 416 51.5 428 c 128,-1,57
 62 440 62 440 79 440 c 0,58,59
 99 440 99 440 107 426.5 c 128,-1,60
 115 413 115 413 122 396.5 c 128,-1,61
 129 380 129 380 139 366.5 c 128,-1,62
 149 353 149 353 172 353 c 0,63,64
 202 353 202 353 221 375.5 c 128,-1,65
 240 398 240 398 240 436 c 0,66,67
 240 484 240 484 215 511 c 128,-1,68
 190 538 190 538 149 538 c 0,69,70
 143 538 143 538 134.5 537.5 c 128,-1,71
 126 537 126 537 118 535 c 1,72,-1
 110 561 l 1,24,25
EndSplineSet
Ligature2: "'frac' Diagonal Fractions in Latin lookup 2 subtable" three slash four
Ligature2: "'frac' Diagonal Fractions in Latin lookup 2 subtable" three fraction four
EndChar
StartChar: questiondown
Encoding: 191 191 395
Width: 404
Flags: W
LayerCount: 2
Back
Fore
SplineSet
309 300 m 1,0,-1
 309 88 l 1,1,-1
 270 88 l 2,2,3
 75 88 75 88 75 -8 c 0,4,5
 75 -46 75 -46 107.5 -81 c 128,-1,6
 140 -116 140 -116 208 -142 c 0,7,8
 247 -157 247 -157 270.5 -167 c 128,-1,9
 294 -177 294 -177 306.5 -185.5 c 128,-1,10
 319 -194 319 -194 323.5 -202 c 128,-1,11
 328 -210 328 -210 328 -221 c 0,12,13
 328 -256 328 -256 275 -256 c 0,14,15
 228 -256 228 -256 185.5 -236 c 128,-1,16
 143 -216 143 -216 111 -181 c 128,-1,17
 79 -146 79 -146 60 -99 c 128,-1,18
 41 -52 41 -52 41 1 c 0,19,20
 41 84 41 84 93 129 c 128,-1,21
 145 174 145 174 243 177 c 2,22,-1
 273 178 l 1,23,-1
 273 300 l 1,24,-1
 309 300 l 1,0,-1
357 475 m 256,25,26
 357 446 357 446 339 428 c 128,-1,27
 321 410 321 410 292 410 c 256,28,29
 263 410 263 410 245 428 c 128,-1,30
 227 446 227 446 227 475 c 256,31,32
 227 504 227 504 245.5 522 c 128,-1,33
 264 540 264 540 293 540 c 256,34,35
 322 540 322 540 339.5 522 c 128,-1,36
 357 504 357 504 357 475 c 256,25,26
EndSplineSet
EndChar
StartChar: Agrave
Encoding: 192 192 8
Width: 744
Flags: W
LayerCount: 2
Back
Fore
SplineSet
461 283 m 1,0,-1
 219 283 l 1,1,-1
 165 132 l 2,2,3
 154 101 154 101 154 85 c 0,4,5
 154 58 154 58 180 44.5 c 128,-1,6
 206 31 206 31 257 23 c 1,7,-1
 257 0 l 1,8,-1
 -24 0 l 1,9,-1
 -24 23 l 1,10,11
 16 29 16 29 40 37 c 128,-1,12
 64 45 64 45 79 58 c 128,-1,13
 94 71 94 71 103 89.5 c 128,-1,14
 112 108 112 108 121 134 c 2,15,-1
 315 677 l 1,16,-1
 289 736 l 1,17,-1
 387 790 l 1,18,-1
 651 84 l 2,19,20
 657 67 657 67 664 56 c 128,-1,21
 671 45 671 45 682 38 c 128,-1,22
 693 31 693 31 710 28 c 128,-1,23
 727 25 727 25 753 23 c 1,24,-1
 753 0 l 1,25,-1
 435 0 l 1,26,-1
 435 23 l 1,27,28
 469 24 469 24 489.5 26.5 c 128,-1,29
 510 29 510 29 521 33 c 128,-1,30
 532 37 532 37 535 42.5 c 128,-1,31
 538 48 538 48 538 56 c 0,32,33
 538 63 538 63 536 72.5 c 128,-1,34
 534 82 534 82 527 100 c 2,35,-1
 461 283 l 1,0,-1
337 614 m 1,36,-1
 233 323 l 1,37,-1
 446 323 l 1,38,-1
 341 614 l 1,39,-1
 337 614 l 1,36,-1
427 816 m 1,40,-1
 275 860 l 2,41,42
 236 871 236 871 221.5 885.5 c 128,-1,43
 207 900 207 900 207 917 c 0,44,45
 207 936 207 936 220 948 c 128,-1,46
 233 960 233 960 250 960 c 0,47,48
 272 960 272 960 294 944 c 2,49,-1
 438 837 l 1,50,-1
 427 816 l 1,40,-1
EndSplineSet
EndChar
StartChar: Atilde
Encoding: 195 195 13
Width: 744
Flags: W
LayerCount: 2
Back
Fore
SplineSet
461 283 m 1,0,-1
 219 283 l 1,1,-1
 165 132 l 2,2,3
 154 101 154 101 154 85 c 0,4,5
 154 58 154 58 180 44.5 c 128,-1,6
 206 31 206 31 257 23 c 1,7,-1
 257 0 l 1,8,-1
 -24 0 l 1,9,-1
 -24 23 l 1,10,11
 16 29 16 29 40 37 c 128,-1,12
 64 45 64 45 79 58 c 128,-1,13
 94 71 94 71 103 89.5 c 128,-1,14
 112 108 112 108 121 134 c 2,15,-1
 315 677 l 1,16,-1
 289 736 l 1,17,-1
 387 790 l 1,18,-1
 651 84 l 2,19,20
 657 67 657 67 664 56 c 128,-1,21
 671 45 671 45 682 38 c 128,-1,22
 693 31 693 31 710 28 c 128,-1,23
 727 25 727 25 753 23 c 1,24,-1
 753 0 l 1,25,-1
 435 0 l 1,26,-1
 435 23 l 1,27,28
 469 24 469 24 489.5 26.5 c 128,-1,29
 510 29 510 29 521 33 c 128,-1,30
 532 37 532 37 535 42.5 c 128,-1,31
 538 48 538 48 538 56 c 0,32,33
 538 63 538 63 536 72.5 c 128,-1,34
 534 82 534 82 527 100 c 2,35,-1
 461 283 l 1,0,-1
337 614 m 1,36,-1
 233 323 l 1,37,-1
 446 323 l 1,38,-1
 341 614 l 1,39,-1
 337 614 l 1,36,-1
200 843 m 1,40,41
 200 894 200 894 223.5 925.5 c 128,-1,42
 247 957 247 957 284 957 c 0,43,44
 301 957 301 957 320 951.5 c 128,-1,45
 339 946 339 946 358.5 939.5 c 128,-1,46
 378 933 378 933 397 927.5 c 128,-1,47
 416 922 416 922 433 922 c 0,48,49
 475 922 475 922 483 960 c 1,50,-1
 507 960 l 1,51,52
 507 908 507 908 483.5 875 c 128,-1,53
 460 842 460 842 423 842 c 0,54,55
 405 842 405 842 386.5 848 c 128,-1,56
 368 854 368 854 349 861.5 c 128,-1,57
 330 869 330 869 311.5 875 c 128,-1,58
 293 881 293 881 275 881 c 0,59,60
 229 881 229 881 224 843 c 1,61,-1
 200 843 l 1,40,41
EndSplineSet
EndChar
StartChar: AE
Encoding: 198 198 16
Width: 1029
Flags: W
LayerCount: 2
Back
Fore
SplineSet
-22 23 m 1,0,1
 18 29 18 29 44.5 37 c 128,-1,2
 71 45 71 45 89 57.5 c 128,-1,3
 107 70 107 70 120 88.5 c 128,-1,4
 133 107 133 107 147 134 c 2,5,-1
 461 730 l 1,6,-1
 376 747 l 1,7,-1
 376 770 l 1,8,-1
 942 770 l 1,9,-1
 959 550 l 1,10,-1
 935 550 l 1,11,12
 923 593 923 593 905.5 640 c 128,-1,13
 888 687 888 687 863 730 c 1,14,-1
 576 730 l 1,15,-1
 576 407 l 1,16,-1
 755 407 l 1,17,18
 769 437 769 437 778 467 c 128,-1,19
 787 497 787 497 792 527 c 1,20,-1
 816 527 l 1,21,-1
 816 247 l 1,22,-1
 792 247 l 1,23,24
 783 309 783 309 755 367 c 1,25,-1
 576 367 l 1,26,-1
 576 40 l 1,27,-1
 858 40 l 1,28,29
 888 89 888 89 906.5 137 c 128,-1,30
 925 185 925 185 942 234 c 1,31,-1
 975 234 l 1,32,-1
 938 0 l 1,33,-1
 386 0 l 1,34,-1
 386 23 l 1,35,-1
 471 42 l 1,36,-1
 471 292 l 1,37,-1
 273 292 l 1,38,-1
 190 132 l 2,39,40
 169 93 169 93 169 72 c 256,41,42
 169 51 169 51 190 41 c 128,-1,43
 211 31 211 31 258 23 c 1,44,-1
 258 0 l 1,45,-1
 -22 0 l 1,46,-1
 -22 23 l 1,0,1
470 332 m 1,47,-1
 470 667 l 1,48,-1
 466 667 l 1,49,-1
 294 332 l 1,50,-1
 470 332 l 1,47,-1
EndSplineSet
EndChar
StartChar: Ccedilla
Encoding: 199 199 19
Width: 774
Flags: W
LayerCount: 2
Back
Fore
SplineSet
337 -203 m 1,0,1
 354 -213 354 -213 366 -216.5 c 128,-1,2
 378 -220 378 -220 393 -220 c 0,3,4
 423 -220 423 -220 440.5 -205.5 c 128,-1,5
 458 -191 458 -191 458 -168 c 0,6,7
 458 -125 458 -125 410 -125 c 0,8,9
 385 -125 385 -125 359 -133 c 1,10,-1
 350 -124 l 1,11,-1
 399 -9 l 1,12,13
 322 -6 322 -6 259 24 c 128,-1,14
 196 54 196 54 151 105 c 128,-1,15
 106 156 106 156 81 226 c 128,-1,16
 56 296 56 296 56 380 c 0,17,18
 56 468 56 468 83 541.5 c 128,-1,19
 110 615 110 615 158.5 668 c 128,-1,20
 207 721 207 721 274.5 750.5 c 128,-1,21
 342 780 342 780 422 780 c 0,22,23
 481 780 481 780 536.5 764 c 128,-1,24
 592 748 592 748 637 719 c 1,25,-1
 641 719 l 1,26,-1
 690 770 l 1,27,-1
 708 770 l 1,28,-1
 708 540 l 1,29,-1
 678 540 l 1,30,31
 669 567 669 567 658.5 589 c 128,-1,32
 648 611 648 611 637 630 c 0,33,34
 602 687 602 687 554 711.5 c 128,-1,35
 506 736 506 736 439 736 c 0,36,37
 314 736 314 736 248 645.5 c 128,-1,38
 182 555 182 555 182 387 c 256,39,40
 182 219 182 219 249 127 c 128,-1,41
 316 35 316 35 440 35 c 0,42,43
 500 35 500 35 548 58.5 c 128,-1,44
 596 82 596 82 628 129 c 0,45,46
 666 182 666 182 681 262 c 1,47,-1
 708 262 l 1,48,-1
 708 0 l 1,49,-1
 684 0 l 1,50,-1
 638 66 l 1,51,52
 588 29 588 29 540 11 c 128,-1,53
 492 -7 492 -7 436 -9 c 1,54,-1
 418 -58 l 1,55,56
 472 -58 472 -58 502.5 -86 c 128,-1,57
 533 -114 533 -114 533 -156 c 0,58,59
 533 -200 533 -200 497.5 -228.5 c 128,-1,60
 462 -257 462 -257 401 -257 c 0,61,62
 378 -257 378 -257 357 -250.5 c 128,-1,63
 336 -244 336 -244 323 -233 c 1,64,-1
 337 -203 l 1,0,1
EndSplineSet
EndChar
StartChar: Egrave
Encoding: 200 200 34
Width: 692
Flags: W
LayerCount: 2
Back
Fore
SplineSet
239 730 m 1,0,-1
 239 426 l 1,1,-1
 418 426 l 1,2,3
 432 456 432 456 441 486 c 128,-1,4
 450 516 450 516 455 546 c 1,5,-1
 479 546 l 1,6,-1
 479 266 l 1,7,-1
 455 266 l 1,8,9
 446 328 446 328 418 386 c 1,10,-1
 239 386 l 1,11,-1
 239 40 l 1,12,-1
 521 40 l 1,13,14
 551 89 551 89 569.5 137 c 128,-1,15
 588 185 588 185 605 234 c 1,16,-1
 638 234 l 1,17,-1
 601 0 l 1,18,-1
 49 0 l 1,19,-1
 49 23 l 1,20,-1
 134 42 l 1,21,-1
 134 728 l 1,22,-1
 49 747 l 1,23,-1
 49 770 l 1,24,-1
 605 770 l 1,25,-1
 622 550 l 1,26,-1
 598 550 l 1,27,28
 586 593 586 593 568.5 640 c 128,-1,29
 551 687 551 687 526 730 c 1,30,-1
 239 730 l 1,0,-1
441 816 m 1,31,-1
 289 860 l 2,32,33
 250 871 250 871 235.5 885.5 c 128,-1,34
 221 900 221 900 221 917 c 0,35,36
 221 936 221 936 234 948 c 128,-1,37
 247 960 247 960 264 960 c 0,38,39
 286 960 286 960 308 944 c 2,40,-1
 452 837 l 1,41,-1
 441 816 l 1,31,-1
EndSplineSet
EndChar
StartChar: Edieresis
Encoding: 203 203 31
Width: 692
Flags: W
LayerCount: 2
Back
Fore
SplineSet
239 730 m 1,0,-1
 239 426 l 1,1,-1
 418 426 l 1,2,3
 432 456 432 456 441 486 c 128,-1,4
 450 516 450 516 455 546 c 1,5,-1
 479 546 l 1,6,-1
 479 266 l 1,7,-1
 455 266 l 1,8,9
 446 328 446 328 418 386 c 1,10,-1
 239 386 l 1,11,-1
 239 40 l 1,12,-1
 521 40 l 1,13,14
 551 89 551 89 569.5 137 c 128,-1,15
 588 185 588 185 605 234 c 1,16,-1
 638 234 l 1,17,-1
 601 0 l 1,18,-1
 49 0 l 1,19,-1
 49 23 l 1,20,-1
 134 42 l 1,21,-1
 134 728 l 1,22,-1
 49 747 l 1,23,-1
 49 770 l 1,24,-1
 605 770 l 1,25,-1
 622 550 l 1,26,-1
 598 550 l 1,27,28
 586 593 586 593 568.5 640 c 128,-1,29
 551 687 551 687 526 730 c 1,30,-1
 239 730 l 1,0,-1
208 885 m 0,31,32
 208 909 208 909 223 924.5 c 128,-1,33
 238 940 238 940 263 940 c 0,34,35
 289 940 289 940 303.5 924.5 c 128,-1,36
 318 909 318 909 318 885 c 0,37,38
 318 862 318 862 303.5 846 c 128,-1,39
 289 830 289 830 263 830 c 0,40,41
 238 830 238 830 223 846 c 128,-1,42
 208 862 208 862 208 885 c 0,31,32
395 885 m 0,43,44
 395 909 395 909 410 924.5 c 128,-1,45
 425 940 425 940 450 940 c 0,46,47
 476 940 476 940 490.5 924.5 c 128,-1,48
 505 909 505 909 505 885 c 0,49,50
 505 862 505 862 490.5 846 c 128,-1,51
 476 830 476 830 450 830 c 0,52,53
 425 830 425 830 410 846 c 128,-1,54
 395 862 395 862 395 885 c 0,43,44
EndSplineSet
EndChar
StartChar: Igrave
Encoding: 204 204 60
Width: 374
Flags: W
LayerCount: 2
Back
Fore
SplineSet
135 728 m 1,0,-1
 45 747 l 1,1,-1
 45 770 l 1,2,-1
 329 770 l 1,3,-1
 329 747 l 1,4,-1
 240 728 l 1,5,-1
 240 42 l 1,6,-1
 329 23 l 1,7,-1
 329 0 l 1,8,-1
 45 0 l 1,9,-1
 45 23 l 1,10,-1
 135 42 l 1,11,-1
 135 728 l 1,0,-1
293 816 m 1,12,-1
 141 860 l 2,13,14
 102 871 102 871 87.5 885.5 c 128,-1,15
 73 900 73 900 73 917 c 0,16,17
 73 936 73 936 86 948 c 128,-1,18
 99 960 99 960 116 960 c 0,19,20
 138 960 138 960 160 944 c 2,21,-1
 304 837 l 1,22,-1
 293 816 l 1,12,-1
EndSplineSet
EndChar
StartChar: Iacute
Encoding: 205 205 54
Width: 374
Flags: W
LayerCount: 2
Back
Fore
SplineSet
135 728 m 1,0,-1
 45 747 l 1,1,-1
 45 770 l 1,2,-1
 329 770 l 1,3,-1
 329 747 l 1,4,-1
 240 728 l 1,5,-1
 240 42 l 1,6,-1
 329 23 l 1,7,-1
 329 0 l 1,8,-1
 45 0 l 1,9,-1
 45 23 l 1,10,-1
 135 42 l 1,11,-1
 135 728 l 1,0,-1
74 847 m 1,12,-1
 218 954 l 2,13,14
 240 970 240 970 262 970 c 0,15,16
 279 970 279 970 292 958 c 128,-1,17
 305 946 305 946 305 927 c 0,18,19
 305 910 305 910 290.5 895.5 c 128,-1,20
 276 881 276 881 237 870 c 2,21,-1
 85 826 l 1,22,-1
 74 847 l 1,12,-1
EndSplineSet
EndChar
StartChar: Icircumflex
Encoding: 206 206 56
Width: 374
Flags: W
LayerCount: 2
Back
Fore
SplineSet
135 728 m 1,0,-1
 45 747 l 1,1,-1
 45 770 l 1,2,-1
 329 770 l 1,3,-1
 329 747 l 1,4,-1
 240 728 l 1,5,-1
 240 42 l 1,6,-1
 329 23 l 1,7,-1
 329 0 l 1,8,-1
 45 0 l 1,9,-1
 45 23 l 1,10,-1
 135 42 l 1,11,-1
 135 728 l 1,0,-1
188 961 m 0,12,13
 205 961 205 961 217 954.5 c 128,-1,14
 229 948 229 948 243 934 c 2,15,-1
 336 838 l 1,16,-1
 317 821 l 1,17,-1
 188 879 l 1,18,-1
 61 821 l 1,19,-1
 41 838 l 1,20,-1
 135 934 l 2,21,22
 148 947 148 947 158.5 954 c 128,-1,23
 169 961 169 961 188 961 c 0,12,13
EndSplineSet
EndChar
StartChar: Idieresis
Encoding: 207 207 57
Width: 374
Flags: W
LayerCount: 2
Back
Fore
SplineSet
135 728 m 1,0,-1
 45 747 l 1,1,-1
 45 770 l 1,2,-1
 329 770 l 1,3,-1
 329 747 l 1,4,-1
 240 728 l 1,5,-1
 240 42 l 1,6,-1
 329 23 l 1,7,-1
 329 0 l 1,8,-1
 45 0 l 1,9,-1
 45 23 l 1,10,-1
 135 42 l 1,11,-1
 135 728 l 1,0,-1
40 912 m 0,12,13
 40 936 40 936 55 951.5 c 128,-1,14
 70 967 70 967 95 967 c 0,15,16
 121 967 121 967 135.5 951.5 c 128,-1,17
 150 936 150 936 150 912 c 0,18,19
 150 889 150 889 135.5 873 c 128,-1,20
 121 857 121 857 95 857 c 0,21,22
 70 857 70 857 55 873 c 128,-1,23
 40 889 40 889 40 912 c 0,12,13
227 912 m 0,24,25
 227 936 227 936 242 951.5 c 128,-1,26
 257 967 257 967 282 967 c 0,27,28
 308 967 308 967 322.5 951.5 c 128,-1,29
 337 936 337 936 337 912 c 0,30,31
 337 889 337 889 322.5 873 c 128,-1,32
 308 857 308 857 282 857 c 0,33,34
 257 857 257 857 242 873 c 128,-1,35
 227 889 227 889 227 912 c 0,24,25
EndSplineSet
EndChar
StartChar: Ntilde
Encoding: 209 209 81
Width: 828
Flags: W
LayerCount: 2
Back
Fore
SplineSet
699 -20 m 1,0,-1
 668 -20 l 1,1,-1
 175 667 l 1,2,-1
 175 42 l 1,3,-1
 264 23 l 1,4,-1
 264 0 l 1,5,-1
 45 0 l 1,6,-1
 45 23 l 1,7,-1
 135 42 l 1,8,-1
 135 728 l 1,9,-1
 45 747 l 1,10,-1
 45 770 l 1,11,-1
 247 770 l 1,12,-1
 659 204 l 1,13,-1
 659 728 l 1,14,-1
 570 747 l 1,15,-1
 570 770 l 1,16,-1
 789 770 l 1,17,-1
 789 747 l 1,18,-1
 699 728 l 1,19,-1
 699 -20 l 1,0,-1
273 843 m 1,20,21
 273 894 273 894 296.5 925.5 c 128,-1,22
 320 957 320 957 357 957 c 0,23,24
 374 957 374 957 393 951.5 c 128,-1,25
 412 946 412 946 431.5 939.5 c 128,-1,26
 451 933 451 933 470 927.5 c 128,-1,27
 489 922 489 922 506 922 c 0,28,29
 548 922 548 922 556 960 c 1,30,-1
 580 960 l 1,31,32
 580 908 580 908 556.5 875 c 128,-1,33
 533 842 533 842 496 842 c 0,34,35
 478 842 478 842 459.5 848 c 128,-1,36
 441 854 441 854 422 861.5 c 128,-1,37
 403 869 403 869 384.5 875 c 128,-1,38
 366 881 366 881 348 881 c 0,39,40
 302 881 302 881 297 843 c 1,41,-1
 273 843 l 1,20,21
EndSplineSet
EndChar
StartChar: Ograve
Encoding: 210 210 89
Width: 836
Flags: W
LayerCount: 2
Back
Fore
SplineSet
418 780 m 256,0,1
 496 780 496 780 562 750 c 128,-1,2
 628 720 628 720 677 667 c 128,-1,3
 726 614 726 614 753.5 541.5 c 128,-1,4
 781 469 781 469 781 385 c 256,5,6
 781 301 781 301 753.5 228.5 c 128,-1,7
 726 156 726 156 677 103 c 128,-1,8
 628 50 628 50 562 20 c 128,-1,9
 496 -10 496 -10 418 -10 c 256,10,11
 340 -10 340 -10 274 20 c 128,-1,12
 208 50 208 50 159 103 c 128,-1,13
 110 156 110 156 82.5 228.5 c 128,-1,14
 55 301 55 301 55 385 c 256,15,16
 55 469 55 469 82.5 541.5 c 128,-1,17
 110 614 110 614 159 667 c 128,-1,18
 208 720 208 720 274 750 c 128,-1,19
 340 780 340 780 418 780 c 256,0,1
181 386 m 256,20,21
 181 304 181 304 197 239 c 128,-1,22
 213 174 213 174 244 128.5 c 128,-1,23
 275 83 275 83 318.5 59 c 128,-1,24
 362 35 362 35 418 35 c 0,25,26
 473 35 473 35 517 59 c 128,-1,27
 561 83 561 83 592 128.5 c 128,-1,28
 623 174 623 174 639 239.5 c 128,-1,29
 655 305 655 305 655 388 c 0,30,31
 655 470 655 470 639 534.5 c 128,-1,32
 623 599 623 599 592.5 643.5 c 128,-1,33
 562 688 562 688 518 711.5 c 128,-1,34
 474 735 474 735 419 735 c 0,35,36
 363 735 363 735 319 711.5 c 128,-1,37
 275 688 275 688 244 643 c 128,-1,38
 213 598 213 598 197 533 c 128,-1,39
 181 468 181 468 181 386 c 256,20,21
518 816 m 1,40,-1
 366 860 l 2,41,42
 327 871 327 871 312.5 885.5 c 128,-1,43
 298 900 298 900 298 917 c 0,44,45
 298 936 298 936 311 948 c 128,-1,46
 324 960 324 960 341 960 c 0,47,48
 363 960 363 960 385 944 c 2,49,-1
 529 837 l 1,50,-1
 518 816 l 1,40,-1
EndSplineSet
EndChar
StartChar: Otilde
Encoding: 213 213 95
Width: 836
Flags: W
LayerCount: 2
Back
Fore
SplineSet
418 780 m 256,0,1
 496 780 496 780 562 750 c 128,-1,2
 628 720 628 720 677 667 c 128,-1,3
 726 614 726 614 753.5 541.5 c 128,-1,4
 781 469 781 469 781 385 c 256,5,6
 781 301 781 301 753.5 228.5 c 128,-1,7
 726 156 726 156 677 103 c 128,-1,8
 628 50 628 50 562 20 c 128,-1,9
 496 -10 496 -10 418 -10 c 256,10,11
 340 -10 340 -10 274 20 c 128,-1,12
 208 50 208 50 159 103 c 128,-1,13
 110 156 110 156 82.5 228.5 c 128,-1,14
 55 301 55 301 55 385 c 256,15,16
 55 469 55 469 82.5 541.5 c 128,-1,17
 110 614 110 614 159 667 c 128,-1,18
 208 720 208 720 274 750 c 128,-1,19
 340 780 340 780 418 780 c 256,0,1
181 386 m 256,20,21
 181 304 181 304 197 239 c 128,-1,22
 213 174 213 174 244 128.5 c 128,-1,23
 275 83 275 83 318.5 59 c 128,-1,24
 362 35 362 35 418 35 c 0,25,26
 473 35 473 35 517 59 c 128,-1,27
 561 83 561 83 592 128.5 c 128,-1,28
 623 174 623 174 639 239.5 c 128,-1,29
 655 305 655 305 655 388 c 0,30,31
 655 470 655 470 639 534.5 c 128,-1,32
 623 599 623 599 592.5 643.5 c 128,-1,33
 562 688 562 688 518 711.5 c 128,-1,34
 474 735 474 735 419 735 c 0,35,36
 363 735 363 735 319 711.5 c 128,-1,37
 275 688 275 688 244 643 c 128,-1,38
 213 598 213 598 197 533 c 128,-1,39
 181 468 181 468 181 386 c 256,20,21
273 843 m 1,40,41
 273 894 273 894 296.5 925.5 c 128,-1,42
 320 957 320 957 357 957 c 0,43,44
 374 957 374 957 393 951.5 c 128,-1,45
 412 946 412 946 431.5 939.5 c 128,-1,46
 451 933 451 933 470 927.5 c 128,-1,47
 489 922 489 922 506 922 c 0,48,49
 548 922 548 922 556 960 c 1,50,-1
 580 960 l 1,51,52
 580 908 580 908 556.5 875 c 128,-1,53
 533 842 533 842 496 842 c 0,54,55
 478 842 478 842 459.5 848 c 128,-1,56
 441 854 441 854 422 861.5 c 128,-1,57
 403 869 403 869 384.5 875 c 128,-1,58
 366 881 366 881 348 881 c 0,59,60
 302 881 302 881 297 843 c 1,61,-1
 273 843 l 1,40,41
EndSplineSet
EndChar
StartChar: Odieresis
Encoding: 214 214 87
Width: 836
Flags: W
LayerCount: 2
Back
Fore
SplineSet
418 780 m 256,0,1
 496 780 496 780 562 750 c 128,-1,2
 628 720 628 720 677 667 c 128,-1,3
 726 614 726 614 753.5 541.5 c 128,-1,4
 781 469 781 469 781 385 c 256,5,6
 781 301 781 301 753.5 228.5 c 128,-1,7
 726 156 726 156 677 103 c 128,-1,8
 628 50 628 50 562 20 c 128,-1,9
 496 -10 496 -10 418 -10 c 256,10,11
 340 -10 340 -10 274 20 c 128,-1,12
 208 50 208 50 159 103 c 128,-1,13
 110 156 110 156 82.5 228.5 c 128,-1,14
 55 301 55 301 55 385 c 256,15,16
 55 469 55 469 82.5 541.5 c 128,-1,17
 110 614 110 614 159 667 c 128,-1,18
 208 720 208 720 274 750 c 128,-1,19
 340 780 340 780 418 780 c 256,0,1
181 386 m 256,20,21
 181 304 181 304 197 239 c 128,-1,22
 213 174 213 174 244 128.5 c 128,-1,23
 275 83 275 83 318.5 59 c 128,-1,24
 362 35 362 35 418 35 c 0,25,26
 473 35 473 35 517 59 c 128,-1,27
 561 83 561 83 592 128.5 c 128,-1,28
 623 174 623 174 639 239.5 c 128,-1,29
 655 305 655 305 655 388 c 0,30,31
 655 470 655 470 639 534.5 c 128,-1,32
 623 599 623 599 592.5 643.5 c 128,-1,33
 562 688 562 688 518 711.5 c 128,-1,34
 474 735 474 735 419 735 c 0,35,36
 363 735 363 735 319 711.5 c 128,-1,37
 275 688 275 688 244 643 c 128,-1,38
 213 598 213 598 197 533 c 128,-1,39
 181 468 181 468 181 386 c 256,20,21
276 885 m 0,40,41
 276 909 276 909 291 924.5 c 128,-1,42
 306 940 306 940 331 940 c 0,43,44
 357 940 357 940 371.5 924.5 c 128,-1,45
 386 909 386 909 386 885 c 0,46,47
 386 862 386 862 371.5 846 c 128,-1,48
 357 830 357 830 331 830 c 0,49,50
 306 830 306 830 291 846 c 128,-1,51
 276 862 276 862 276 885 c 0,40,41
463 885 m 0,52,53
 463 909 463 909 478 924.5 c 128,-1,54
 493 940 493 940 518 940 c 0,55,56
 544 940 544 940 558.5 924.5 c 128,-1,57
 573 909 573 909 573 885 c 0,58,59
 573 862 573 862 558.5 846 c 128,-1,60
 544 830 544 830 518 830 c 0,61,62
 493 830 493 830 478 846 c 128,-1,63
 463 862 463 862 463 885 c 0,52,53
EndSplineSet
EndChar
StartChar: multiply
Encoding: 215 215 331
Width: 491
Flags: W
LayerCount: 2
Back
Fore
SplineSet
209 340 m 1,0,-1
 69 480 l 1,1,-1
 106 517 l 1,2,-1
 246 377 l 1,3,-1
 386 517 l 1,4,-1
 425 478 l 1,5,-1
 285 338 l 1,6,-1
 424 199 l 1,7,-1
 387 162 l 1,8,-1
 248 301 l 1,9,-1
 107 160 l 1,10,-1
 68 199 l 1,11,-1
 209 340 l 1,0,-1
EndSplineSet
Substitution2: "'tnum' Tabular Numbers in Latin lookup 3 subtable" multiply.tnum
EndChar
StartChar: Udieresis
Encoding: 220 220 118
Width: 774
Flags: W
LayerCount: 2
Back
Fore
SplineSet
228 227 m 2,0,1
 228 131 228 131 278.5 83 c 128,-1,2
 329 35 329 35 414 35 c 0,3,4
 468 35 468 35 508.5 50.5 c 128,-1,5
 549 66 549 66 572 97 c 0,6,7
 592 124 592 124 601 172 c 128,-1,8
 610 220 610 220 610 300 c 2,9,-1
 610 728 l 1,10,-1
 521 747 l 1,11,-1
 521 770 l 1,12,-1
 740 770 l 1,13,-1
 740 747 l 1,14,-1
 650 728 l 1,15,-1
 650 258 l 2,16,17
 650 195 650 195 641 152 c 128,-1,18
 632 109 632 109 612 80 c 0,19,20
 583 37 583 37 526 13.5 c 128,-1,21
 469 -10 469 -10 393 -10 c 0,22,23
 315 -10 315 -10 255 14 c 128,-1,24
 195 38 195 38 162 82 c 0,25,26
 142 108 142 108 132.5 144 c 128,-1,27
 123 180 123 180 123 242 c 2,28,-1
 123 728 l 1,29,-1
 33 747 l 1,30,-1
 33 770 l 1,31,-1
 317 770 l 1,32,-1
 317 747 l 1,33,-1
 228 728 l 1,34,-1
 228 227 l 2,0,1
278 885 m 0,35,36
 278 909 278 909 293 924.5 c 128,-1,37
 308 940 308 940 333 940 c 0,38,39
 359 940 359 940 373.5 924.5 c 128,-1,40
 388 909 388 909 388 885 c 0,41,42
 388 862 388 862 373.5 846 c 128,-1,43
 359 830 359 830 333 830 c 0,44,45
 308 830 308 830 293 846 c 128,-1,46
 278 862 278 862 278 885 c 0,35,36
465 885 m 0,47,48
 465 909 465 909 480 924.5 c 128,-1,49
 495 940 495 940 520 940 c 0,50,51
 546 940 546 940 560.5 924.5 c 128,-1,52
 575 909 575 909 575 885 c 0,53,54
 575 862 575 862 560.5 846 c 128,-1,55
 546 830 546 830 520 830 c 0,56,57
 495 830 495 830 480 846 c 128,-1,58
 465 862 465 862 465 885 c 0,47,48
EndSplineSet
EndChar
StartChar: Thorn
Encoding: 222 222 113
Width: 665
Flags: W
LayerCount: 2
Back
Fore
SplineSet
239 728 m 1,0,-1
 239 607 l 1,1,-1
 360 607 l 2,2,3
 419 607 419 607 468 592 c 128,-1,4
 517 577 517 577 552.5 548 c 128,-1,5
 588 519 588 519 607.5 476 c 128,-1,6
 627 433 627 433 627 378 c 0,7,8
 627 327 627 327 607.5 287.5 c 128,-1,9
 588 248 588 248 551.5 221 c 128,-1,10
 515 194 515 194 462.5 180.5 c 128,-1,11
 410 167 410 167 345 167 c 2,12,-1
 239 167 l 1,13,-1
 239 42 l 1,14,-1
 353 23 l 1,15,-1
 353 0 l 1,16,-1
 49 0 l 1,17,-1
 49 23 l 1,18,-1
 134 42 l 1,19,-1
 134 728 l 1,20,-1
 49 747 l 1,21,-1
 49 770 l 1,22,-1
 353 770 l 1,23,-1
 353 747 l 1,24,-1
 239 728 l 1,0,-1
239 206 m 1,25,-1
 314 206 l 2,26,27
 377 206 377 206 413.5 220 c 128,-1,28
 450 234 450 234 472 260 c 0,29,30
 495 286 495 286 503.5 319.5 c 128,-1,31
 512 353 512 353 512 388 c 0,32,33
 512 453 512 453 488 495.5 c 128,-1,34
 464 538 464 538 420 555 c 0,35,36
 403 562 403 562 382.5 564.5 c 128,-1,37
 362 567 362 567 331 567 c 2,38,-1
 239 567 l 1,39,-1
 239 206 l 1,25,-1
EndSplineSet
EndChar
StartChar: germandbls
Encoding: 223 223 284
Width: 694
Flags: W
LayerCount: 2
Back
Fore
SplineSet
38 510 m 1,0,-1
 114 510 l 1,1,2
 114 553 114 553 115 584 c 128,-1,3
 116 615 116 615 118 637 c 128,-1,4
 120 659 120 659 123.5 674.5 c 128,-1,5
 127 690 127 690 132 703 c 0,6,7
 156 762 156 762 217.5 796 c 128,-1,8
 279 830 279 830 360 830 c 0,9,10
 445 830 445 830 493 793.5 c 128,-1,11
 541 757 541 757 541 694 c 0,12,13
 541 652 541 652 522 618 c 128,-1,14
 503 584 503 584 480 553 c 128,-1,15
 457 522 457 522 438 492 c 128,-1,16
 419 462 419 462 419 428 c 0,17,18
 419 396 419 396 437.5 376 c 128,-1,19
 456 356 456 356 483.5 340.5 c 128,-1,20
 511 325 511 325 543.5 311 c 128,-1,21
 576 297 576 297 603.5 277.5 c 128,-1,22
 631 258 631 258 649.5 228 c 128,-1,23
 668 198 668 198 668 152 c 0,24,25
 668 77 668 77 618.5 33.5 c 128,-1,26
 569 -10 569 -10 484 -10 c 0,27,28
 452 -10 452 -10 413.5 -4 c 128,-1,29
 375 2 375 2 346 12 c 1,30,-1
 340 174 l 1,31,-1
 364 174 l 1,32,33
 376 20 376 20 491 20 c 0,34,35
 537 20 537 20 564 44.5 c 128,-1,36
 591 69 591 69 591 111 c 0,37,38
 591 146 591 146 572.5 168.5 c 128,-1,39
 554 191 554 191 526 208 c 128,-1,40
 498 225 498 225 465.5 239.5 c 128,-1,41
 433 254 433 254 405 273 c 128,-1,42
 377 292 377 292 358.5 319 c 128,-1,43
 340 346 340 346 340 388 c 256,44,45
 340 430 340 430 358 465 c 128,-1,46
 376 500 376 500 397.5 533.5 c 128,-1,47
 419 567 419 567 437 602 c 128,-1,48
 455 637 455 637 455 678 c 0,49,50
 455 731 455 731 423.5 762.5 c 128,-1,51
 392 794 392 794 341 794 c 0,52,53
 276 794 276 794 242.5 741 c 128,-1,54
 209 688 209 688 209 585 c 2,55,-1
 209 34 l 1,56,-1
 295 19 l 1,57,-1
 295 0 l 1,58,-1
 39 0 l 1,59,-1
 39 19 l 1,60,-1
 114 34 l 1,61,-1
 114 478 l 1,62,-1
 26 478 l 1,63,-1
 38 510 l 1,0,-1
EndSplineSet
EndChar
StartChar: acircumflex
Encoding: 226 226 147
Width: 525
Flags: W
LayerCount: 2
Back
Fore
SplineSet
169 -10 m 0,0,1
 115 -10 115 -10 82 24 c 128,-1,2
 49 58 49 58 49 112 c 0,3,4
 49 145 49 145 63.5 170.5 c 128,-1,5
 78 196 78 196 110.5 217 c 128,-1,6
 143 238 143 238 195.5 255.5 c 128,-1,7
 248 273 248 273 323 289 c 1,8,-1
 323 387 l 2,9,10
 323 450 323 450 305 476 c 128,-1,11
 287 502 287 502 243 502 c 0,12,13
 200 502 200 502 175 481.5 c 128,-1,14
 150 461 150 461 150 426 c 0,15,16
 150 418 150 418 151 408.5 c 128,-1,17
 152 399 152 399 152 391 c 0,18,19
 152 365 152 365 137.5 349 c 128,-1,20
 123 333 123 333 100 333 c 0,21,22
 80 333 80 333 67 346 c 128,-1,23
 54 359 54 359 54 381 c 0,24,25
 54 414 54 414 83.5 449 c 128,-1,26
 113 484 113 484 162 509 c 0,27,28
 222 540 222 540 289 540 c 0,29,30
 332 540 332 540 362 526.5 c 128,-1,31
 392 513 392 513 405 487 c 0,32,33
 409 478 409 478 411.5 468.5 c 128,-1,34
 414 459 414 459 415.5 444.5 c 128,-1,35
 417 430 417 430 417.5 408.5 c 128,-1,36
 418 387 418 387 418 356 c 2,37,-1
 418 127 l 2,38,39
 418 77 418 77 425.5 60 c 128,-1,40
 433 43 433 43 455 43 c 0,41,42
 469 43 469 43 480 49.5 c 128,-1,43
 491 56 491 56 504 72 c 1,44,-1
 521 57 l 1,45,46
 498 21 498 21 473.5 5.5 c 128,-1,47
 449 -10 449 -10 417 -10 c 0,48,49
 338 -10 338 -10 328 80 c 1,50,-1
 325 82 l 1,51,52
 296 39 296 39 254.5 14.5 c 128,-1,53
 213 -10 213 -10 169 -10 c 0,0,1
213 49 m 0,54,55
 245 49 245 49 274 66.5 c 128,-1,56
 303 84 303 84 323 116 c 1,57,-1
 323 260 l 1,58,59
 270 249 270 249 234.5 238 c 128,-1,60
 199 227 199 227 177.5 212 c 128,-1,61
 156 197 156 197 147 178 c 128,-1,62
 138 159 138 159 138 133 c 0,63,64
 138 92 138 92 157.5 70.5 c 128,-1,65
 177 49 177 49 213 49 c 0,54,55
281 857 m 0,66,67
 298 857 298 857 307 849.5 c 128,-1,68
 316 842 316 842 323 828 c 2,69,-1
 407 640 l 1,70,-1
 385 628 l 1,71,-1
 277 769 l 1,72,-1
 171 628 l 1,73,-1
 151 640 l 1,74,-1
 235 828 l 2,75,76
 241 842 241 842 251.5 849.5 c 128,-1,77
 262 857 262 857 281 857 c 0,66,67
EndSplineSet
EndChar
StartChar: ccedilla
Encoding: 231 231 184
Width: 535
Flags: W
LayerCount: 2
Back
Fore
SplineSet
209 -203 m 1,0,1
 226 -213 226 -213 238 -216.5 c 128,-1,2
 250 -220 250 -220 265 -220 c 0,3,4
 295 -220 295 -220 312.5 -205.5 c 128,-1,5
 330 -191 330 -191 330 -168 c 0,6,7
 330 -125 330 -125 282 -125 c 0,8,9
 257 -125 257 -125 231 -133 c 1,10,-1
 222 -124 l 1,11,-1
 271 -9 l 1,12,13
 221 -6 221 -6 179.5 15 c 128,-1,14
 138 36 138 36 108.5 71 c 128,-1,15
 79 106 79 106 62.5 153.5 c 128,-1,16
 46 201 46 201 46 258 c 0,17,18
 46 320 46 320 65.5 371.5 c 128,-1,19
 85 423 85 423 120.5 460.5 c 128,-1,20
 156 498 156 498 204.5 519 c 128,-1,21
 253 540 253 540 312 540 c 0,22,23
 350 540 350 540 383 530.5 c 128,-1,24
 416 521 416 521 440 505 c 128,-1,25
 464 489 464 489 478 467.5 c 128,-1,26
 492 446 492 446 492 422 c 0,27,28
 492 396 492 396 480 380.5 c 128,-1,29
 468 365 468 365 446 365 c 0,30,31
 394 365 394 365 387 428 c 0,32,33
 384 453 384 453 378.5 468.5 c 128,-1,34
 373 484 373 484 364.5 493 c 128,-1,35
 356 502 356 502 344 505 c 128,-1,36
 332 508 332 508 315 508 c 0,37,38
 235 508 235 508 191.5 445.5 c 128,-1,39
 148 383 148 383 148 278 c 0,40,41
 148 175 148 175 193 119 c 128,-1,42
 238 63 238 63 320 63 c 0,43,44
 365 63 365 63 404.5 81 c 128,-1,45
 444 99 444 99 471 136 c 2,46,-1
 482 151 l 1,47,-1
 501 141 l 1,48,-1
 496 128 l 2,49,50
 472 66 472 66 423.5 31 c 128,-1,51
 375 -4 375 -4 309 -9 c 1,52,-1
 290 -58 l 1,53,54
 344 -58 344 -58 374.5 -86 c 128,-1,55
 405 -114 405 -114 405 -156 c 0,56,57
 405 -200 405 -200 369.5 -228.5 c 128,-1,58
 334 -257 334 -257 273 -257 c 0,59,60
 250 -257 250 -257 229 -250.5 c 128,-1,61
 208 -244 208 -244 195 -233 c 1,62,-1
 209 -203 l 1,0,1
EndSplineSet
EndChar
StartChar: eacute
Encoding: 233 233 219
Width: 560
Flags: W
LayerCount: 2
Back
Fore
SplineSet
512 308 m 1,0,-1
 147 308 l 1,1,-1
 147 285 l 2,2,3
 147 175 147 175 190.5 119 c 128,-1,4
 234 63 234 63 320 63 c 0,5,6
 369 63 369 63 411 80.5 c 128,-1,7
 453 98 453 98 479 130 c 2,8,-1
 491 145 l 1,9,-1
 508 135 l 1,10,-1
 502 121 l 2,11,12
 476 60 476 60 418.5 25 c 128,-1,13
 361 -10 361 -10 287 -10 c 0,14,15
 233 -10 233 -10 189 9.5 c 128,-1,16
 145 29 145 29 113.5 64 c 128,-1,17
 82 99 82 99 64.5 148 c 128,-1,18
 47 197 47 197 47 257 c 0,19,20
 47 320 47 320 66.5 372 c 128,-1,21
 86 424 86 424 121 461.5 c 128,-1,22
 156 499 156 499 205 519.5 c 128,-1,23
 254 540 254 540 314 540 c 0,24,25
 413 540 413 540 465 483 c 128,-1,26
 517 426 517 426 519 314 c 1,27,-1
 512 308 l 1,0,-1
305 509 m 0,28,29
 239 509 239 509 199 464.5 c 128,-1,30
 159 420 159 420 149 336 c 1,31,-1
 411 345 l 1,32,33
 413 351 413 351 413.5 362.5 c 128,-1,34
 414 374 414 374 414 386 c 0,35,36
 414 509 414 509 305 509 c 0,28,29
245 642 m 1,37,-1
 301 812 l 2,38,39
 309 834 309 834 321.5 846.5 c 128,-1,40
 334 859 334 859 356 859 c 0,41,42
 372 859 372 859 383.5 847 c 128,-1,43
 395 835 395 835 395 816 c 0,44,45
 395 803 395 803 388.5 789 c 128,-1,46
 382 775 382 775 365 755 c 2,47,-1
 266 631 l 1,48,-1
 245 642 l 1,37,-1
EndSplineSet
EndChar
StartChar: ecircumflex
Encoding: 234 234 222
Width: 560
Flags: W
LayerCount: 2
Back
Fore
SplineSet
512 308 m 1,0,-1
 147 308 l 1,1,-1
 147 285 l 2,2,3
 147 175 147 175 190.5 119 c 128,-1,4
 234 63 234 63 320 63 c 0,5,6
 369 63 369 63 411 80.5 c 128,-1,7
 453 98 453 98 479 130 c 2,8,-1
 491 145 l 1,9,-1
 508 135 l 1,10,-1
 502 121 l 2,11,12
 476 60 476 60 418.5 25 c 128,-1,13
 361 -10 361 -10 287 -10 c 0,14,15
 233 -10 233 -10 189 9.5 c 128,-1,16
 145 29 145 29 113.5 64 c 128,-1,17
 82 99 82 99 64.5 148 c 128,-1,18
 47 197 47 197 47 257 c 0,19,20
 47 320 47 320 66.5 372 c 128,-1,21
 86 424 86 424 121 461.5 c 128,-1,22
 156 499 156 499 205 519.5 c 128,-1,23
 254 540 254 540 314 540 c 0,24,25
 413 540 413 540 465 483 c 128,-1,26
 517 426 517 426 519 314 c 1,27,-1
 512 308 l 1,0,-1
305 509 m 0,28,29
 239 509 239 509 199 464.5 c 128,-1,30
 159 420 159 420 149 336 c 1,31,-1
 411 345 l 1,32,33
 413 351 413 351 413.5 362.5 c 128,-1,34
 414 374 414 374 414 386 c 0,35,36
 414 509 414 509 305 509 c 0,28,29
321 857 m 0,37,38
 338 857 338 857 347 849.5 c 128,-1,39
 356 842 356 842 363 828 c 2,40,-1
 447 640 l 1,41,-1
 425 628 l 1,42,-1
 317 769 l 1,43,-1
 211 628 l 1,44,-1
 191 640 l 1,45,-1
 275 828 l 2,46,47
 281 842 281 842 291.5 849.5 c 128,-1,48
 302 857 302 857 321 857 c 0,37,38
EndSplineSet
EndChar
StartChar: edieresis
Encoding: 235 235 223
Width: 560
Flags: W
LayerCount: 2
Back
Fore
SplineSet
512 308 m 1,0,-1
 147 308 l 1,1,-1
 147 285 l 2,2,3
 147 175 147 175 190.5 119 c 128,-1,4
 234 63 234 63 320 63 c 0,5,6
 369 63 369 63 411 80.5 c 128,-1,7
 453 98 453 98 479 130 c 2,8,-1
 491 145 l 1,9,-1
 508 135 l 1,10,-1
 502 121 l 2,11,12
 476 60 476 60 418.5 25 c 128,-1,13
 361 -10 361 -10 287 -10 c 0,14,15
 233 -10 233 -10 189 9.5 c 128,-1,16
 145 29 145 29 113.5 64 c 128,-1,17
 82 99 82 99 64.5 148 c 128,-1,18
 47 197 47 197 47 257 c 0,19,20
 47 320 47 320 66.5 372 c 128,-1,21
 86 424 86 424 121 461.5 c 128,-1,22
 156 499 156 499 205 519.5 c 128,-1,23
 254 540 254 540 314 540 c 0,24,25
 413 540 413 540 465 483 c 128,-1,26
 517 426 517 426 519 314 c 1,27,-1
 512 308 l 1,0,-1
305 509 m 0,28,29
 239 509 239 509 199 464.5 c 128,-1,30
 159 420 159 420 149 336 c 1,31,-1
 411 345 l 1,32,33
 413 351 413 351 413.5 362.5 c 128,-1,34
 414 374 414 374 414 386 c 0,35,36
 414 509 414 509 305 509 c 0,28,29
163 725 m 0,37,38
 163 749 163 749 178 764.5 c 128,-1,39
 193 780 193 780 218 780 c 0,40,41
 244 780 244 780 258.5 764.5 c 128,-1,42
 273 749 273 749 273 725 c 0,43,44
 273 702 273 702 258.5 686 c 128,-1,45
 244 670 244 670 218 670 c 0,46,47
 193 670 193 670 178 686 c 128,-1,48
 163 702 163 702 163 725 c 0,37,38
350 725 m 0,49,50
 350 749 350 749 365 764.5 c 128,-1,51
 380 780 380 780 405 780 c 0,52,53
 431 780 431 780 445.5 764.5 c 128,-1,54
 460 749 460 749 460 725 c 0,55,56
 460 702 460 702 445.5 686 c 128,-1,57
 431 670 431 670 405 670 c 0,58,59
 380 670 380 670 365 686 c 128,-1,60
 350 702 350 702 350 725 c 0,49,50
EndSplineSet
EndChar
StartChar: igrave
Encoding: 236 236 306
Width: 300
Flags: W
LayerCount: 2
Back
Fore
SplineSet
277 20 m 1,0,-1
 277 0 l 1,1,-1
 31 0 l 1,2,-1
 31 20 l 1,3,-1
 107 35 l 1,4,-1
 107 451 l 1,5,-1
 33 478 l 1,6,-1
 33 492 l 1,7,-1
 193 540 l 1,8,-1
 202 540 l 1,9,-1
 202 35 l 1,10,-1
 277 20 l 1,0,-1
176 631 m 1,11,-1
 77 755 l 2,12,13
 60 775 60 775 53.5 789 c 128,-1,14
 47 803 47 803 47 816 c 0,15,16
 47 835 47 835 58.5 847 c 128,-1,17
 70 859 70 859 86 859 c 0,18,19
 108 859 108 859 120.5 846.5 c 128,-1,20
 133 834 133 834 141 812 c 2,21,-1
 197 642 l 1,22,-1
 176 631 l 1,11,-1
EndSplineSet
EndChar
StartChar: iacute
Encoding: 237 237 301
Width: 300
Flags: W
LayerCount: 2
Back
Fore
SplineSet
277 20 m 1,0,-1
 277 0 l 1,1,-1
 31 0 l 1,2,-1
 31 20 l 1,3,-1
 107 35 l 1,4,-1
 107 451 l 1,5,-1
 33 478 l 1,6,-1
 33 492 l 1,7,-1
 193 540 l 1,8,-1
 202 540 l 1,9,-1
 202 35 l 1,10,-1
 277 20 l 1,0,-1
84 642 m 1,11,-1
 140 812 l 2,12,13
 148 834 148 834 160.5 846.5 c 128,-1,14
 173 859 173 859 195 859 c 0,15,16
 211 859 211 859 222.5 847 c 128,-1,17
 234 835 234 835 234 816 c 0,18,19
 234 803 234 803 227.5 789 c 128,-1,20
 221 775 221 775 204 755 c 2,21,-1
 105 631 l 1,22,-1
 84 642 l 1,11,-1
EndSplineSet
EndChar
StartChar: icircumflex
Encoding: 238 238 303
Width: 300
Flags: W
LayerCount: 2
Back
Fore
SplineSet
277 20 m 1,0,-1
 277 0 l 1,1,-1
 31 0 l 1,2,-1
 31 20 l 1,3,-1
 107 35 l 1,4,-1
 107 451 l 1,5,-1
 33 478 l 1,6,-1
 33 492 l 1,7,-1
 193 540 l 1,8,-1
 202 540 l 1,9,-1
 202 35 l 1,10,-1
 277 20 l 1,0,-1
156 857 m 0,11,12
 173 857 173 857 182 849.5 c 128,-1,13
 191 842 191 842 198 828 c 2,14,-1
 282 640 l 1,15,-1
 260 628 l 1,16,-1
 152 769 l 1,17,-1
 46 628 l 1,18,-1
 26 640 l 1,19,-1
 110 828 l 2,20,21
 116 842 116 842 126.5 849.5 c 128,-1,22
 137 857 137 857 156 857 c 0,11,12
EndSplineSet
EndChar
StartChar: idieresis
Encoding: 239 239 304
Width: 300
Flags: W
LayerCount: 2
Back
Fore
SplineSet
277 20 m 1,0,-1
 277 0 l 1,1,-1
 31 0 l 1,2,-1
 31 20 l 1,3,-1
 107 35 l 1,4,-1
 107 451 l 1,5,-1
 33 478 l 1,6,-1
 33 492 l 1,7,-1
 193 540 l 1,8,-1
 202 540 l 1,9,-1
 202 35 l 1,10,-1
 277 20 l 1,0,-1
6 725 m 0,11,12
 6 749 6 749 21 764.5 c 128,-1,13
 36 780 36 780 61 780 c 0,14,15
 87 780 87 780 101.5 764.5 c 128,-1,16
 116 749 116 749 116 725 c 0,17,18
 116 702 116 702 101.5 686 c 128,-1,19
 87 670 87 670 61 670 c 0,20,21
 36 670 36 670 21 686 c 128,-1,22
 6 702 6 702 6 725 c 0,11,12
193 725 m 0,23,24
 193 749 193 749 208 764.5 c 128,-1,25
 223 780 223 780 248 780 c 0,26,27
 274 780 274 780 288.5 764.5 c 128,-1,28
 303 749 303 749 303 725 c 0,29,30
 303 702 303 702 288.5 686 c 128,-1,31
 274 670 274 670 248 670 c 0,32,33
 223 670 223 670 208 686 c 128,-1,34
 193 702 193 702 193 725 c 0,23,24
EndSplineSet
EndChar
StartChar: eth
Encoding: 240 240 242
Width: 590
Flags: W
LayerCount: 2
Back
Fore
SplineSet
353 666 m 1,0,1
 441 590 441 590 491 489 c 128,-1,2
 541 388 541 388 541 279 c 0,3,4
 541 215 541 215 522 162 c 128,-1,5
 503 109 503 109 469.5 70.5 c 128,-1,6
 436 32 436 32 388.5 11 c 128,-1,7
 341 -10 341 -10 284 -10 c 0,8,9
 233 -10 233 -10 189.5 8 c 128,-1,10
 146 26 146 26 114.5 57.5 c 128,-1,11
 83 89 83 89 65.5 132.5 c 128,-1,12
 48 176 48 176 48 227 c 0,13,14
 48 276 48 276 65.5 319 c 128,-1,15
 83 362 83 362 113 394.5 c 128,-1,16
 143 427 143 427 183.5 445.5 c 128,-1,17
 224 464 224 464 270 464 c 0,18,19
 312 464 312 464 353.5 449 c 128,-1,20
 395 434 395 434 415 412 c 1,21,22
 407 463 407 463 374.5 519.5 c 128,-1,23
 342 576 342 576 294 627 c 1,24,-1
 184 556 l 1,25,-1
 155 602 l 1,26,-1
 254 666 l 1,27,28
 200 715 200 715 141 745 c 1,29,-1
 159 780 l 1,30,31
 200 765 200 765 237 745 c 128,-1,32
 274 725 274 725 308 701 c 1,33,-1
 412 769 l 1,34,-1
 442 723 l 1,35,-1
 353 666 l 1,0,1
285 35 m 0,36,37
 316 35 316 35 342.5 50.5 c 128,-1,38
 369 66 369 66 388 94 c 128,-1,39
 407 122 407 122 418 160 c 128,-1,40
 429 198 429 198 429 243 c 0,41,42
 429 269 429 269 425.5 299.5 c 128,-1,43
 422 330 422 330 417 353 c 1,44,45
 399 378 399 378 369 392.5 c 128,-1,46
 339 407 339 407 307 407 c 0,47,48
 276 407 276 407 250 393 c 128,-1,49
 224 379 224 379 205.5 353 c 128,-1,50
 187 327 187 327 177 291 c 128,-1,51
 167 255 167 255 167 211 c 0,52,53
 167 130 167 130 199 82.5 c 128,-1,54
 231 35 231 35 285 35 c 0,36,37
EndSplineSet
EndChar
StartChar: ograve
Encoding: 242 242 357
Width: 616
Flags: W
LayerCount: 2
Back
Fore
SplineSet
308 540 m 256,0,1
 365 540 365 540 413 519 c 128,-1,2
 461 498 461 498 496 461.5 c 128,-1,3
 531 425 531 425 551 374.5 c 128,-1,4
 571 324 571 324 571 265 c 256,5,6
 571 206 571 206 551 155.5 c 128,-1,7
 531 105 531 105 496 68 c 128,-1,8
 461 31 461 31 413 10.5 c 128,-1,9
 365 -10 365 -10 308 -10 c 256,10,11
 251 -10 251 -10 203 10.5 c 128,-1,12
 155 31 155 31 120 68 c 128,-1,13
 85 105 85 105 65 155.5 c 128,-1,14
 45 206 45 206 45 265 c 256,15,16
 45 324 45 324 65 374.5 c 128,-1,17
 85 425 85 425 120 461.5 c 128,-1,18
 155 498 155 498 203 519 c 128,-1,19
 251 540 251 540 308 540 c 256,0,1
151 265 m 256,20,21
 151 156 151 156 192.5 95.5 c 128,-1,22
 234 35 234 35 307 35 c 0,23,24
 381 35 381 35 423 96 c 128,-1,25
 465 157 465 157 465 266 c 0,26,27
 465 374 465 374 423.5 434.5 c 128,-1,28
 382 495 382 495 308 495 c 256,29,30
 234 495 234 495 192.5 434.5 c 128,-1,31
 151 374 151 374 151 265 c 256,20,21
332 631 m 1,32,-1
 233 755 l 2,33,34
 216 775 216 775 209.5 789 c 128,-1,35
 203 803 203 803 203 816 c 0,36,37
 203 835 203 835 214.5 847 c 128,-1,38
 226 859 226 859 242 859 c 0,39,40
 264 859 264 859 276.5 846.5 c 128,-1,41
 289 834 289 834 297 812 c 2,42,-1
 353 642 l 1,43,-1
 332 631 l 1,32,-1
EndSplineSet
EndChar
StartChar: ocircumflex
Encoding: 244 244 352
Width: 616
Flags: W
LayerCount: 2
Back
Fore
SplineSet
308 540 m 256,0,1
 365 540 365 540 413 519 c 128,-1,2
 461 498 461 498 496 461.5 c 128,-1,3
 531 425 531 425 551 374.5 c 128,-1,4
 571 324 571 324 571 265 c 256,5,6
 571 206 571 206 551 155.5 c 128,-1,7
 531 105 531 105 496 68 c 128,-1,8
 461 31 461 31 413 10.5 c 128,-1,9
 365 -10 365 -10 308 -10 c 256,10,11
 251 -10 251 -10 203 10.5 c 128,-1,12
 155 31 155 31 120 68 c 128,-1,13
 85 105 85 105 65 155.5 c 128,-1,14
 45 206 45 206 45 265 c 256,15,16
 45 324 45 324 65 374.5 c 128,-1,17
 85 425 85 425 120 461.5 c 128,-1,18
 155 498 155 498 203 519 c 128,-1,19
 251 540 251 540 308 540 c 256,0,1
151 265 m 256,20,21
 151 156 151 156 192.5 95.5 c 128,-1,22
 234 35 234 35 307 35 c 0,23,24
 381 35 381 35 423 96 c 128,-1,25
 465 157 465 157 465 266 c 0,26,27
 465 374 465 374 423.5 434.5 c 128,-1,28
 382 495 382 495 308 495 c 256,29,30
 234 495 234 495 192.5 434.5 c 128,-1,31
 151 374 151 374 151 265 c 256,20,21
321 857 m 0,32,33
 338 857 338 857 347 849.5 c 128,-1,34
 356 842 356 842 363 828 c 2,35,-1
 447 640 l 1,36,-1
 425 628 l 1,37,-1
 317 769 l 1,38,-1
 211 628 l 1,39,-1
 191 640 l 1,40,-1
 275 828 l 2,41,42
 281 842 281 842 291.5 849.5 c 128,-1,43
 302 857 302 857 321 857 c 0,32,33
EndSplineSet
EndChar
StartChar: otilde
Encoding: 245 245 376
Width: 616
Flags: W
LayerCount: 2
Back
Fore
SplineSet
308 540 m 256,0,1
 365 540 365 540 413 519 c 128,-1,2
 461 498 461 498 496 461.5 c 128,-1,3
 531 425 531 425 551 374.5 c 128,-1,4
 571 324 571 324 571 265 c 256,5,6
 571 206 571 206 551 155.5 c 128,-1,7
 531 105 531 105 496 68 c 128,-1,8
 461 31 461 31 413 10.5 c 128,-1,9
 365 -10 365 -10 308 -10 c 256,10,11
 251 -10 251 -10 203 10.5 c 128,-1,12
 155 31 155 31 120 68 c 128,-1,13
 85 105 85 105 65 155.5 c 128,-1,14
 45 206 45 206 45 265 c 256,15,16
 45 324 45 324 65 374.5 c 128,-1,17
 85 425 85 425 120 461.5 c 128,-1,18
 155 498 155 498 203 519 c 128,-1,19
 251 540 251 540 308 540 c 256,0,1
151 265 m 256,20,21
 151 156 151 156 192.5 95.5 c 128,-1,22
 234 35 234 35 307 35 c 0,23,24
 381 35 381 35 423 96 c 128,-1,25
 465 157 465 157 465 266 c 0,26,27
 465 374 465 374 423.5 434.5 c 128,-1,28
 382 495 382 495 308 495 c 256,29,30
 234 495 234 495 192.5 434.5 c 128,-1,31
 151 374 151 374 151 265 c 256,20,21
164 683 m 1,32,33
 164 734 164 734 187.5 765.5 c 128,-1,34
 211 797 211 797 248 797 c 0,35,36
 265 797 265 797 284 791.5 c 128,-1,37
 303 786 303 786 322.5 779.5 c 128,-1,38
 342 773 342 773 361 767.5 c 128,-1,39
 380 762 380 762 397 762 c 0,40,41
 439 762 439 762 447 800 c 1,42,-1
 471 800 l 1,43,44
 471 748 471 748 447.5 715 c 128,-1,45
 424 682 424 682 387 682 c 0,46,47
 369 682 369 682 350.5 688 c 128,-1,48
 332 694 332 694 313 701.5 c 128,-1,49
 294 709 294 709 275.5 715 c 128,-1,50
 257 721 257 721 239 721 c 0,51,52
 193 721 193 721 188 683 c 1,53,-1
 164 683 l 1,32,33
EndSplineSet
EndChar
StartChar: odieresis
Encoding: 246 246 353
Width: 616
Flags: W
LayerCount: 2
Back
Fore
SplineSet
308 540 m 256,0,1
 365 540 365 540 413 519 c 128,-1,2
 461 498 461 498 496 461.5 c 128,-1,3
 531 425 531 425 551 374.5 c 128,-1,4
 571 324 571 324 571 265 c 256,5,6
 571 206 571 206 551 155.5 c 128,-1,7
 531 105 531 105 496 68 c 128,-1,8
 461 31 461 31 413 10.5 c 128,-1,9
 365 -10 365 -10 308 -10 c 256,10,11
 251 -10 251 -10 203 10.5 c 128,-1,12
 155 31 155 31 120 68 c 128,-1,13
 85 105 85 105 65 155.5 c 128,-1,14
 45 206 45 206 45 265 c 256,15,16
 45 324 45 324 65 374.5 c 128,-1,17
 85 425 85 425 120 461.5 c 128,-1,18
 155 498 155 498 203 519 c 128,-1,19
 251 540 251 540 308 540 c 256,0,1
151 265 m 256,20,21
 151 156 151 156 192.5 95.5 c 128,-1,22
 234 35 234 35 307 35 c 0,23,24
 381 35 381 35 423 96 c 128,-1,25
 465 157 465 157 465 266 c 0,26,27
 465 374 465 374 423.5 434.5 c 128,-1,28
 382 495 382 495 308 495 c 256,29,30
 234 495 234 495 192.5 434.5 c 128,-1,31
 151 374 151 374 151 265 c 256,20,21
161 725 m 0,32,33
 161 749 161 749 176 764.5 c 128,-1,34
 191 780 191 780 216 780 c 0,35,36
 242 780 242 780 256.5 764.5 c 128,-1,37
 271 749 271 749 271 725 c 0,38,39
 271 702 271 702 256.5 686 c 128,-1,40
 242 670 242 670 216 670 c 0,41,42
 191 670 191 670 176 686 c 128,-1,43
 161 702 161 702 161 725 c 0,32,33
348 725 m 0,44,45
 348 749 348 749 363 764.5 c 128,-1,46
 378 780 378 780 403 780 c 0,47,48
 429 780 429 780 443.5 764.5 c 128,-1,49
 458 749 458 749 458 725 c 0,50,51
 458 702 458 702 443.5 686 c 128,-1,52
 429 670 429 670 403 670 c 0,53,54
 378 670 378 670 363 686 c 128,-1,55
 348 702 348 702 348 725 c 0,44,45
EndSplineSet
EndChar
StartChar: divide
Encoding: 247 247 209
Width: 525
Flags: W
LayerCount: 2
Back
Fore
SplineSet
185 513 m 0,0,1
 185 543 185 543 203.5 563 c 128,-1,2
 222 583 222 583 253 583 c 0,3,4
 285 583 285 583 304 563 c 128,-1,5
 323 543 323 543 323 513 c 0,6,7
 323 485 323 485 304 465 c 128,-1,8
 285 445 285 445 253 445 c 0,9,10
 222 445 222 445 203.5 465 c 128,-1,11
 185 485 185 485 185 513 c 0,0,1
185 170 m 0,12,13
 185 200 185 200 203.5 220 c 128,-1,14
 222 240 222 240 253 240 c 0,15,16
 285 240 285 240 304 220 c 128,-1,17
 323 200 323 200 323 170 c 0,18,19
 323 142 323 142 304 122 c 128,-1,20
 285 102 285 102 253 102 c 0,21,22
 222 102 222 102 203.5 122 c 128,-1,23
 185 142 185 142 185 170 c 0,12,13
57 315 m 1,24,-1
 57 364 l 1,25,-1
 467 364 l 1,26,-1
 467 315 l 1,27,-1
 57 315 l 1,24,-1
EndSplineSet
Substitution2: "'tnum' Tabular Numbers in Latin lookup 3 subtable" divide.tnum
EndChar
StartChar: oslash
Encoding: 248 248 374
Width: 630
Flags: W
LayerCount: 2
Back
Fore
SplineSet
313 -10 m 0,0,1
 263 -10 263 -10 220 5.5 c 128,-1,2
 177 21 177 21 143 50 c 1,3,-1
 95 0 l 1,4,-1
 35 0 l 1,5,-1
 113 81 l 1,6,7
 83 117 83 117 66.5 163.5 c 128,-1,8
 50 210 50 210 50 265 c 0,9,10
 50 324 50 324 70 374.5 c 128,-1,11
 90 425 90 425 125 461.5 c 128,-1,12
 160 498 160 498 208 519 c 128,-1,13
 256 540 256 540 313 540 c 0,14,15
 366 540 366 540 410.5 522 c 128,-1,16
 455 504 455 504 490 472 c 1,17,-1
 546 530 l 1,18,-1
 607 530 l 1,19,-1
 520 440 l 1,20,21
 546 405 546 405 561 360.5 c 128,-1,22
 576 316 576 316 576 265 c 0,23,24
 576 206 576 206 556 155.5 c 128,-1,25
 536 105 536 105 501 68 c 128,-1,26
 466 31 466 31 418 10.5 c 128,-1,27
 370 -10 370 -10 313 -10 c 0,0,1
438 418 m 1,28,29
 418 455 418 455 386.5 475 c 128,-1,30
 355 495 355 495 313 495 c 0,31,32
 239 495 239 495 197.5 434.5 c 128,-1,33
 156 374 156 374 156 265 c 0,34,35
 156 193 156 193 174 144 c 1,36,-1
 438 418 l 1,28,29
312 35 m 0,37,38
 386 35 386 35 428 96 c 128,-1,39
 470 157 470 157 470 266 c 0,40,41
 470 325 470 325 456 373 c 1,42,-1
 193 102 l 1,43,44
 234 35 234 35 312 35 c 0,37,38
EndSplineSet
EndChar
StartChar: ucircumflex
Encoding: 251 251 474
Width: 598
Flags: W
LayerCount: 2
Back
Fore
SplineSet
327 510 m 1,0,-1
 327 530 l 1,1,-1
 497 530 l 1,2,-1
 497 75 l 1,3,-1
 565 51 l 1,4,-1
 565 39 l 1,5,-1
 415 -10 l 1,6,-1
 408 -10 l 1,7,-1
 408 81 l 1,8,-1
 404 82 l 1,9,10
 368 37 368 37 322 13.5 c 128,-1,11
 276 -10 276 -10 225 -10 c 0,12,13
 184 -10 184 -10 154.5 6 c 128,-1,14
 125 22 125 22 111 51 c 0,15,16
 107 60 107 60 104 70.5 c 128,-1,17
 101 81 101 81 99.5 96.5 c 128,-1,18
 98 112 98 112 97.5 135 c 128,-1,19
 97 158 97 158 97 193 c 2,20,-1
 97 495 l 1,21,-1
 22 510 l 1,22,-1
 22 530 l 1,23,-1
 192 530 l 1,24,-1
 192 193 l 2,25,26
 192 146 192 146 194.5 121 c 128,-1,27
 197 96 197 96 204 81 c 0,28,29
 212 64 212 64 230 54 c 128,-1,30
 248 44 248 44 274 44 c 0,31,32
 309 44 309 44 342 62 c 128,-1,33
 375 80 375 80 402 114 c 1,34,-1
 402 495 l 1,35,-1
 327 510 l 1,0,-1
307 857 m 0,36,37
 324 857 324 857 333 849.5 c 128,-1,38
 342 842 342 842 349 828 c 2,39,-1
 433 640 l 1,40,-1
 411 628 l 1,41,-1
 303 769 l 1,42,-1
 197 628 l 1,43,-1
 177 640 l 1,44,-1
 261 828 l 2,45,46
 267 842 267 842 277.5 849.5 c 128,-1,47
 288 857 288 857 307 857 c 0,36,37
EndSplineSet
EndChar
StartChar: udieresis
Encoding: 252 252 475
Width: 598
Flags: W
LayerCount: 2
Back
Fore
SplineSet
327 510 m 1,0,-1
 327 530 l 1,1,-1
 497 530 l 1,2,-1
 497 75 l 1,3,-1
 565 51 l 1,4,-1
 565 39 l 1,5,-1
 415 -10 l 1,6,-1
 408 -10 l 1,7,-1
 408 81 l 1,8,-1
 404 82 l 1,9,10
 368 37 368 37 322 13.5 c 128,-1,11
 276 -10 276 -10 225 -10 c 0,12,13
 184 -10 184 -10 154.5 6 c 128,-1,14
 125 22 125 22 111 51 c 0,15,16
 107 60 107 60 104 70.5 c 128,-1,17
 101 81 101 81 99.5 96.5 c 128,-1,18
 98 112 98 112 97.5 135 c 128,-1,19
 97 158 97 158 97 193 c 2,20,-1
 97 495 l 1,21,-1
 22 510 l 1,22,-1
 22 530 l 1,23,-1
 192 530 l 1,24,-1
 192 193 l 2,25,26
 192 146 192 146 194.5 121 c 128,-1,27
 197 96 197 96 204 81 c 0,28,29
 212 64 212 64 230 54 c 128,-1,30
 248 44 248 44 274 44 c 0,31,32
 309 44 309 44 342 62 c 128,-1,33
 375 80 375 80 402 114 c 1,34,-1
 402 495 l 1,35,-1
 327 510 l 1,0,-1
152 725 m 0,36,37
 152 749 152 749 167 764.5 c 128,-1,38
 182 780 182 780 207 780 c 0,39,40
 233 780 233 780 247.5 764.5 c 128,-1,41
 262 749 262 749 262 725 c 0,42,43
 262 702 262 702 247.5 686 c 128,-1,44
 233 670 233 670 207 670 c 0,45,46
 182 670 182 670 167 686 c 128,-1,47
 152 702 152 702 152 725 c 0,36,37
339 725 m 0,48,49
 339 749 339 749 354 764.5 c 128,-1,50
 369 780 369 780 394 780 c 0,51,52
 420 780 420 780 434.5 764.5 c 128,-1,53
 449 749 449 749 449 725 c 0,54,55
 449 702 449 702 434.5 686 c 128,-1,56
 420 670 420 670 394 670 c 0,57,58
 369 670 369 670 354 686 c 128,-1,59
 339 702 339 702 339 725 c 0,48,49
EndSplineSet
EndChar
StartChar: thorn
Encoding: 254 254 450
Width: 603
Flags: W
LayerCount: 2
Back
Fore
SplineSet
283 20 m 0,0,1
 320 20 320 20 350.5 38 c 128,-1,2
 381 56 381 56 403 88 c 128,-1,3
 425 120 425 120 437 164.5 c 128,-1,4
 449 209 449 209 449 263 c 0,5,6
 449 366 449 366 407.5 426 c 128,-1,7
 366 486 366 486 294 486 c 0,8,9
 261 486 261 486 232 472.5 c 128,-1,10
 203 459 203 459 183 434 c 1,11,-1
 183 118 l 2,12,13
 183 74 183 74 210.5 47 c 128,-1,14
 238 20 238 20 283 20 c 0,0,1
274 -10 m 0,15,16
 223 -10 223 -10 178 5 c 1,17,-1
 178 -216 l 1,18,-1
 277 -231 l 1,19,-1
 277 -250 l 1,20,-1
 12 -250 l 1,21,-1
 12 -231 l 1,22,-1
 87 -216 l 1,23,-1
 87 741 l 1,24,-1
 14 768 l 1,25,-1
 14 781 l 1,26,-1
 173 830 l 1,27,-1
 183 830 l 1,28,-1
 183 472 l 1,29,30
 245 540 245 540 337 540 c 0,31,32
 386 540 386 540 426.5 521.5 c 128,-1,33
 467 503 467 503 495.5 469 c 128,-1,34
 524 435 524 435 540 387.5 c 128,-1,35
 556 340 556 340 556 282 c 0,36,37
 556 216 556 216 535.5 162.5 c 128,-1,38
 515 109 515 109 478 70.5 c 128,-1,39
 441 32 441 32 389 11 c 128,-1,40
 337 -10 337 -10 274 -10 c 0,15,16
EndSplineSet
EndChar
StartChar: ydieresis
Encoding: 255 255 520
Width: 572
Flags: W
LayerCount: 2
Back
Fore
SplineSet
325 144 m 1,0,-1
 419 431 l 2,1,2
 426 451 426 451 426 467 c 0,3,4
 426 485 426 485 408.5 496.5 c 128,-1,5
 391 508 391 508 349 510 c 1,6,-1
 349 530 l 1,7,-1
 574 530 l 1,8,-1
 574 510 l 1,9,10
 545 505 545 505 526.5 499.5 c 128,-1,11
 508 494 508 494 496 485.5 c 128,-1,12
 484 477 484 477 476.5 463.5 c 128,-1,13
 469 450 469 450 462 430 c 2,14,-1
 267 -141 l 2,15,16
 256 -173 256 -173 244 -193.5 c 128,-1,17
 232 -214 232 -214 220 -226 c 0,18,19
 205 -243 205 -243 183 -251.5 c 128,-1,20
 161 -260 161 -260 135 -260 c 0,21,22
 98 -260 98 -260 75.5 -241.5 c 128,-1,23
 53 -223 53 -223 53 -193 c 0,24,25
 53 -170 53 -170 68 -155.5 c 128,-1,26
 83 -141 83 -141 109 -141 c 0,27,28
 129 -141 129 -141 139.5 -151.5 c 128,-1,29
 150 -162 150 -162 155 -187 c 0,30,31
 157 -206 157 -206 161 -211.5 c 128,-1,32
 165 -217 165 -217 175 -217 c 0,33,34
 192 -217 192 -217 205.5 -198 c 128,-1,35
 219 -179 219 -179 234 -134 c 2,36,-1
 275 -8 l 1,37,-1
 80 470 l 2,38,39
 71 489 71 489 55 498 c 128,-1,40
 39 507 39 507 9 510 c 1,41,-1
 9 530 l 1,42,-1
 256 530 l 1,43,-1
 256 510 l 1,44,45
 216 508 216 508 203 504 c 128,-1,46
 190 500 190 500 190 490 c 0,47,48
 190 481 190 481 198 460 c 2,49,-1
 320 144 l 1,50,-1
 325 144 l 1,0,-1
175 725 m 0,51,52
 175 749 175 749 190 764.5 c 128,-1,53
 205 780 205 780 230 780 c 0,54,55
 256 780 256 780 270.5 764.5 c 128,-1,56
 285 749 285 749 285 725 c 0,57,58
 285 702 285 702 270.5 686 c 128,-1,59
 256 670 256 670 230 670 c 0,60,61
 205 670 205 670 190 686 c 128,-1,62
 175 702 175 702 175 725 c 0,51,52
362 725 m 0,63,64
 362 749 362 749 377 764.5 c 128,-1,65
 392 780 392 780 417 780 c 0,66,67
 443 780 443 780 457.5 764.5 c 128,-1,68
 472 749 472 749 472 725 c 0,69,70
 472 702 472 702 457.5 686 c 128,-1,71
 443 670 443 670 417 670 c 0,72,73
 392 670 392 670 377 686 c 128,-1,74
 362 702 362 702 362 725 c 0,63,64
EndSplineSet
EndChar
StartChar: Abreve
Encoding: 258 258 5
Width: 744
Flags: W
LayerCount: 2
Back
Fore
SplineSet
461 283 m 1,0,-1
 219 283 l 1,1,-1
 165 132 l 2,2,3
 154 101 154 101 154 85 c 0,4,5
 154 58 154 58 180 44.5 c 128,-1,6
 206 31 206 31 257 23 c 1,7,-1
 257 0 l 1,8,-1
 -24 0 l 1,9,-1
 -24 23 l 1,10,11
 16 29 16 29 40 37 c 128,-1,12
 64 45 64 45 79 58 c 128,-1,13
 94 71 94 71 103 89.5 c 128,-1,14
 112 108 112 108 121 134 c 2,15,-1
 315 677 l 1,16,-1
 289 736 l 1,17,-1
 387 790 l 1,18,-1
 651 84 l 2,19,20
 657 67 657 67 664 56 c 128,-1,21
 671 45 671 45 682 38 c 128,-1,22
 693 31 693 31 710 28 c 128,-1,23
 727 25 727 25 753 23 c 1,24,-1
 753 0 l 1,25,-1
 435 0 l 1,26,-1
 435 23 l 1,27,28
 469 24 469 24 489.5 26.5 c 128,-1,29
 510 29 510 29 521 33 c 128,-1,30
 532 37 532 37 535 42.5 c 128,-1,31
 538 48 538 48 538 56 c 0,32,33
 538 63 538 63 536 72.5 c 128,-1,34
 534 82 534 82 527 100 c 2,35,-1
 461 283 l 1,0,-1
337 614 m 1,36,-1
 233 323 l 1,37,-1
 446 323 l 1,38,-1
 341 614 l 1,39,-1
 337 614 l 1,36,-1
238 959 m 1,40,41
 250 930 250 930 279.5 917 c 128,-1,42
 309 904 309 904 344 904 c 0,43,44
 377 904 377 904 406.5 917 c 128,-1,45
 436 930 436 930 453 959 c 1,46,-1
 487 959 l 1,47,48
 475 916 475 916 456.5 890.5 c 128,-1,49
 438 865 438 865 417.5 851.5 c 128,-1,50
 397 838 397 838 376.5 834 c 128,-1,51
 356 830 356 830 340 830 c 0,52,53
 318 830 318 830 295.5 836.5 c 128,-1,54
 273 843 273 843 254 858 c 128,-1,55
 235 873 235 873 221 898 c 128,-1,56
 207 923 207 923 203 959 c 1,57,-1
 238 959 l 1,40,41
EndSplineSet
EndChar
StartChar: abreve
Encoding: 259 259 146
Width: 525
Flags: W
LayerCount: 2
Back
Fore
SplineSet
169 -10 m 0,0,1
 115 -10 115 -10 82 24 c 128,-1,2
 49 58 49 58 49 112 c 0,3,4
 49 145 49 145 63.5 170.5 c 128,-1,5
 78 196 78 196 110.5 217 c 128,-1,6
 143 238 143 238 195.5 255.5 c 128,-1,7
 248 273 248 273 323 289 c 1,8,-1
 323 387 l 2,9,10
 323 450 323 450 305 476 c 128,-1,11
 287 502 287 502 243 502 c 0,12,13
 200 502 200 502 175 481.5 c 128,-1,14
 150 461 150 461 150 426 c 0,15,16
 150 418 150 418 151 408.5 c 128,-1,17
 152 399 152 399 152 391 c 0,18,19
 152 365 152 365 137.5 349 c 128,-1,20
 123 333 123 333 100 333 c 0,21,22
 80 333 80 333 67 346 c 128,-1,23
 54 359 54 359 54 381 c 0,24,25
 54 414 54 414 83.5 449 c 128,-1,26
 113 484 113 484 162 509 c 0,27,28
 222 540 222 540 289 540 c 0,29,30
 332 540 332 540 362 526.5 c 128,-1,31
 392 513 392 513 405 487 c 0,32,33
 409 478 409 478 411.5 468.5 c 128,-1,34
 414 459 414 459 415.5 444.5 c 128,-1,35
 417 430 417 430 417.5 408.5 c 128,-1,36
 418 387 418 387 418 356 c 2,37,-1
 418 127 l 2,38,39
 418 77 418 77 425.5 60 c 128,-1,40
 433 43 433 43 455 43 c 0,41,42
 469 43 469 43 480 49.5 c 128,-1,43
 491 56 491 56 504 72 c 1,44,-1
 521 57 l 1,45,46
 498 21 498 21 473.5 5.5 c 128,-1,47
 449 -10 449 -10 417 -10 c 0,48,49
 338 -10 338 -10 328 80 c 1,50,-1
 325 82 l 1,51,52
 296 39 296 39 254.5 14.5 c 128,-1,53
 213 -10 213 -10 169 -10 c 0,0,1
213 49 m 0,54,55
 245 49 245 49 274 66.5 c 128,-1,56
 303 84 303 84 323 116 c 1,57,-1
 323 260 l 1,58,59
 270 249 270 249 234.5 238 c 128,-1,60
 199 227 199 227 177.5 212 c 128,-1,61
 156 197 156 197 147 178 c 128,-1,62
 138 159 138 159 138 133 c 0,63,64
 138 92 138 92 157.5 70.5 c 128,-1,65
 177 49 177 49 213 49 c 0,54,55
172 790 m 1,66,67
 184 755 184 755 213.5 740 c 128,-1,68
 243 725 243 725 278 725 c 0,69,70
 311 725 311 725 340.5 740 c 128,-1,71
 370 755 370 755 387 790 c 1,72,-1
 421 790 l 1,73,74
 409 743 409 743 390.5 715.5 c 128,-1,75
 372 688 372 688 351.5 674 c 128,-1,76
 331 660 331 660 310.5 655.5 c 128,-1,77
 290 651 290 651 274 651 c 0,78,79
 252 651 252 651 229.5 658 c 128,-1,80
 207 665 207 665 188 681.5 c 128,-1,81
 169 698 169 698 155 724.5 c 128,-1,82
 141 751 141 751 137 790 c 1,83,-1
 172 790 l 1,66,67
EndSplineSet
EndChar
StartChar: Aogonek
Encoding: 260 260 10
Width: 744
Flags: W
LayerCount: 2
Back
Fore
SplineSet
686 -202 m 1,0,1
 639 -256 639 -256 576 -256 c 0,2,3
 529 -256 529 -256 501.5 -232.5 c 128,-1,4
 474 -209 474 -209 474 -168 c 0,5,6
 474 -129 474 -129 504 -85 c 128,-1,7
 534 -41 534 -41 588 0 c 1,8,-1
 435 0 l 1,9,-1
 435 23 l 1,10,11
 469 24 469 24 489.5 26.5 c 128,-1,12
 510 29 510 29 521 33 c 128,-1,13
 532 37 532 37 535 42.5 c 128,-1,14
 538 48 538 48 538 56 c 0,15,16
 538 63 538 63 536 72.5 c 128,-1,17
 534 82 534 82 527 100 c 2,18,-1
 461 283 l 1,19,-1
 219 283 l 1,20,-1
 165 132 l 2,21,22
 154 101 154 101 154 85 c 0,23,24
 154 58 154 58 180 44.5 c 128,-1,25
 206 31 206 31 257 23 c 1,26,-1
 257 0 l 1,27,-1
 -24 0 l 1,28,-1
 -24 23 l 1,29,30
 16 29 16 29 40 37 c 128,-1,31
 64 45 64 45 79 58 c 128,-1,32
 94 71 94 71 103 89.5 c 128,-1,33
 112 108 112 108 121 134 c 2,34,-1
 315 677 l 1,35,-1
 289 736 l 1,36,-1
 387 790 l 1,37,-1
 651 84 l 2,38,39
 657 67 657 67 664 56 c 128,-1,40
 671 45 671 45 682 38 c 128,-1,41
 693 31 693 31 710 28 c 128,-1,42
 727 25 727 25 753 23 c 1,43,-1
 753 0 l 1,44,-1
 631 0 l 1,45,46
 562 -83 562 -83 562 -144 c 0,47,48
 562 -201 562 -201 615 -201 c 0,49,50
 629 -201 629 -201 641.5 -196 c 128,-1,51
 654 -191 654 -191 671 -180 c 1,52,-1
 686 -202 l 1,0,1
337 614 m 1,53,-1
 233 323 l 1,54,-1
 446 323 l 1,55,-1
 341 614 l 1,56,-1
 337 614 l 1,53,-1
EndSplineSet
EndChar
StartChar: aogonek
Encoding: 261 261 156
Width: 526
Flags: W
LayerCount: 2
Back
Fore
SplineSet
527 -202 m 1,0,1
 480 -256 480 -256 417 -256 c 0,2,3
 369 -256 369 -256 342 -232 c 128,-1,4
 315 -208 315 -208 315 -169 c 0,5,6
 315 -131 315 -131 341 -90 c 128,-1,7
 367 -49 367 -49 416 -10 c 1,8,9
 338 -9 338 -9 328 80 c 1,10,-1
 325 82 l 1,11,12
 296 39 296 39 254.5 14.5 c 128,-1,13
 213 -10 213 -10 169 -10 c 0,14,15
 115 -10 115 -10 82 24 c 128,-1,16
 49 58 49 58 49 112 c 0,17,18
 49 145 49 145 63.5 170.5 c 128,-1,19
 78 196 78 196 110.5 217 c 128,-1,20
 143 238 143 238 195.5 255.5 c 128,-1,21
 248 273 248 273 323 289 c 1,22,-1
 323 387 l 2,23,24
 323 450 323 450 305 476 c 128,-1,25
 287 502 287 502 243 502 c 0,26,27
 200 502 200 502 175 481.5 c 128,-1,28
 150 461 150 461 150 426 c 0,29,30
 150 418 150 418 151 408.5 c 128,-1,31
 152 399 152 399 152 391 c 0,32,33
 152 365 152 365 137.5 349 c 128,-1,34
 123 333 123 333 100 333 c 0,35,36
 80 333 80 333 67 346 c 128,-1,37
 54 359 54 359 54 381 c 0,38,39
 54 414 54 414 83.5 449 c 128,-1,40
 113 484 113 484 162 509 c 0,41,42
 222 540 222 540 289 540 c 0,43,44
 332 540 332 540 362 526.5 c 128,-1,45
 392 513 392 513 405 487 c 0,46,47
 409 478 409 478 411.5 468.5 c 128,-1,48
 414 459 414 459 415.5 444.5 c 128,-1,49
 417 430 417 430 417.5 408.5 c 128,-1,50
 418 387 418 387 418 356 c 2,51,-1
 418 127 l 2,52,53
 418 77 418 77 425.5 60 c 128,-1,54
 433 43 433 43 455 43 c 0,55,56
 469 43 469 43 480 49.5 c 128,-1,57
 491 56 491 56 504 72 c 1,58,-1
 521 57 l 1,59,-1
 460 -14 l 2,60,61
 435 -43 435 -43 419 -73.5 c 128,-1,62
 403 -104 403 -104 403 -141 c 0,63,64
 403 -201 403 -201 456 -201 c 0,65,66
 470 -201 470 -201 482.5 -196 c 128,-1,67
 495 -191 495 -191 512 -180 c 1,68,-1
 527 -202 l 1,0,1
213 49 m 0,69,70
 245 49 245 49 274 66.5 c 128,-1,71
 303 84 303 84 323 116 c 1,72,-1
 323 260 l 1,73,74
 270 249 270 249 234.5 238 c 128,-1,75
 199 227 199 227 177.5 212 c 128,-1,76
 156 197 156 197 147 178 c 128,-1,77
 138 159 138 159 138 133 c 0,78,79
 138 92 138 92 157.5 70.5 c 128,-1,80
 177 49 177 49 213 49 c 0,69,70
EndSplineSet
EndChar
StartChar: Ccircumflex
Encoding: 264 264 20
Width: 774
Flags: W
LayerCount: 2
Back
Fore
SplineSet
56 380 m 0,0,1
 56 468 56 468 83 541.5 c 128,-1,2
 110 615 110 615 158.5 668 c 128,-1,3
 207 721 207 721 274.5 750.5 c 128,-1,4
 342 780 342 780 422 780 c 0,5,6
 481 780 481 780 536.5 764 c 128,-1,7
 592 748 592 748 637 719 c 1,8,-1
 641 719 l 1,9,-1
 690 770 l 1,10,-1
 708 770 l 1,11,-1
 708 540 l 1,12,-1
 678 540 l 1,13,14
 669 567 669 567 658.5 589 c 128,-1,15
 648 611 648 611 637 630 c 0,16,17
 602 687 602 687 554 711.5 c 128,-1,18
 506 736 506 736 439 736 c 0,19,20
 314 736 314 736 248 645.5 c 128,-1,21
 182 555 182 555 182 387 c 256,22,23
 182 219 182 219 249 127 c 128,-1,24
 316 35 316 35 440 35 c 0,25,26
 500 35 500 35 548 58.5 c 128,-1,27
 596 82 596 82 628 129 c 0,28,29
 666 182 666 182 681 262 c 1,30,-1
 708 262 l 1,31,-1
 708 0 l 1,32,-1
 684 0 l 1,33,-1
 638 66 l 1,34,35
 584 26 584 26 532 8 c 128,-1,36
 480 -10 480 -10 418 -10 c 0,37,38
 337 -10 337 -10 270.5 18.5 c 128,-1,39
 204 47 204 47 156.5 98.5 c 128,-1,40
 109 150 109 150 82.5 221.5 c 128,-1,41
 56 293 56 293 56 380 c 0,0,1
433 960 m 0,42,43
 450 960 450 960 462 953.5 c 128,-1,44
 474 947 474 947 488 933 c 2,45,-1
 581 837 l 1,46,-1
 562 820 l 1,47,-1
 433 878 l 1,48,-1
 306 820 l 1,49,-1
 286 837 l 1,50,-1
 380 933 l 2,51,52
 393 946 393 946 403.5 953 c 128,-1,53
 414 960 414 960 433 960 c 0,42,43
EndSplineSet
EndChar
StartChar: Dcaron
Encoding: 270 270 23
Width: 810
Flags: W
LayerCount: 2
Back
Fore
SplineSet
49 0 m 1,0,-1
 49 23 l 1,1,-1
 134 42 l 1,2,-1
 134 728 l 1,3,-1
 49 747 l 1,4,-1
 49 770 l 1,5,-1
 298 770 l 2,6,7
 358 770 358 770 404.5 766 c 128,-1,8
 451 762 451 762 488.5 753.5 c 128,-1,9
 526 745 526 745 556 731 c 128,-1,10
 586 717 586 717 612 697 c 0,11,12
 680 645 680 645 716.5 563.5 c 128,-1,13
 753 482 753 482 753 383 c 0,14,15
 753 281 753 281 714 195.5 c 128,-1,16
 675 110 675 110 605 59 c 0,17,18
 583 43 583 43 560 32 c 128,-1,19
 537 21 537 21 510.5 14 c 128,-1,20
 484 7 484 7 452.5 3.5 c 128,-1,21
 421 0 421 0 384 0 c 2,22,-1
 49 0 l 1,0,-1
343 38 m 0,23,24
 417 38 417 38 463.5 56.5 c 128,-1,25
 510 75 510 75 546 119 c 0,26,27
 586 169 586 169 607 239.5 c 128,-1,28
 628 310 628 310 628 395 c 0,29,30
 628 567 628 567 543 657 c 0,31,32
 505 697 505 697 453.5 713.5 c 128,-1,33
 402 730 402 730 318 730 c 2,34,-1
 239 730 l 1,35,-1
 239 98 l 2,36,37
 239 63 239 63 261.5 50.5 c 128,-1,38
 284 38 284 38 343 38 c 0,23,24
384 820 m 0,39,40
 365 820 365 820 354.5 827 c 128,-1,41
 344 834 344 834 331 847 c 2,42,-1
 237 943 l 1,43,-1
 257 960 l 1,44,-1
 384 902 l 1,45,-1
 513 960 l 1,46,-1
 532 943 l 1,47,-1
 439 847 l 2,48,49
 425 833 425 833 413 826.5 c 128,-1,50
 401 820 401 820 384 820 c 0,39,40
EndSplineSet
EndChar
StartChar: dcaron
Encoding: 271 271 202
Width: 607
Flags: W
LayerCount: 2
Back
Fore
SplineSet
254 -10 m 0,0,1
 210 -10 210 -10 172 10 c 128,-1,2
 134 30 134 30 106 65.5 c 128,-1,3
 78 101 78 101 62.5 150 c 128,-1,4
 47 199 47 199 47 256 c 0,5,6
 47 319 47 319 66 371 c 128,-1,7
 85 423 85 423 120 460.5 c 128,-1,8
 155 498 155 498 203 519 c 128,-1,9
 251 540 251 540 310 540 c 0,10,11
 365 540 365 540 418 525 c 1,12,-1
 418 740 l 1,13,-1
 345 768 l 1,14,-1
 345 781 l 1,15,-1
 502 830 l 1,16,-1
 512 830 l 1,17,-1
 512 78 l 1,18,-1
 580 63 l 1,19,-1
 580 52 l 1,20,-1
 432 -10 l 1,21,-1
 425 -10 l 1,22,-1
 425 76 l 1,23,-1
 421 78 l 1,24,25
 389 33 389 33 346.5 11.5 c 128,-1,26
 304 -10 304 -10 254 -10 c 0,0,1
296 55 m 0,27,28
 335 55 335 55 368 71 c 128,-1,29
 401 87 401 87 418 114 c 1,30,-1
 418 400 l 2,31,32
 418 510 418 510 308 510 c 0,33,34
 273 510 273 510 244.5 493 c 128,-1,35
 216 476 216 476 195.5 445 c 128,-1,36
 175 414 175 414 163.5 370 c 128,-1,37
 152 326 152 326 152 272 c 0,38,39
 152 171 152 171 190 113 c 128,-1,40
 228 55 228 55 296 55 c 0,27,28
575 642 m 1,41,-1
 582 805 l 2,42,43
 584 830 584 830 595 843.5 c 128,-1,44
 606 857 606 857 633 857 c 0,45,46
 662 857 662 857 662 822 c 0,47,48
 662 813 662 813 658.5 801.5 c 128,-1,49
 655 790 655 790 650 775 c 2,50,-1
 601 642 l 1,51,-1
 575 642 l 1,41,-1
EndSplineSet
EndChar
StartChar: Dcroat
Encoding: 272 272 24
Width: 811
Flags: W
LayerCount: 2
Back
Fore
SplineSet
50 0 m 1,0,-1
 50 23 l 1,1,-1
 135 42 l 1,2,-1
 135 364 l 1,3,-1
 56 364 l 1,4,-1
 56 429 l 1,5,-1
 135 429 l 1,6,-1
 135 728 l 1,7,-1
 50 747 l 1,8,-1
 50 770 l 1,9,-1
 299 770 l 2,10,11
 359 770 359 770 405.5 766 c 128,-1,12
 452 762 452 762 489.5 753.5 c 128,-1,13
 527 745 527 745 557 731 c 128,-1,14
 587 717 587 717 613 697 c 0,15,16
 681 645 681 645 717.5 563.5 c 128,-1,17
 754 482 754 482 754 383 c 0,18,19
 754 281 754 281 715 195.5 c 128,-1,20
 676 110 676 110 606 59 c 0,21,22
 584 43 584 43 561 32 c 128,-1,23
 538 21 538 21 511.5 14 c 128,-1,24
 485 7 485 7 453.5 3.5 c 128,-1,25
 422 0 422 0 385 0 c 2,26,-1
 50 0 l 1,0,-1
344 38 m 0,27,28
 418 38 418 38 464.5 56.5 c 128,-1,29
 511 75 511 75 547 119 c 0,30,31
 587 169 587 169 608 239.5 c 128,-1,32
 629 310 629 310 629 395 c 0,33,34
 629 567 629 567 544 657 c 0,35,36
 506 697 506 697 454.5 713.5 c 128,-1,37
 403 730 403 730 319 730 c 2,38,-1
 240 730 l 1,39,-1
 240 429 l 1,40,-1
 363 429 l 1,41,-1
 363 364 l 1,42,-1
 240 364 l 1,43,-1
 240 98 l 2,44,45
 240 63 240 63 262.5 50.5 c 128,-1,46
 285 38 285 38 344 38 c 0,27,28
EndSplineSet
EndChar
StartChar: dcroat
Encoding: 273 273 203
Width: 607
Flags: W
LayerCount: 2
Back
Fore
SplineSet
254 -10 m 0,0,1
 210 -10 210 -10 172 10 c 128,-1,2
 134 30 134 30 106 65.5 c 128,-1,3
 78 101 78 101 62.5 150 c 128,-1,4
 47 199 47 199 47 256 c 0,5,6
 47 319 47 319 66 371 c 128,-1,7
 85 423 85 423 120 460.5 c 128,-1,8
 155 498 155 498 203 519 c 128,-1,9
 251 540 251 540 310 540 c 0,10,11
 365 540 365 540 418 525 c 1,12,-1
 418 609 l 1,13,-1
 274 609 l 1,14,-1
 274 674 l 1,15,-1
 418 674 l 1,16,-1
 418 740 l 1,17,-1
 345 768 l 1,18,-1
 345 781 l 1,19,-1
 502 830 l 1,20,-1
 512 830 l 1,21,-1
 512 674 l 1,22,-1
 581 674 l 1,23,-1
 581 609 l 1,24,-1
 512 609 l 1,25,-1
 512 78 l 1,26,-1
 580 63 l 1,27,-1
 580 52 l 1,28,-1
 432 -10 l 1,29,-1
 425 -10 l 1,30,-1
 425 76 l 1,31,-1
 421 78 l 1,32,33
 389 33 389 33 346.5 11.5 c 128,-1,34
 304 -10 304 -10 254 -10 c 0,0,1
296 55 m 0,35,36
 335 55 335 55 368 71 c 128,-1,37
 401 87 401 87 418 114 c 1,38,-1
 418 400 l 2,39,40
 418 510 418 510 308 510 c 0,41,42
 273 510 273 510 244.5 493 c 128,-1,43
 216 476 216 476 195.5 445 c 128,-1,44
 175 414 175 414 163.5 370 c 128,-1,45
 152 326 152 326 152 272 c 0,46,47
 152 171 152 171 190 113 c 128,-1,48
 228 55 228 55 296 55 c 0,35,36
EndSplineSet
EndChar
StartChar: Ebreve
Encoding: 276 276 28
Width: 692
Flags: W
LayerCount: 2
Back
Fore
SplineSet
239 730 m 1,0,-1
 239 426 l 1,1,-1
 418 426 l 1,2,3
 432 456 432 456 441 486 c 128,-1,4
 450 516 450 516 455 546 c 1,5,-1
 479 546 l 1,6,-1
 479 266 l 1,7,-1
 455 266 l 1,8,9
 446 328 446 328 418 386 c 1,10,-1
 239 386 l 1,11,-1
 239 40 l 1,12,-1
 521 40 l 1,13,14
 551 89 551 89 569.5 137 c 128,-1,15
 588 185 588 185 605 234 c 1,16,-1
 638 234 l 1,17,-1
 601 0 l 1,18,-1
 49 0 l 1,19,-1
 49 23 l 1,20,-1
 134 42 l 1,21,-1
 134 728 l 1,22,-1
 49 747 l 1,23,-1
 49 770 l 1,24,-1
 605 770 l 1,25,-1
 622 550 l 1,26,-1
 598 550 l 1,27,28
 586 593 586 593 568.5 640 c 128,-1,29
 551 687 551 687 526 730 c 1,30,-1
 239 730 l 1,0,-1
254 959 m 1,31,32
 266 930 266 930 295.5 917 c 128,-1,33
 325 904 325 904 360 904 c 0,34,35
 393 904 393 904 422.5 917 c 128,-1,36
 452 930 452 930 469 959 c 1,37,-1
 503 959 l 1,38,39
 491 916 491 916 472.5 890.5 c 128,-1,40
 454 865 454 865 433.5 851.5 c 128,-1,41
 413 838 413 838 392.5 834 c 128,-1,42
 372 830 372 830 356 830 c 0,43,44
 334 830 334 830 311.5 836.5 c 128,-1,45
 289 843 289 843 270 858 c 128,-1,46
 251 873 251 873 237 898 c 128,-1,47
 223 923 223 923 219 959 c 1,48,-1
 254 959 l 1,31,32
EndSplineSet
EndChar
StartChar: ebreve
Encoding: 277 277 220
Width: 560
Flags: W
LayerCount: 2
Back
Fore
SplineSet
512 308 m 1,0,-1
 147 308 l 1,1,-1
 147 285 l 2,2,3
 147 63 147 63 320 63 c 0,4,5
 369 63 369 63 411 80.5 c 128,-1,6
 453 98 453 98 479 130 c 2,7,-1
 491 145 l 1,8,-1
 508 135 l 1,9,-1
 502 121 l 2,10,11
 476 60 476 60 419 25 c 128,-1,12
 362 -10 362 -10 287 -10 c 0,13,14
 233 -10 233 -10 189 9.5 c 128,-1,15
 145 29 145 29 113.5 64 c 128,-1,16
 82 99 82 99 64.5 148 c 128,-1,17
 47 197 47 197 47 257 c 0,18,19
 47 320 47 320 66.5 372 c 128,-1,20
 86 424 86 424 121 461.5 c 128,-1,21
 156 499 156 499 205 519.5 c 128,-1,22
 254 540 254 540 314 540 c 0,23,24
 514 540 514 540 519 314 c 1,25,-1
 512 308 l 1,0,-1
305 509 m 0,26,27
 239 509 239 509 199 465 c 128,-1,28
 159 421 159 421 149 336 c 1,29,-1
 411 345 l 1,30,31
 413 351 413 351 413.5 362.5 c 128,-1,32
 414 374 414 374 414 386 c 0,33,34
 414 509 414 509 305 509 c 0,26,27
219 790 m 1,35,36
 231 755 231 755 260.5 740 c 128,-1,37
 290 725 290 725 325 725 c 0,38,39
 358 725 358 725 387.5 740 c 128,-1,40
 417 755 417 755 434 790 c 1,41,-1
 468 790 l 1,42,43
 456 743 456 743 437.5 715.5 c 128,-1,44
 419 688 419 688 398.5 674 c 128,-1,45
 378 660 378 660 357.5 655.5 c 128,-1,46
 337 651 337 651 321 651 c 0,47,48
 299 651 299 651 276.5 658 c 128,-1,49
 254 665 254 665 235 681.5 c 128,-1,50
 216 698 216 698 202 724.5 c 128,-1,51
 188 751 188 751 184 790 c 1,52,-1
 219 790 l 1,35,36
EndSplineSet
EndChar
StartChar: Eogonek
Encoding: 280 280 37
Width: 692
Flags: W
LayerCount: 2
Back
Fore
SplineSet
597 -202 m 1,0,1
 550 -256 550 -256 487 -256 c 0,2,3
 440 -256 440 -256 412.5 -232.5 c 128,-1,4
 385 -209 385 -209 385 -168 c 0,5,6
 385 -129 385 -129 415 -85 c 128,-1,7
 445 -41 445 -41 499 0 c 1,8,-1
 49 0 l 1,9,-1
 49 23 l 1,10,-1
 134 42 l 1,11,-1
 134 728 l 1,12,-1
 49 747 l 1,13,-1
 49 770 l 1,14,-1
 605 770 l 1,15,-1
 622 550 l 1,16,-1
 598 550 l 1,17,18
 586 593 586 593 568.5 640 c 128,-1,19
 551 687 551 687 526 730 c 1,20,-1
 239 730 l 1,21,-1
 239 426 l 1,22,-1
 418 426 l 1,23,24
 432 456 432 456 441 486 c 128,-1,25
 450 516 450 516 455 546 c 1,26,-1
 479 546 l 1,27,-1
 479 266 l 1,28,-1
 455 266 l 1,29,30
 446 328 446 328 418 386 c 1,31,-1
 239 386 l 1,32,-1
 239 40 l 1,33,-1
 521 40 l 1,34,35
 551 89 551 89 569.5 137 c 128,-1,36
 588 185 588 185 605 234 c 1,37,-1
 638 234 l 1,38,-1
 601 0 l 1,39,-1
 542 0 l 1,40,41
 473 -83 473 -83 473 -144 c 0,42,43
 473 -201 473 -201 526 -201 c 0,44,45
 540 -201 540 -201 552.5 -196 c 128,-1,46
 565 -191 565 -191 582 -180 c 1,47,-1
 597 -202 l 1,0,1
EndSplineSet
EndChar
StartChar: eogonek
Encoding: 281 281 239
Width: 560
Flags: W
LayerCount: 2
Back
Fore
SplineSet
432 -202 m 1,0,1
 385 -256 385 -256 322 -256 c 0,2,3
 275 -256 275 -256 247.5 -232 c 128,-1,4
 220 -208 220 -208 220 -169 c 0,5,6
 220 -131 220 -131 247.5 -88.5 c 128,-1,7
 275 -46 275 -46 324 -7 c 1,8,9
 306 -10 306 -10 287 -10 c 0,10,11
 233 -10 233 -10 189 9.5 c 128,-1,12
 145 29 145 29 113.5 64 c 128,-1,13
 82 99 82 99 64.5 148 c 128,-1,14
 47 197 47 197 47 257 c 0,15,16
 47 320 47 320 66.5 372 c 128,-1,17
 86 424 86 424 121 461.5 c 128,-1,18
 156 499 156 499 205 519.5 c 128,-1,19
 254 540 254 540 314 540 c 0,20,21
 413 540 413 540 465 483 c 128,-1,22
 517 426 517 426 519 314 c 1,23,-1
 512 308 l 1,24,-1
 147 308 l 1,25,-1
 147 285 l 2,26,27
 147 176 147 176 190.5 119.5 c 128,-1,28
 234 63 234 63 319 63 c 0,29,30
 368 63 368 63 410.5 80.5 c 128,-1,31
 453 98 453 98 479 130 c 2,32,-1
 491 145 l 1,33,-1
 508 135 l 1,34,-1
 502 121 l 2,35,36
 486 84 486 84 453.5 56 c 128,-1,37
 421 28 421 28 386 3 c 0,38,39
 342 -29 342 -29 325 -68 c 128,-1,40
 308 -107 308 -107 308 -141 c 0,41,42
 308 -201 308 -201 361 -201 c 0,43,44
 375 -201 375 -201 387.5 -196 c 128,-1,45
 400 -191 400 -191 417 -180 c 1,46,-1
 432 -202 l 1,0,1
305 509 m 0,47,48
 239 509 239 509 199 464.5 c 128,-1,49
 159 420 159 420 149 336 c 1,50,-1
 411 345 l 1,51,52
 413 351 413 351 413.5 362.5 c 128,-1,53
 414 374 414 374 414 385 c 0,54,55
 414 509 414 509 305 509 c 0,47,48
EndSplineSet
EndChar
StartChar: Ecaron
Encoding: 282 282 29
Width: 692
Flags: W
LayerCount: 2
Back
Fore
SplineSet
239 730 m 1,0,-1
 239 426 l 1,1,-1
 418 426 l 1,2,3
 432 456 432 456 441 486 c 128,-1,4
 450 516 450 516 455 546 c 1,5,-1
 479 546 l 1,6,-1
 479 266 l 1,7,-1
 455 266 l 1,8,9
 446 328 446 328 418 386 c 1,10,-1
 239 386 l 1,11,-1
 239 40 l 1,12,-1
 521 40 l 1,13,14
 551 89 551 89 569.5 137 c 128,-1,15
 588 185 588 185 605 234 c 1,16,-1
 638 234 l 1,17,-1
 601 0 l 1,18,-1
 49 0 l 1,19,-1
 49 23 l 1,20,-1
 134 42 l 1,21,-1
 134 728 l 1,22,-1
 49 747 l 1,23,-1
 49 770 l 1,24,-1
 605 770 l 1,25,-1
 622 550 l 1,26,-1
 598 550 l 1,27,28
 586 593 586 593 568.5 640 c 128,-1,29
 551 687 551 687 526 730 c 1,30,-1
 239 730 l 1,0,-1
352 820 m 0,31,32
 333 820 333 820 322.5 827 c 128,-1,33
 312 834 312 834 299 847 c 2,34,-1
 205 943 l 1,35,-1
 225 960 l 1,36,-1
 352 902 l 1,37,-1
 481 960 l 1,38,-1
 500 943 l 1,39,-1
 407 847 l 2,40,41
 393 833 393 833 381 826.5 c 128,-1,42
 369 820 369 820 352 820 c 0,31,32
EndSplineSet
EndChar
StartChar: Gcircumflex
Encoding: 284 284 45
Width: 808
Flags: W
LayerCount: 2
Back
Fore
SplineSet
691 81 m 1,0,1
 670 61 670 61 639.5 44.5 c 128,-1,2
 609 28 609 28 572.5 16 c 128,-1,3
 536 4 536 4 496.5 -3 c 128,-1,4
 457 -10 457 -10 418 -10 c 0,5,6
 338 -10 338 -10 271.5 18.5 c 128,-1,7
 205 47 205 47 157 98 c 128,-1,8
 109 149 109 149 82 220 c 128,-1,9
 55 291 55 291 55 376 c 0,10,11
 55 463 55 463 83 537 c 128,-1,12
 111 611 111 611 161.5 665 c 128,-1,13
 212 719 212 719 280.5 749.5 c 128,-1,14
 349 780 349 780 430 780 c 0,15,16
 489 780 489 780 539 764 c 128,-1,17
 589 748 589 748 622 719 c 1,18,-1
 626 719 l 1,19,-1
 680 770 l 1,20,-1
 702 770 l 1,21,-1
 702 540 l 1,22,-1
 679 540 l 1,23,24
 655 594 655 594 631 631.5 c 128,-1,25
 607 669 607 669 579 692 c 128,-1,26
 551 715 551 715 518.5 725 c 128,-1,27
 486 735 486 735 444 735 c 0,28,29
 314 735 314 735 248.5 644.5 c 128,-1,30
 183 554 183 554 183 376 c 0,31,32
 183 36 183 36 435 36 c 0,33,34
 484 36 484 36 521.5 51 c 128,-1,35
 559 66 559 66 578 97 c 0,36,37
 583 105 583 105 584.5 114 c 128,-1,38
 586 123 586 123 586 149 c 2,39,-1
 586 344 l 1,40,-1
 496 363 l 1,41,-1
 496 386 l 1,42,-1
 780 386 l 1,43,-1
 780 363 l 1,44,-1
 691 344 l 1,45,-1
 691 81 l 1,0,1
437 960 m 0,46,47
 454 960 454 960 466 953.5 c 128,-1,48
 478 947 478 947 492 933 c 2,49,-1
 585 837 l 1,50,-1
 566 820 l 1,51,-1
 437 878 l 1,52,-1
 310 820 l 1,53,-1
 290 837 l 1,54,-1
 384 933 l 2,55,56
 397 946 397 946 407.5 953 c 128,-1,57
 418 960 418 960 437 960 c 0,46,47
EndSplineSet
EndChar
StartChar: gcircumflex
Encoding: 285 285 281
Width: 514
Flags: W
LayerCount: 2
Back
Fore
SplineSet
220 -260 m 0,0,1
 184 -260 184 -260 141 -252.5 c 128,-1,2
 98 -245 98 -245 65 -225 c 0,3,4
 39 -209 39 -209 23 -185.5 c 128,-1,5
 7 -162 7 -162 7 -129 c 0,6,7
 7 -89 7 -89 34.5 -57 c 128,-1,8
 62 -25 62 -25 131 4 c 1,9,10
 63 34 63 34 63 86 c 0,11,12
 63 98 63 98 68 113 c 128,-1,13
 73 128 73 128 87.5 144 c 128,-1,14
 102 160 102 160 128 176 c 128,-1,15
 154 192 154 192 195 205 c 1,16,17
 137 221 137 221 98.5 263.5 c 128,-1,18
 60 306 60 306 60 369 c 0,19,20
 60 406 60 406 75 437.5 c 128,-1,21
 90 469 90 469 116 491.5 c 128,-1,22
 142 514 142 514 177.5 527 c 128,-1,23
 213 540 213 540 254 540 c 0,24,25
 288 540 288 540 317.5 531.5 c 128,-1,26
 347 523 347 523 371 508 c 1,27,28
 377 526 377 526 386 545 c 128,-1,29
 395 564 395 564 407 580 c 128,-1,30
 419 596 419 596 434.5 606 c 128,-1,31
 450 616 450 616 470 616 c 0,32,33
 493 616 493 616 510.5 602.5 c 128,-1,34
 528 589 528 589 528 566 c 0,35,36
 528 546 528 546 514.5 532.5 c 128,-1,37
 501 519 501 519 481 519 c 0,38,39
 470 519 470 519 464 523 c 128,-1,40
 458 527 458 527 453.5 532 c 128,-1,41
 449 537 449 537 444 541 c 128,-1,42
 439 545 439 545 430 545 c 0,43,44
 418 545 418 545 407.5 529.5 c 128,-1,45
 397 514 397 514 392 494 c 1,46,47
 421 470 421 470 437.5 437 c 128,-1,48
 454 404 454 404 454 369 c 0,49,50
 454 336 454 336 439.5 305.5 c 128,-1,51
 425 275 425 275 398.5 251 c 128,-1,52
 372 227 372 227 335.5 211 c 128,-1,53
 299 195 299 195 255 192 c 0,54,55
 236 190 236 190 216.5 185 c 128,-1,56
 197 180 197 180 181.5 171.5 c 128,-1,57
 166 163 166 163 156.5 152.5 c 128,-1,58
 147 142 147 142 147 129 c 0,59,60
 147 108 147 108 171 95 c 128,-1,61
 195 82 195 82 228.5 73 c 128,-1,62
 262 64 262 64 299 58 c 128,-1,63
 336 52 336 52 362 46 c 0,64,65
 403 37 403 37 428 22 c 128,-1,66
 453 7 453 7 466.5 -10.5 c 128,-1,67
 480 -28 480 -28 484.5 -46.5 c 128,-1,68
 489 -65 489 -65 489 -82 c 0,69,70
 489 -120 489 -120 474 -148 c 128,-1,71
 459 -176 459 -176 434 -196 c 0,72,73
 413 -213 413 -213 387 -225 c 128,-1,74
 361 -237 361 -237 332.5 -245 c 128,-1,75
 304 -253 304 -253 275.5 -256.5 c 128,-1,76
 247 -260 247 -260 220 -260 c 0,0,1
261 -29 m 0,77,78
 235 -24 235 -24 209.5 -18 c 128,-1,79
 184 -12 184 -12 164 -6 c 1,80,81
 129 -22 129 -22 108.5 -52 c 128,-1,82
 88 -82 88 -82 88 -117 c 0,83,84
 88 -144 88 -144 100 -165.5 c 128,-1,85
 112 -187 112 -187 134 -201 c 0,86,87
 174 -228 174 -228 239 -228 c 0,88,89
 269 -228 269 -228 299.5 -222 c 128,-1,90
 330 -216 330 -216 354 -204 c 0,91,92
 380 -191 380 -191 396 -170 c 128,-1,93
 412 -149 412 -149 412 -120 c 0,94,95
 412 -102 412 -102 405 -89 c 128,-1,96
 398 -76 398 -76 380.5 -65.5 c 128,-1,97
 363 -55 363 -55 334 -46.5 c 128,-1,98
 305 -38 305 -38 261 -29 c 0,77,78
255 224 m 0,99,100
 283 224 283 224 302 238 c 128,-1,101
 321 252 321 252 332 273.5 c 128,-1,102
 343 295 343 295 347.5 321 c 128,-1,103
 352 347 352 347 352 371 c 0,104,105
 352 391 352 391 348.5 415.5 c 128,-1,106
 345 440 345 440 335 461.5 c 128,-1,107
 325 483 325 483 307 497.5 c 128,-1,108
 289 512 289 512 260 512 c 0,109,110
 230 512 230 512 211 496.5 c 128,-1,111
 192 481 192 481 181.5 457.5 c 128,-1,112
 171 434 171 434 167 408 c 128,-1,113
 163 382 163 382 163 361 c 0,114,115
 163 341 163 341 166.5 317 c 128,-1,116
 170 293 170 293 180.5 272.5 c 128,-1,117
 191 252 191 252 208.5 238 c 128,-1,118
 226 224 226 224 255 224 c 0,99,100
269 857 m 0,119,120
 286 857 286 857 295 849.5 c 128,-1,121
 304 842 304 842 311 828 c 2,122,-1
 395 640 l 1,123,-1
 373 628 l 1,124,-1
 265 769 l 1,125,-1
 159 628 l 1,126,-1
 139 640 l 1,127,-1
 223 828 l 2,128,129
 229 842 229 842 239.5 849.5 c 128,-1,130
 250 857 250 857 269 857 c 0,119,120
EndSplineSet
EndChar
StartChar: Gbreve
Encoding: 286 286 44
Width: 808
Flags: W
LayerCount: 2
Back
Fore
SplineSet
691 81 m 1,0,1
 670 61 670 61 639.5 44.5 c 128,-1,2
 609 28 609 28 572.5 16 c 128,-1,3
 536 4 536 4 496.5 -3 c 128,-1,4
 457 -10 457 -10 418 -10 c 0,5,6
 338 -10 338 -10 271.5 18.5 c 128,-1,7
 205 47 205 47 157 98 c 128,-1,8
 109 149 109 149 82 220 c 128,-1,9
 55 291 55 291 55 376 c 0,10,11
 55 463 55 463 83 537 c 128,-1,12
 111 611 111 611 161.5 665 c 128,-1,13
 212 719 212 719 280.5 749.5 c 128,-1,14
 349 780 349 780 430 780 c 0,15,16
 489 780 489 780 539 764 c 128,-1,17
 589 748 589 748 622 719 c 1,18,-1
 626 719 l 1,19,-1
 680 770 l 1,20,-1
 702 770 l 1,21,-1
 702 540 l 1,22,-1
 679 540 l 1,23,24
 655 594 655 594 631 631.5 c 128,-1,25
 607 669 607 669 579 692 c 128,-1,26
 551 715 551 715 518.5 725 c 128,-1,27
 486 735 486 735 444 735 c 0,28,29
 314 735 314 735 248.5 644.5 c 128,-1,30
 183 554 183 554 183 376 c 0,31,32
 183 36 183 36 435 36 c 0,33,34
 484 36 484 36 521.5 51 c 128,-1,35
 559 66 559 66 578 97 c 0,36,37
 583 105 583 105 584.5 114 c 128,-1,38
 586 123 586 123 586 149 c 2,39,-1
 586 344 l 1,40,-1
 496 363 l 1,41,-1
 496 386 l 1,42,-1
 780 386 l 1,43,-1
 780 363 l 1,44,-1
 691 344 l 1,45,-1
 691 81 l 1,0,1
335 959 m 1,46,47
 347 930 347 930 376.5 917 c 128,-1,48
 406 904 406 904 441 904 c 0,49,50
 474 904 474 904 503.5 917 c 128,-1,51
 533 930 533 930 550 959 c 1,52,-1
 584 959 l 1,53,54
 572 916 572 916 553.5 890.5 c 128,-1,55
 535 865 535 865 514.5 851.5 c 128,-1,56
 494 838 494 838 473.5 834 c 128,-1,57
 453 830 453 830 437 830 c 0,58,59
 415 830 415 830 392.5 836.5 c 128,-1,60
 370 843 370 843 351 858 c 128,-1,61
 332 873 332 873 318 898 c 128,-1,62
 304 923 304 923 300 959 c 1,63,-1
 335 959 l 1,46,47
EndSplineSet
EndChar
StartChar: Gcommaaccent
Encoding: 290 290 46
Width: 808
Flags: W
LayerCount: 2
Back
Fore
SplineSet
691 81 m 1,0,1
 670 61 670 61 639.5 44.5 c 128,-1,2
 609 28 609 28 572.5 16 c 128,-1,3
 536 4 536 4 496.5 -3 c 128,-1,4
 457 -10 457 -10 418 -10 c 0,5,6
 338 -10 338 -10 271.5 18.5 c 128,-1,7
 205 47 205 47 157 98 c 128,-1,8
 109 149 109 149 82 220 c 128,-1,9
 55 291 55 291 55 376 c 0,10,11
 55 463 55 463 83 537 c 128,-1,12
 111 611 111 611 161.5 665 c 128,-1,13
 212 719 212 719 280.5 749.5 c 128,-1,14
 349 780 349 780 430 780 c 0,15,16
 489 780 489 780 539 764 c 128,-1,17
 589 748 589 748 622 719 c 1,18,-1
 626 719 l 1,19,-1
 680 770 l 1,20,-1
 702 770 l 1,21,-1
 702 540 l 1,22,-1
 679 540 l 1,23,24
 655 594 655 594 631 631.5 c 128,-1,25
 607 669 607 669 579 692 c 128,-1,26
 551 715 551 715 518.5 725 c 128,-1,27
 486 735 486 735 444 735 c 0,28,29
 314 735 314 735 248.5 644.5 c 128,-1,30
 183 554 183 554 183 376 c 0,31,32
 183 36 183 36 435 36 c 0,33,34
 484 36 484 36 521.5 51 c 128,-1,35
 559 66 559 66 578 97 c 0,36,37
 583 105 583 105 584.5 114 c 128,-1,38
 586 123 586 123 586 149 c 2,39,-1
 586 344 l 1,40,-1
 496 363 l 1,41,-1
 496 386 l 1,42,-1
 780 386 l 1,43,-1
 780 363 l 1,44,-1
 691 344 l 1,45,-1
 691 81 l 1,0,1
377 -222 m 1,46,47
 396 -209 396 -209 408 -194.5 c 128,-1,48
 420 -180 420 -180 420 -170 c 0,49,50
 420 -157 420 -157 412.5 -150 c 128,-1,51
 405 -143 405 -143 395.5 -136.5 c 128,-1,52
 386 -130 386 -130 378.5 -121.5 c 128,-1,53
 371 -113 371 -113 371 -95 c 0,54,55
 371 -73 371 -73 387 -58.5 c 128,-1,56
 403 -44 403 -44 427 -44 c 256,57,58
 451 -44 451 -44 466 -63.5 c 128,-1,59
 481 -83 481 -83 481 -110 c 0,60,61
 481 -194 481 -194 393 -246 c 1,62,-1
 377 -222 l 1,46,47
EndSplineSet
EndChar
StartChar: gcommaaccent
Encoding: 291 291 282
Width: 514
Flags: W
LayerCount: 2
Back
Fore
SplineSet
317 829 m 1,0,1
 298 816 298 816 286 801.5 c 128,-1,2
 274 787 274 787 274 777 c 0,3,4
 274 763 274 763 281.5 756.5 c 128,-1,5
 289 750 289 750 298.5 743.5 c 128,-1,6
 308 737 308 737 315.5 728.5 c 128,-1,7
 323 720 323 720 323 702 c 0,8,9
 323 680 323 680 307 665.5 c 128,-1,10
 291 651 291 651 267 651 c 256,11,12
 243 651 243 651 228 670.5 c 128,-1,13
 213 690 213 690 213 717 c 0,14,15
 213 801 213 801 301 853 c 1,16,-1
 317 829 l 1,0,1
220 -260 m 0,17,18
 184 -260 184 -260 141 -252.5 c 128,-1,19
 98 -245 98 -245 65 -225 c 0,20,21
 39 -209 39 -209 23 -185.5 c 128,-1,22
 7 -162 7 -162 7 -129 c 0,23,24
 7 -89 7 -89 34.5 -57 c 128,-1,25
 62 -25 62 -25 131 4 c 1,26,27
 63 34 63 34 63 86 c 0,28,29
 63 98 63 98 68 113 c 128,-1,30
 73 128 73 128 87.5 144 c 128,-1,31
 102 160 102 160 128 176 c 128,-1,32
 154 192 154 192 195 205 c 1,33,34
 137 221 137 221 98.5 263.5 c 128,-1,35
 60 306 60 306 60 369 c 0,36,37
 60 406 60 406 75 437.5 c 128,-1,38
 90 469 90 469 116 491.5 c 128,-1,39
 142 514 142 514 177.5 527 c 128,-1,40
 213 540 213 540 254 540 c 0,41,42
 288 540 288 540 317.5 531.5 c 128,-1,43
 347 523 347 523 371 508 c 1,44,45
 377 526 377 526 386 545 c 128,-1,46
 395 564 395 564 407 580 c 128,-1,47
 419 596 419 596 434.5 606 c 128,-1,48
 450 616 450 616 470 616 c 0,49,50
 493 616 493 616 510.5 602.5 c 128,-1,51
 528 589 528 589 528 566 c 0,52,53
 528 546 528 546 514.5 532.5 c 128,-1,54
 501 519 501 519 481 519 c 0,55,56
 470 519 470 519 464 523 c 128,-1,57
 458 527 458 527 453.5 532 c 128,-1,58
 449 537 449 537 444 541 c 128,-1,59
 439 545 439 545 430 545 c 0,60,61
 418 545 418 545 407.5 529.5 c 128,-1,62
 397 514 397 514 392 494 c 1,63,64
 421 470 421 470 437.5 437 c 128,-1,65
 454 404 454 404 454 369 c 0,66,67
 454 336 454 336 439.5 305.5 c 128,-1,68
 425 275 425 275 398.5 251 c 128,-1,69
 372 227 372 227 335.5 211 c 128,-1,70
 299 195 299 195 255 192 c 0,71,72
 236 190 236 190 216.5 185 c 128,-1,73
 197 180 197 180 181.5 171.5 c 128,-1,74
 166 163 166 163 156.5 152.5 c 128,-1,75
 147 142 147 142 147 129 c 0,76,77
 147 108 147 108 171 95 c 128,-1,78
 195 82 195 82 228.5 73 c 128,-1,79
 262 64 262 64 299 58 c 128,-1,80
 336 52 336 52 362 46 c 0,81,82
 403 37 403 37 428 22 c 128,-1,83
 453 7 453 7 466.5 -10.5 c 128,-1,84
 480 -28 480 -28 484.5 -46.5 c 128,-1,85
 489 -65 489 -65 489 -82 c 0,86,87
 489 -120 489 -120 474 -148 c 128,-1,88
 459 -176 459 -176 434 -196 c 0,89,90
 413 -213 413 -213 387 -225 c 128,-1,91
 361 -237 361 -237 332.5 -245 c 128,-1,92
 304 -253 304 -253 275.5 -256.5 c 128,-1,93
 247 -260 247 -260 220 -260 c 0,17,18
261 -29 m 0,94,95
 235 -24 235 -24 209.5 -18 c 128,-1,96
 184 -12 184 -12 164 -6 c 1,97,98
 129 -22 129 -22 108.5 -52 c 128,-1,99
 88 -82 88 -82 88 -117 c 0,100,101
 88 -144 88 -144 100 -165.5 c 128,-1,102
 112 -187 112 -187 134 -201 c 0,103,104
 174 -228 174 -228 239 -228 c 0,105,106
 269 -228 269 -228 299.5 -222 c 128,-1,107
 330 -216 330 -216 354 -204 c 0,108,109
 380 -191 380 -191 396 -170 c 128,-1,110
 412 -149 412 -149 412 -120 c 0,111,112
 412 -102 412 -102 405 -89 c 128,-1,113
 398 -76 398 -76 380.5 -65.5 c 128,-1,114
 363 -55 363 -55 334 -46.5 c 128,-1,115
 305 -38 305 -38 261 -29 c 0,94,95
255 224 m 0,116,117
 283 224 283 224 302 238 c 128,-1,118
 321 252 321 252 332 273.5 c 128,-1,119
 343 295 343 295 347.5 321 c 128,-1,120
 352 347 352 347 352 371 c 0,121,122
 352 391 352 391 348.5 415.5 c 128,-1,123
 345 440 345 440 335 461.5 c 128,-1,124
 325 483 325 483 307 497.5 c 128,-1,125
 289 512 289 512 260 512 c 0,126,127
 230 512 230 512 211 496.5 c 128,-1,128
 192 481 192 481 181.5 457.5 c 128,-1,129
 171 434 171 434 167 408 c 128,-1,130
 163 382 163 382 163 361 c 0,131,132
 163 341 163 341 166.5 317 c 128,-1,133
 170 293 170 293 180.5 272.5 c 128,-1,134
 191 252 191 252 208.5 238 c 128,-1,135
 226 224 226 224 255 224 c 0,116,117
EndSplineSet
EndChar
StartChar: Hcircumflex
Encoding: 292 292 50
Width: 857
Flags: W
LayerCount: 2
Back
Fore
SplineSet
618 385 m 1,0,-1
 240 385 l 1,1,-1
 240 42 l 1,2,-1
 329 23 l 1,3,-1
 329 0 l 1,4,-1
 45 0 l 1,5,-1
 45 23 l 1,6,-1
 135 42 l 1,7,-1
 135 728 l 1,8,-1
 45 747 l 1,9,-1
 45 770 l 1,10,-1
 329 770 l 1,11,-1
 329 747 l 1,12,-1
 240 728 l 1,13,-1
 240 425 l 1,14,-1
 618 425 l 1,15,-1
 618 728 l 1,16,-1
 528 747 l 1,17,-1
 528 770 l 1,18,-1
 812 770 l 1,19,-1
 812 745 l 1,20,-1
 723 728 l 1,21,-1
 723 42 l 1,22,-1
 812 21 l 1,23,-1
 812 0 l 1,24,-1
 528 0 l 1,25,-1
 528 23 l 1,26,-1
 618 42 l 1,27,-1
 618 385 l 1,0,-1
432 960 m 0,28,29
 449 960 449 960 461 953.5 c 128,-1,30
 473 947 473 947 487 933 c 2,31,-1
 580 837 l 1,32,-1
 561 820 l 1,33,-1
 432 878 l 1,34,-1
 305 820 l 1,35,-1
 285 837 l 1,36,-1
 379 933 l 2,37,38
 392 946 392 946 402.5 953 c 128,-1,39
 413 960 413 960 432 960 c 0,28,29
EndSplineSet
EndChar
StartChar: hcircumflex
Encoding: 293 293 295
Width: 619
Flags: W
LayerCount: 2
Back
Fore
SplineSet
269 20 m 1,0,-1
 269 0 l 1,1,-1
 23 0 l 1,2,-1
 23 20 l 1,3,-1
 99 35 l 1,4,-1
 99 741 l 1,5,-1
 25 768 l 1,6,-1
 25 782 l 1,7,-1
 184 830 l 1,8,-1
 194 830 l 1,9,-1
 194 457 l 1,10,11
 240 497 240 497 291.5 518.5 c 128,-1,12
 343 540 343 540 394 540 c 0,13,14
 434 540 434 540 465 524 c 128,-1,15
 496 508 496 508 510 480 c 0,16,17
 514 472 514 472 516.5 462.5 c 128,-1,18
 519 453 519 453 520.5 437 c 128,-1,19
 522 421 522 421 522.5 397.5 c 128,-1,20
 523 374 523 374 523 338 c 2,21,-1
 523 34 l 1,22,-1
 598 20 l 1,23,-1
 598 0 l 1,24,-1
 353 0 l 1,25,-1
 353 20 l 1,26,-1
 428 34 l 1,27,-1
 428 328 l 2,28,29
 428 371 428 371 425.5 396.5 c 128,-1,30
 423 422 423 422 416 439 c 0,31,32
 397 485 397 485 338 485 c 0,33,34
 254 485 254 485 194 420 c 1,35,-1
 194 35 l 1,36,-1
 269 20 l 1,0,-1
398 857 m 0,37,38
 415 857 415 857 424 849.5 c 128,-1,39
 433 842 433 842 440 828 c 2,40,-1
 524 640 l 1,41,-1
 502 628 l 1,42,-1
 394 769 l 1,43,-1
 288 628 l 1,44,-1
 268 640 l 1,45,-1
 352 828 l 2,46,47
 358 842 358 842 368.5 849.5 c 128,-1,48
 379 857 379 857 398 857 c 0,37,38
EndSplineSet
EndChar
StartChar: Hbar
Encoding: 294 294 49
Width: 858
Flags: W
LayerCount: 2
Back
Fore
SplineSet
135 547 m 1,0,-1
 55 547 l 1,1,-1
 55 612 l 1,2,-1
 135 612 l 1,3,-1
 135 728 l 1,4,-1
 45 747 l 1,5,-1
 45 770 l 1,6,-1
 329 770 l 1,7,-1
 329 747 l 1,8,-1
 240 728 l 1,9,-1
 240 612 l 1,10,-1
 618 612 l 1,11,-1
 618 728 l 1,12,-1
 528 747 l 1,13,-1
 528 770 l 1,14,-1
 812 770 l 1,15,-1
 812 745 l 1,16,-1
 723 728 l 1,17,-1
 723 612 l 1,18,-1
 813 612 l 1,19,-1
 813 547 l 1,20,-1
 723 547 l 1,21,-1
 723 42 l 1,22,-1
 812 21 l 1,23,-1
 812 0 l 1,24,-1
 528 0 l 1,25,-1
 528 23 l 1,26,-1
 618 42 l 1,27,-1
 618 385 l 1,28,-1
 240 385 l 1,29,-1
 240 42 l 1,30,-1
 329 23 l 1,31,-1
 329 0 l 1,32,-1
 45 0 l 1,33,-1
 45 23 l 1,34,-1
 135 42 l 1,35,-1
 135 547 l 1,0,-1
240 425 m 1,36,-1
 618 425 l 1,37,-1
 618 547 l 1,38,-1
 240 547 l 1,39,-1
 240 425 l 1,36,-1
EndSplineSet
EndChar
StartChar: hbar
Encoding: 295 295 294
Width: 619
Flags: W
LayerCount: 2
Back
Fore
SplineSet
269 20 m 1,0,-1
 269 0 l 1,1,-1
 23 0 l 1,2,-1
 23 20 l 1,3,-1
 99 35 l 1,4,-1
 99 609 l 1,5,-1
 25 609 l 1,6,-1
 25 674 l 1,7,-1
 99 674 l 1,8,-1
 99 741 l 1,9,-1
 25 768 l 1,10,-1
 25 782 l 1,11,-1
 184 830 l 1,12,-1
 194 830 l 1,13,-1
 194 674 l 1,14,-1
 332 674 l 1,15,-1
 332 609 l 1,16,-1
 194 609 l 1,17,-1
 194 457 l 1,18,19
 240 497 240 497 291.5 518.5 c 128,-1,20
 343 540 343 540 394 540 c 0,21,22
 434 540 434 540 465 524 c 128,-1,23
 496 508 496 508 510 480 c 0,24,25
 514 472 514 472 516.5 462.5 c 128,-1,26
 519 453 519 453 520.5 437 c 128,-1,27
 522 421 522 421 522.5 397.5 c 128,-1,28
 523 374 523 374 523 338 c 2,29,-1
 523 34 l 1,30,-1
 598 20 l 1,31,-1
 598 0 l 1,32,-1
 353 0 l 1,33,-1
 353 20 l 1,34,-1
 428 34 l 1,35,-1
 428 328 l 2,36,37
 428 371 428 371 425.5 396.5 c 128,-1,38
 423 422 423 422 416 439 c 0,39,40
 397 485 397 485 338 485 c 0,41,42
 254 485 254 485 194 420 c 1,43,-1
 194 35 l 1,44,-1
 269 20 l 1,0,-1
EndSplineSet
EndChar
StartChar: Itilde
Encoding: 296 296 63
Width: 374
Flags: W
LayerCount: 2
Back
Fore
SplineSet
135 728 m 1,0,-1
 45 747 l 1,1,-1
 45 770 l 1,2,-1
 329 770 l 1,3,-1
 329 747 l 1,4,-1
 240 728 l 1,5,-1
 240 42 l 1,6,-1
 329 23 l 1,7,-1
 329 0 l 1,8,-1
 45 0 l 1,9,-1
 45 23 l 1,10,-1
 135 42 l 1,11,-1
 135 728 l 1,0,-1
35 843 m 1,12,13
 35 894 35 894 58.5 925.5 c 128,-1,14
 82 957 82 957 119 957 c 0,15,16
 136 957 136 957 155 951.5 c 128,-1,17
 174 946 174 946 193.5 939.5 c 128,-1,18
 213 933 213 933 232 927.5 c 128,-1,19
 251 922 251 922 268 922 c 0,20,21
 310 922 310 922 318 960 c 1,22,-1
 342 960 l 1,23,24
 342 908 342 908 318.5 875 c 128,-1,25
 295 842 295 842 258 842 c 0,26,27
 240 842 240 842 221.5 848 c 128,-1,28
 203 854 203 854 184 861.5 c 128,-1,29
 165 869 165 869 146.5 875 c 128,-1,30
 128 881 128 881 110 881 c 0,31,32
 64 881 64 881 59 843 c 1,33,-1
 35 843 l 1,12,13
EndSplineSet
EndChar
StartChar: itilde
Encoding: 297 297 310
Width: 300
Flags: W
LayerCount: 2
Back
Fore
SplineSet
277 20 m 1,0,-1
 277 0 l 1,1,-1
 31 0 l 1,2,-1
 31 20 l 1,3,-1
 107 35 l 1,4,-1
 107 451 l 1,5,-1
 33 478 l 1,6,-1
 33 492 l 1,7,-1
 193 540 l 1,8,-1
 202 540 l 1,9,-1
 202 35 l 1,10,-1
 277 20 l 1,0,-1
1 683 m 1,11,12
 1 734 1 734 24.5 765.5 c 128,-1,13
 48 797 48 797 85 797 c 0,14,15
 102 797 102 797 121 791.5 c 128,-1,16
 140 786 140 786 159.5 779.5 c 128,-1,17
 179 773 179 773 198 767.5 c 128,-1,18
 217 762 217 762 234 762 c 0,19,20
 276 762 276 762 284 800 c 1,21,-1
 308 800 l 1,22,23
 308 748 308 748 284.5 715 c 128,-1,24
 261 682 261 682 224 682 c 0,25,26
 206 682 206 682 187.5 688 c 128,-1,27
 169 694 169 694 150 701.5 c 128,-1,28
 131 709 131 709 112.5 715 c 128,-1,29
 94 721 94 721 76 721 c 0,30,31
 30 721 30 721 25 683 c 1,32,-1
 1 683 l 1,11,12
EndSplineSet
EndChar
StartChar: Imacron
Encoding: 298 298 61
Width: 374
Flags: W
LayerCount: 2
Back
Fore
SplineSet
135 728 m 1,0,-1
 45 747 l 1,1,-1
 45 770 l 1,2,-1
 329 770 l 1,3,-1
 329 747 l 1,4,-1
 240 728 l 1,5,-1
 240 42 l 1,6,-1
 329 23 l 1,7,-1
 329 0 l 1,8,-1
 45 0 l 1,9,-1
 45 23 l 1,10,-1
 135 42 l 1,11,-1
 135 728 l 1,0,-1
46 877 m 1,12,-1
 46 948 l 1,13,-1
 333 948 l 1,14,-1
 333 877 l 1,15,-1
 46 877 l 1,12,-1
EndSplineSet
EndChar
StartChar: imacron
Encoding: 299 299 308
Width: 300
Flags: W
LayerCount: 2
Back
Fore
SplineSet
277 20 m 1,0,-1
 277 0 l 1,1,-1
 31 0 l 1,2,-1
 31 20 l 1,3,-1
 107 35 l 1,4,-1
 107 451 l 1,5,-1
 33 478 l 1,6,-1
 33 492 l 1,7,-1
 193 540 l 1,8,-1
 202 540 l 1,9,-1
 202 35 l 1,10,-1
 277 20 l 1,0,-1
1 709 m 1,11,-1
 1 780 l 1,12,-1
 288 780 l 1,13,-1
 288 709 l 1,14,-1
 1 709 l 1,11,-1
EndSplineSet
EndChar
StartChar: Ibreve
Encoding: 300 300 55
Width: 374
Flags: W
LayerCount: 2
Back
Fore
SplineSet
135 728 m 1,0,-1
 45 747 l 1,1,-1
 45 770 l 1,2,-1
 329 770 l 1,3,-1
 329 747 l 1,4,-1
 240 728 l 1,5,-1
 240 42 l 1,6,-1
 329 23 l 1,7,-1
 329 0 l 1,8,-1
 45 0 l 1,9,-1
 45 23 l 1,10,-1
 135 42 l 1,11,-1
 135 728 l 1,0,-1
81 959 m 1,12,13
 93 930 93 930 122.5 917 c 128,-1,14
 152 904 152 904 187 904 c 0,15,16
 220 904 220 904 249.5 917 c 128,-1,17
 279 930 279 930 296 959 c 1,18,-1
 330 959 l 1,19,20
 318 916 318 916 299.5 890.5 c 128,-1,21
 281 865 281 865 260.5 851.5 c 128,-1,22
 240 838 240 838 219.5 834 c 128,-1,23
 199 830 199 830 183 830 c 0,24,25
 161 830 161 830 138.5 836.5 c 128,-1,26
 116 843 116 843 97 858 c 128,-1,27
 78 873 78 873 64 898 c 128,-1,28
 50 923 50 923 46 959 c 1,29,-1
 81 959 l 1,12,13
EndSplineSet
EndChar
StartChar: ibreve
Encoding: 301 301 302
Width: 300
Flags: W
LayerCount: 2
Back
Fore
SplineSet
277 20 m 1,0,-1
 277 0 l 1,1,-1
 31 0 l 1,2,-1
 31 20 l 1,3,-1
 107 35 l 1,4,-1
 107 451 l 1,5,-1
 33 478 l 1,6,-1
 33 492 l 1,7,-1
 193 540 l 1,8,-1
 202 540 l 1,9,-1
 202 35 l 1,10,-1
 277 20 l 1,0,-1
52 790 m 1,11,12
 64 755 64 755 93.5 740 c 128,-1,13
 123 725 123 725 158 725 c 0,14,15
 191 725 191 725 220.5 740 c 128,-1,16
 250 755 250 755 267 790 c 1,17,-1
 301 790 l 1,18,19
 289 743 289 743 270.5 715.5 c 128,-1,20
 252 688 252 688 231.5 674 c 128,-1,21
 211 660 211 660 190.5 655.5 c 128,-1,22
 170 651 170 651 154 651 c 0,23,24
 132 651 132 651 109.5 658 c 128,-1,25
 87 665 87 665 68 681.5 c 128,-1,26
 49 698 49 698 35 724.5 c 128,-1,27
 21 751 21 751 17 790 c 1,28,-1
 52 790 l 1,11,12
EndSplineSet
EndChar
StartChar: Iogonek
Encoding: 302 302 62
Width: 374
Flags: W
LayerCount: 2
Back
Fore
SplineSet
263 -202 m 1,0,1
 216 -256 216 -256 153 -256 c 0,2,3
 106 -256 106 -256 78.5 -232.5 c 128,-1,4
 51 -209 51 -209 51 -168 c 0,5,6
 51 -129 51 -129 81 -85 c 128,-1,7
 111 -41 111 -41 165 0 c 1,8,-1
 45 0 l 1,9,-1
 45 23 l 1,10,-1
 135 42 l 1,11,-1
 135 728 l 1,12,-1
 45 747 l 1,13,-1
 45 770 l 1,14,-1
 329 770 l 1,15,-1
 329 747 l 1,16,-1
 240 728 l 1,17,-1
 240 42 l 1,18,-1
 329 23 l 1,19,-1
 329 0 l 1,20,-1
 208 0 l 1,21,22
 139 -83 139 -83 139 -144 c 0,23,24
 139 -201 139 -201 192 -201 c 0,25,26
 206 -201 206 -201 218.5 -196 c 128,-1,27
 231 -191 231 -191 248 -180 c 1,28,-1
 263 -202 l 1,0,1
EndSplineSet
EndChar
